<svg xmlns="http://www.w3.org/2000/svg" viewBox="0 0 17.6 17.6"><defs><style>.cls-1{fill:#fff;}.cls-2{fill:#555556;}</style></defs><title>about_this_project</title><g id="Layer_2" data-name="Layer 2"><g id="Layer_1-2" data-name="Layer 1"><g id="i_icon" data-name="i icon"><path class="cls-1" d="M8.8,0a8.8,8.8,0,1,0,8.8,8.8A8.83,8.83,0,0,0,8.8,0Z"/><path class="cls-2" d="M6.24,7.56a5,5,0,0,1,2-.6c1,0,1.94.61,1.93,1.45a9.91,9.91,0,0,1-.34,2.12s-.21,1-.32,1.39-.26.93.18,1.08,1.36-.41,1.36-.41l-.44,1.28A4.19,4.19,0,0,1,9,14.35a2.67,2.67,0,0,1-1.79-.54,2.05,2.05,0,0,1-.42-2.09c.17-.58.93-2.86.68-3.34s-1.33.2-1.33.2Z"/><path class="cls-2" d="M7.64,4.29A1.5,1.5,0,0,1,9.17,2.87,1.44,1.44,0,0,1,10.5,4.44,1.5,1.5,0,0,1,9,5.86,1.44,1.44,0,0,1,7.64,4.29Z"/></g></g></g></svg>