<?xml version="1.0" encoding="utf-8"?>
<!-- Generator: Adobe Illustrator 21.0.2, SVG Export Plug-In . SVG Version: 6.00 Build 0)  -->
<svg version="1.1" id="Layer_1" xmlns="http://www.w3.org/2000/svg" xmlns:xlink="http://www.w3.org/1999/xlink" x="0px" y="0px"
	 viewBox="0 0 16 16" style="enable-background:new 0 0 16 16;" xml:space="preserve">
<style type="text/css">
	.st0{fill:#FFFFFF;}
	.st1{fill:#555556;}
	.st2{fill:none;stroke:#FFFFFF;stroke-miterlimit:10;}
	.st3{fill:none;}
</style>
<title>download_icon</title>
<polygon class="st0" points="2.2,0 2.2,11.6 5.6,11.6 5.6,6.7 10.5,6.7 10.5,11.6 13.8,11.6 13.8,0 "/>
<polygon class="st1" points="13.3,11.6 10.4,4.8 9,5.8 7,1.8 2.7,11.6 "/>
<path class="st0" d="M5.1,13.3c0,0-0.4-0.3,0-0.3h1.6V9.1c0-0.1,0.1-0.2,0.3-0.2h2.2c0.1,0,0.2,0.1,0.3,0.2v3.7h1.5
	c0.5,0,0.2,0.3,0.2,0.3L8.1,16L5.1,13.3z"/>
<line class="st2" x1="2.7" y1="11.1" x2="13.4" y2="11.1"/>
<rect x="2.2" class="st3" width="11.6" height="11.6"/>
<circle class="st1" cx="11.8" cy="2.4" r="1"/>
</svg>
