<svg id="Layer_1" data-name="Layer 1" xmlns="http://www.w3.org/2000/svg" viewBox="0 0 16 16"><defs><style>.cls-1{fill:#fff;}.cls-2,.cls-3,.cls-4{fill:none;}.cls-3,.cls-4{stroke:#fff;stroke-miterlimit:10;}.cls-4{stroke-width:0.75px;}</style></defs><title>download_file</title><path class="cls-1" d="M5.07,13.31s-.44-.34,0-.34H6.64V9.14a.26.26,0,0,1,.26-.21H9.09a.27.27,0,0,1,.26.19v3.71h1.49c.52,0,.17.34.17.34L8.11,16Z"/><polygon class="cls-2" points="2.18 0 2.18 11.64 5.6 11.64 5.6 6.71 10.5 6.71 10.5 11.64 13.82 11.64 13.82 0 2.18 0"/><line class="cls-3" x1="2.7" y1="11.13" x2="13.35" y2="11.13"/><rect class="cls-2" x="2.18" width="11.64" height="11.64"/><path class="cls-1" d="M10,1l2.81,2.86v6.79H3.18V1H10m.42-1H2.18V11.64H13.82V3.45L10.43,0Z"/><line class="cls-4" x1="9.86" y1="0.44" x2="9.86" y2="4.03"/><line class="cls-4" x1="13.4" y1="4.03" x2="9.48" y2="4.03"/></svg>