<?xml version="1.0" encoding="utf-8"?>
<!-- Generator: Adobe Illustrator 21.1.0, SVG Export Plug-In . SVG Version: 6.00 Build 0)  -->
<svg version="1.1" id="Layer_1" xmlns="http://www.w3.org/2000/svg" xmlns:xlink="http://www.w3.org/1999/xlink" x="0px" y="0px"
	 viewBox="0 0 12.5 12.5" style="enable-background:new 0 0 12.5 12.5;" xml:space="preserve">
<style type="text/css">
	.st0{fill:#A9A9A9;}
	.st1{fill:#FFFFFF;}
</style>
<title>large_qmark</title>
<circle class="st0" cx="6.2" cy="6.2" r="6.2"/>
<path class="st1" d="M7.2,10.8c-0.2,0.2-0.6,0.4-0.9,0.4c-0.2,0-0.3,0-0.5-0.1c-0.2-0.1-0.3-0.1-0.4-0.3c-0.1-0.1-0.2-0.3-0.3-0.4
	C5,10.2,5,10,5,9.9C5,9.6,5.1,9.2,5.3,9c0.1-0.1,0.3-0.2,0.4-0.3c0.2-0.1,0.3-0.1,0.5-0.1c0.2,0,0.3,0,0.5,0.1C6.9,8.8,7,8.9,7.2,9
	c0.1,0.1,0.2,0.2,0.3,0.4C7.6,9.9,7.5,10.4,7.2,10.8z"/>
<path class="st1" d="M9.4,4.8C9.3,5,9.2,5.2,9.1,5.4C8.9,5.6,8.8,5.8,8.6,5.9C8.4,6.1,8.2,6.2,8,6.4C7.8,6.7,7.7,6.9,7.6,7.2
	c0,0.2-0.1,0.7-0.1,0.7H5c0.1-0.5,0.2-0.9,0.4-1.4c0.2-0.4,0.5-0.7,0.8-1L6.6,5C6.8,4.9,6.9,4.8,7,4.7c0.1-0.1,0.2-0.3,0.2-0.5
	c0-0.2,0-0.5-0.2-0.7C6.8,3.3,6.6,3.2,6.3,3.2C6,3.2,5.7,3.4,5.5,3.6C5.3,3.9,5.2,4.2,5.2,4.5L3,4.2C3,3.8,3.2,3.4,3.4,3
	c0.2-0.3,0.4-0.7,0.7-0.9c0.3-0.2,0.6-0.4,1-0.5c0.4-0.1,0.8-0.2,1.2-0.2c0.4,0,0.8,0,1.2,0.1c0.4,0.1,0.7,0.3,1,0.5
	C8.8,2.2,9,2.5,9.2,2.8C9.4,3.2,9.5,3.6,9.5,4C9.5,4.3,9.4,4.5,9.4,4.8z"/>
</svg>
