<?xml version="1.0" encoding="utf-8"?>
<!-- Generator: Adobe Illustrator 21.0.2, SVG Export Plug-In . SVG Version: 6.00 Build 0)  -->
<svg version="1.1" id="Layer_1" xmlns="http://www.w3.org/2000/svg" xmlns:xlink="http://www.w3.org/1999/xlink" x="0px" y="0px"
	 viewBox="0 0 400 400" style="enable-background:new 0 0 400 400;" xml:space="preserve">
<style type="text/css">
	.st0{clip-path:url(#SVGID_2_);fill:#B2B2B2;}
</style>
<g transform="scale(14,14) translate(-185.5,-186)">
	<defs>
		<rect id="SVGID_1_" x="187.8" y="188.5" width="24" height="24"/>
	</defs>
	<clipPath id="SVGID_2_">
		<use xlink:href="#SVGID_1_"  style="overflow:visible;"/>
	</clipPath>
	<path class="st0" d="M201.6,193.3c-0.5,0-1,0.2-1.3,0.5l-6.5,6.5l6.6,6.6c0.4,0.4,0.8,0.5,1.3,0.5s1-0.2,1.3-0.5
		c0.7-0.7,0.7-1.9,0-2.7l-4-4l3.9-3.9c0.7-0.7,0.7-1.9,0-2.7C202.6,193.5,202.1,193.3,201.6,193.3"/>
	<path class="st0" d="M199.8,188.5c-6.6,0-12,5.4-12,12c0,6.6,5.4,12,12,12c6.6,0,12-5.4,12-12h-0.8h-0.8c0,2.9-1.2,5.5-3.1,7.4
		c-1.9,1.9-4.5,3.1-7.4,3.1c-2.9,0-5.5-1.2-7.4-3.1c-1.9-1.9-3.1-4.5-3.1-7.4c0-2.9,1.2-5.5,3.1-7.4c1.9-1.9,4.5-3.1,7.4-3.1
		c2.9,0,5.5,1.2,7.4,3.1c1.9,1.9,3.1,4.5,3.1,7.4h0.8h0.8C211.8,193.8,206.4,188.5,199.8,188.5"/>
</g>
</svg>
