<svg id="landmarks-canada" xmlns="http://www.w3.org/2000/svg" viewBox="0 0 640 600"><defs><style>.cls-1{fill:#f0ede5;}</style></defs><title>map2</title><path id="ca-ab" class="cls-1" d="M162.7,479.1c-23.7-6.2-21.1-5.3-22.5-8.4L139,468l1-4.9c1-5.1,1-6.5-.4-9.1-.5-.9-1.8-3.5-2.9-5.7a60.36,60.36,0,0,1-3-6.9,22.84,22.84,0,0,0-2.2-4.7,14.89,14.89,0,0,1-1.6-3.5,8,8,0,0,0-1.6-3,6.83,6.83,0,0,1-1.3-1.9,5.71,5.71,0,0,0-.9-1.8,11.53,11.53,0,0,1-1.3-4.3,10.73,10.73,0,0,0-1.5-4.5,13,13,0,0,1-1.5-2.8,6.79,6.79,0,0,0-2-2.2c-1.5-1-2.1-2.6-1.1-3.2.3-.1.4-1.4.4-2.7,0-2.4,2.9-10.7,22.6-65l1.8-4.9,9.8,3.3c5.4,1.8,13.6,4.4,18.2,5.7s12.8,3.7,18.1,5.3,9.7,2.9,9.8,3c.3.3-1.3,6.8-1.8,7.1a4.87,4.87,0,0,1-1.6.6c-1.1.3-5.8,4.9-5.8,5.7,0,.3.7.8,1.6,1.2,1.5.7,1.6.7,2.9-.1a5.19,5.19,0,0,0,1.6-1.8c.2-.5.4-.8.5-.7a71.64,71.64,0,0,1-1.5,7.4c-2.3,9.4-4.7,19.6-8,33.5-1.5,6.2-3.2,13.3-3.8,15.7-2.9,12.3-5.6,23.2-7,29.2-7.5,31.5-6.9,29-7.3,28.9A63.3,63.3,0,0,0,162.7,479.1Z"/><g id="ca-bc"><path class="cls-1" d="M68.8,455.9c-2.8-1.8-7.1-7.4-7.1-9.3,0-1.1-.3-1.4-1.3-1.8-1.3-.5-2.3-2.2-2.9-5a11.86,11.86,0,0,0-1.3-2.9c-.5-.9-1.3-2.4-1.8-3.5a41,41,0,0,0-2.6-5,18.45,18.45,0,0,1-2.3-5.8,21.83,21.83,0,0,0-1.2-4.2c-.6-1.4-.5-1.5.7-2.5a4.51,4.51,0,0,1,2.2-1.1q1.35,0,7.8,7.5c1.3,1.5,2.6,3,2.9,3.3s1.1,1.4,2,2.5a14.51,14.51,0,0,0,1.8,2.2c.6.5,1.7,4.4,2,7s.6,3.2,2.5,5.7c2.5,3.4,2.8,3.9,3.2,7.3a32,32,0,0,0,.9,4.3c.3.9.5,1.8.3,1.9C74,457.3,70.3,456.9,68.8,455.9Z"/><path class="cls-1" d="M138.9,472.6c-.4-.1-9.5-3-16.6-5.1-2.4-.8-28.3-10.4-38.9-14.6-1.8-.7-3.9-1.5-4.6-1.8-1.7-.6-2-1.1-2-3.1a3,3,0,0,0-.9-2.4c-2.6-2.1-3.5-3.2-3.5-4,0-.5-.2-.9-.4-.9-1.1,0-2.6-2.4-2.9-4.4a14.71,14.71,0,0,0-4.5-8.8c-2.3-2.4-2.3-2.4-2.1-4.5.2-1.7.1-2.1-.4-2.1s-.8-.1-.8-.4a10.85,10.85,0,0,0-2.3-1.6c-1.2-.7-2.1-1.5-2.1-1.8a9.32,9.32,0,0,0-.2-1.4c-.3-1.2-.3-2-.2-6.7.1-4,.1-4.1,1.4-5.2s1.3-1.2.9-2.5a10.59,10.59,0,0,1-.5-3.1c0-1.3-.4-2.4-1.8-4.3-1.5-2.1-1.8-2.8-1.5-4a4.64,4.64,0,0,1,1.2-2.3c1-.9.9-1.5-.6-4.5-.8-1.5-.9-2.6-.9-7.5,0-5.5.1-5.8,1.1-6.9a12.43,12.43,0,0,1,3.5-2c3.2-1.2,5.7-3.5,5.7-5.1a9,9,0,0,1,2.6-5.6c1.2-1.4,1.4-1.8,1.4-4.2s-.1-2.8-1.3-3.9c-1.5-1.4-4.2-6.4-4.9-9.3-.4-1.7-.3-2.6.7-6.9s1.1-5.3.7-7.5a51.29,51.29,0,0,1-.7-6.7,29.71,29.71,0,0,0-.5-5.1c-.1-.5-.3-1.7-.5-2.6s-.8-4.2-1.6-7.3-1.4-6-1.5-6.5-.8-1.2-1.8-1.7c-3.1-1.3-3.5-1.3-4.3.2-.6,1-1.5,1.6-3.5,2.3-1.5.5-3.5,1.4-4.4,1.8s-1.8.8-1.8.8.1-.6.3-1.4c.6-2.2.2-7.5-.7-8.9s-.8-5.5.2-5.3c.3.1,4.8,2.9,9.9,6.2,14,9.2,29.3,18.5,36.7,22.4,3.7,1.9,6.8,3.6,7.1,3.8,1.2.9,14.8,7.8,19.9,10.1,3.2,1.4,10,4.3,15.3,6.3s9.7,3.8,9.9,4,.1.8-.1,1.4-2.6,6.9-5.1,14.1-5.5,15.1-6.4,17.7c-10.2,27.9-12.4,34.2-12.4,36.4a7,7,0,0,1-.7,3.3,3,3,0,0,0,1.2,4.3c2.1,1.3,4.7,6.3,5.1,9.4a10.9,10.9,0,0,0,1.5,4.5,12.06,12.06,0,0,1,1.3,2.4,4.44,4.44,0,0,0,1.1,1.6,8.73,8.73,0,0,1,1.6,3.2,7.18,7.18,0,0,0,1,2.4c.6.3,2.4,4.1,2.8,5.7a73.61,73.61,0,0,0,3.5,7.7c1.8,3.7,3.2,7,3.2,7.7a35.35,35.35,0,0,1-.8,5.5c-.8,4.3-.7,6.1.5,7.9C139.7,472.5,139.6,472.8,138.9,472.6Z"/><path class="cls-1" d="M37.5,389.2c-1.8-4.1-2.5-9.1-2.2-16.2.2-4.1.5-6.6.8-7a2.85,2.85,0,0,0,.6-1.4c0-1.2,1.9-1.1,3.7.1,2.1,1.4,4.9,4.2,4.9,4.9,0,.3-1.8,2.4-4,4.7-4.7,4.8-4.7,5.1-2.9,11.7a40.82,40.82,0,0,1,1.1,4.7C39.6,392.3,38.5,391.5,37.5,389.2Z"/></g><path id="ca-mb" class="cls-1" d="M248.4,363.2l-.3,2.8c-.2,1.5-.4,3.1-.4,3.5a27,27,0,0,0-.4,3.1c-.2,1.4-.4,2.7-.4,3.1s-.5,3.2-.9,6.4c-.7,5.4-.7,5.8,0,7s.7,1.3-.5,2.9c-.7.9-1.5,1.9-1.8,2.3s-.6,3.3-.8,6.5-.4,6.5-.4,7.5-.3,3.6-.4,5.8-.4,5.2-.5,6.6c-.4,6.1-.6,8.6-.9,11.9-.1,1.9-.3,4.5-.4,5.8s-.3,4.2-.5,6.6-.3,5.2-.4,6.2-.3,3.9-.4,6.4-.4,5.4-.4,6.2-.3,3.8-.5,6.6-.4,5.4-.4,5.8c-.2,1.2-.8,11.2-.9,14.1v2.9l2.6.3c4.3.4,8.3.9,9.5,1.1.6.1,2.2.3,3.5.4,2.6.3,4,.5,8,.9,1.4.2,4.3.4,6.6.6s6.2.3,8.7.4l4.5.1.3-2.1c.1-1.2.4-4.5.5-7.4s.3-6.7.4-8.4.3-6.1.5-9.7c.5-12.6.6-13.9,1.7-15.7a88.57,88.57,0,0,1,7-8c3.3-3.5,6.9-7.3,8-8.5s2.1-2.4,2.4-2.7c4.3-4.8,6.3-7.1,8.6-9.9,1.5-1.8,4.1-4.8,5.8-6.7s3.7-4.1,4.6-5.1,2.5-2.8,3.8-4.1a16,16,0,0,0,2.3-2.9c0-.5-2.3-1.4-4.3-1.8-3.1-.5-3.9-.8-4.4-1.5s-1.1-.8-3.2-.7a6.88,6.88,0,0,0-3,.5c-.4.5-5.5,1.2-6.5.8-.5-.2-.5-.5-.3-1.2.3-1,.3-1.5-1-7.4a76,76,0,0,1-1.4-8c-.4-2.8-1.5-3.6-6.1-4.6-3-.6-4-1-4.4-1.7-.5-1-.5-4.5,0-9.2l.4-3-2.4-.1c-1.3,0-2.5-.1-2.7-.1s-1.8-.2-3.6-.4-3.6-.4-4-.5-2-.3-3.7-.5-3.5-.4-4-.5-2.1-.3-3.6-.4-4.3-.5-6.2-.7-4.7-.5-6.2-.7-3.6-.4-4.7-.5ZM261,439.1a3.83,3.83,0,0,1,3.7,2.5,13.64,13.64,0,0,0,1.2,2c.8.6,2.9,6,2.5,6.6-.2.4.6,2.8,1.4,4.4a8.75,8.75,0,0,1,.5,3.3c-.1,2.5,1.4,7.9,2.8,10.3.6,1,.8,2.5.9,5.5.1,4.1.1,4.2-1,4.4a3.61,3.61,0,0,0-1.9,1.2c-1,1.2-1.8,1.4-2.7.4-.8-.8-.5-3.9.4-5.3a7.61,7.61,0,0,0,.8-2.1,5.45,5.45,0,0,1,.8-1.9c.9-1.1.9-2.1-.1-2.7-.7-.5-1-.4-1.4.3-.6,1-1.7,1.2-1.7.4a6.66,6.66,0,0,1,.5-1.9c1.2-3.3-.8-6.1-3.5-5.2a1.6,1.6,0,0,1-2.2-.5,8.39,8.39,0,0,1-1.5-3,12.85,12.85,0,0,0-1.8-3.5,3.51,3.51,0,0,1-.9-2.8c.2-1.2,0-1.4-2-2.5-2.9-1.5-4-1.1-4.1,1.5,0,1-.1,2.8-.2,4-.4,6.1-.4,6.1,1.4,7.5,3.9,3.1,4.2,3.5,4.8,6.2a29,29,0,0,1,.6,4.3,11.64,11.64,0,0,0,1.1,3.9c1.5,2.9,1.5,5.2.1,5.6s-2,.3-2.4-.2-1.5-6.1-2.4-10.9c-.5-2.7-1.1-3.6-4.2-5.6-2.4-1.6-3.6-2.8-3.5-3.7a6.15,6.15,0,0,0,.1-1.4,1.91,1.91,0,0,1,.7-1.4c.4-.4.6-1.6.6-3.5,0-2.9,0-2.9-1.7-3.9-1.9-1.1-2.6-2.1-2.6-3.8,0-.9.2-1.1,1.1-1.1,1.6,0,2.2-1.4,1.1-2.8a3.78,3.78,0,0,1-.9-1.6c0-.6,2.1-1.5,3.3-1.4s3.4,2.2,3.4,3.2a3.43,3.43,0,0,0,1,1.7l1,1,.6-1.6c1-2.7,2.8-5,4.2-5.3A4.22,4.22,0,0,1,261,439.1Z"/><path id="ca-nb" class="cls-1" d="M503.2,518.1a5.7,5.7,0,0,1-2.9-3.3,3.11,3.11,0,0,0-1.5-1.5c-1.8-.5-4.6-7.8-4.6-12.1a3.52,3.52,0,0,0-1-2.9c-1.7-1.6-4-2.8-5.5-2.8h-1.4l-.2-2.8a14.48,14.48,0,0,1,0-3.1,8.69,8.69,0,0,1,2.9-.4c3.3,0,5.1-.6,6.9-2.3a11,11,0,0,1,4.6-2.1c3-.8,3.4-.9,4.9-.2s1.7.6,2.5-.3c1.8-1.9,7-3.5,6.9-2.1a4,4,0,0,1-.7,1.6c-1,1.6-.8,5.4.2,6.7a7.25,7.25,0,0,1,1.2,2.5,7.9,7.9,0,0,0,2.4,3.4c2,1.9,2.2,2,4.7,2a8.38,8.38,0,0,1,3,.3,7.59,7.59,0,0,1-1.9,2.5,24.89,24.89,0,0,0-3.3,4.6c-1.6,3.3-7.1,8.9-8.8,8.9a1.65,1.65,0,0,0-1.8,1.2C508.9,517.9,506,518.8,503.2,518.1Z"/><g id="ca-nl"><path class="cls-1" d="M552.5,469.5a4.08,4.08,0,0,1,.1-5.2c1.4-1.9,1.5-4.1.3-4.5s-1.1-1.3,0-3.2c.8-1.4.9-1.9.7-5.4a119.94,119.94,0,0,1,.4-20.6c0-.5.3-2.5.4-4.4.4-4.1,1.2-5.6,4.4-8,1.7-1.3,2.2-1.5,2.8-1,1.7,1.4,2,3,1.8,8.3a47.58,47.58,0,0,1-.4,5.6,14.34,14.34,0,0,0-.5,3l-.3,2.6,1.1-1.3a7.32,7.32,0,0,0,1.1-1.6c0-.7,1.9-.8,3.3-.3,1.6.6,1.7.7,1.5,2.9l-.1,1.4h2.2a5.61,5.61,0,0,0,2.5-.4,8.92,8.92,0,0,1,2.3-1,25,25,0,0,0,4.3-1.6,6.68,6.68,0,0,1,6-.1c1,.5,1.4,2.9.7,4-.5.7-.4,1,.3,1.7s1.2.8,3.1.5c2.8-.5,3.3-.3,3.3,1.2a5.79,5.79,0,0,1-2.4,4.1c-.5.4-.6.8-.3.8s.5.7.5,1.5a6.46,6.46,0,0,0,.3,2.2c.3.8,1.1,1,1.1.2s2.2-3.5,2.9-3.5c.3,0,.9.8,1.2,1.8.6,2,1.2,2.2,3,.8.7-.5,1.4-.8,1.6-.6a9.17,9.17,0,0,1,.4,3.3c.1,1.6.1,3.7.2,4.6.1,2.4-1.7,5-3.5,5.1-1.1.1-1.5-.1-1.9-1-.6-1.4-1-1.4-1.7,0-1.2,2.3-2.2.9-2.7-3.8-.4-3.4-.9-4.8-1.8-4.8-.2,0-.4.7-.4,1.6,0,1.3-.3,1.9-1.7,3.3-1.6,1.5-1.8,2-2.2,4.9-.6,4.3-1.7,5.4-5.1,5.5-3,.1-3.2-.6-.9-2.8a3.52,3.52,0,0,0,1.5-3.2c0-1.6-.1-1.7-1-1.2-1.7.9-3.6,1.3-4.1.9s-1.3-.1-5.7,2.6a13.16,13.16,0,0,1-3.7,1.6c-.7.1-1.9.3-2.7.5a57.34,57.34,0,0,0-6,2c-2.5,1-4.7,1.9-5,2C553.6,470.6,553,470.2,552.5,469.5Z"/><path class="cls-1" d="M497.5,437.7a13.35,13.35,0,0,0-1.8-.4,6.5,6.5,0,0,1-2.5-1c-.7-.6-1.4-.7-3.4-.5-3.2.3-3.6.1-3.9-1.6a29.13,29.13,0,0,1-.6-3.7,2.19,2.19,0,0,0-.7-1.2c-.6-.6-.8-.6-2.1.2a5.66,5.66,0,0,1-2.3.9c-1.1,0-2.7-1.5-2-2,.5-.3.6-2.9.2-4.5a3.79,3.79,0,0,0-2.1-1.7c-3.3-1.3-6.7-6.6-5.6-8.7.3-.5.7-.9.9-.9.5,0,1.2-1.7,1.5-3.2a3.32,3.32,0,0,1,1.1-1.6,6.69,6.69,0,0,0,1.4-1.9c.4-1.1.5-1.2,2.3-.8a10.42,10.42,0,0,1,3,1.2,2.73,2.73,0,0,0,4.2-.8c.8-1.3,1-1.3,3.1-1a24.35,24.35,0,0,0,3,.3c.6,0,.8.3.6,1.5a15.52,15.52,0,0,1-.3,1.6c-2,1.3-3.5,2.7-3.7,3.3a4,4,0,0,1-1.6,1.6c-1.5,1-1.6,1.6-.5,2.6a3.51,3.51,0,0,0,4.5-.6,4.94,4.94,0,0,1,4.9-1.8,3.51,3.51,0,0,0,4.6-2.1c.8-1.7.9-4,.2-4.7-.2-.2-.8,0-1.3.5a3.41,3.41,0,0,1-2.4.9c-3.3,0-3.6-.9-1.6-4.7a11.89,11.89,0,0,0,1.3-3.5,11.9,11.9,0,0,0-2.4-5.5,1.89,1.89,0,0,1-.7-1.3c0-1.2-2.2-5.1-3.6-6.3a4.6,4.6,0,0,1-1.7-3.1c-.2-1-.6-3.2-.9-4.8a37.85,37.85,0,0,1-.5-5.8c0-3.3-.9-5.1-2.5-5.5A9.13,9.13,0,0,1,481,366c-1.6-1-1.9-2.3-.8-3.9a2.1,2.1,0,0,0,.3-2c-.4-1.1-.4-1.5.1-3.8.3-1.5.1-1.6-3.9-1.4-1,0-1.6,0-1.5-.2a13.13,13.13,0,0,0-.5-3.4c-.6-2.5-1-3.2-1.6-3.3a2.63,2.63,0,0,1-1.4-.9c-.6-1-2.5-7.6-2.2-7.9.5-.5,5.6,4.1,7.4,6.6,1,1.4,2.3,2.6,2.7,2.6a3.08,3.08,0,0,1,1.7,1.3,10.15,10.15,0,0,0,2.4,2.2,6.47,6.47,0,0,1,2.4,3.1c.6,1.4,1.2,2.2,1.7,2.2s1.2.7,1.7,1.5a3.89,3.89,0,0,0,2.8,1.8c1.5.3,1.9.5,2.8,2.2a13.84,13.84,0,0,1,1.2,3.6c.2,1.6.4,1.8,2.3,2.3a8,8,0,0,1,2.8,1.4c.7.8.7,1,.1,3-.5,1.8-.5,2.3-.1,3.3a9.75,9.75,0,0,1,.8,2.2c.2,1,.9,1.3,5,2.8a35.92,35.92,0,0,0,5.6,1.6c.5,0,1.5.8,2.5,1.8l1.7,1.8,3.9.2a27.23,27.23,0,0,1,5.6.8,3.26,3.26,0,0,0,4.1-.9c.4-.4,1.2-.4,3.8.3a15.16,15.16,0,0,1,3.5,1.3c.6.9-.2,2.5-1.4,3a15,15,0,0,0-3.6,3.2c-1.3,1.5-3,3.3-3.7,4.1s-2.3,2.4-3.4,3.6c-2.1,2.2-3.1,4.9-2,5.3s5.5-4.4,5.8-6.1c.2-1,1.3-2.6,3.7-5.1,3.1-3.3,3.6-3.6,5-3.6s1.8.3,2.7,1.5,1.2,1.4,2.1,1.2c2.1-.6,4.3-.4,5.3.4a37,37,0,0,0,3.7,2.3c1.5.8,2.7,1.5,2.8,1.5s-.1.6-.4,1.2c-.8,1.6.1,4.3,2,6.2,1.4,1.4,3.3,4.6,3.3,5.6,0,.7-3,5.3-4.5,6.9l-1.3,1.4-1.8-2.3c-1-1.3-2-2.4-2.2-2.6s-1.1.1-2,.5a25.39,25.39,0,0,1-3.9,1.3,43.51,43.51,0,0,0-5.5,1.8c-1.8.7-5.4,2.1-8.1,3.1s-5.8,2.2-7,2.7a138.3,138.3,0,0,1-15.1,5.2c-1.4.3-2.2.1-4.2-.9-1.4-.7-2.7-1.1-2.9-.9a3.16,3.16,0,0,0-.5,2.1c-.1,2.2-.5,6.1-.8,6.4C499.8,437.7,497.7,437.9,497.5,437.7Z"/></g><g id="ca-ns"><path class="cls-1" d="M518.2,532.4c-2.6-.6-3.8-2-4.9-5.7-.5-1.8-.6-2.8-.3-3.6a41.5,41.5,0,0,1,5.5-8.1,28.1,28.1,0,0,0,2.3-2.7,2.83,2.83,0,0,1,1.7-1.1c1.3-.3,5.1-2.9,5.1-3.4s-2,.3-4.3,1.7c-4.1,2.4-3.5-1.5,1-6.6,2-2.2,2.4-2.5,3.8-2.5,4.2.1,8.9-.6,10.5-1.7,1-.7,1.8-1,2.3-.8a12.08,12.08,0,0,0,2.8.4c2.3.1,4.2,1.1,4.9,2.7.5,1,.3,1.3-2.3,4l-3.5,3.5c-1.6,1.7-5.5,4.6-6.4,4.8-.6.1-1.5,1.2-2.3,2.5-1.2,2-1.4,2.2-2.7,2s-1.5,0-1.9.9a5,5,0,0,0-.5,1.5,35.07,35.07,0,0,1-1.3,3.7,18,18,0,0,1-4.2,6.2c-1.6,1.6-2.9,2.9-3,2.9A19.59,19.59,0,0,0,518.2,532.4Z"/><path class="cls-1" d="M548,498.8c-.4-.3-1.6-1.6-2.8-2.9-1.6-1.7-2-2.5-1.7-2.9a23.35,23.35,0,0,0,1.8-4.6c1.5-4.6,3-7.6,3.6-7.6.8,0,1.8,2,1.8,3.5,0,2.5.4,3.5,1.7,3.8,1.5.4,3.6,2.4,3.6,3.5a8.19,8.19,0,0,1-1.4,3c-1,1.5-1.7,2.1-2.4,2.1a2.9,2.9,0,0,0-2,1.3C549.2,499.5,549,499.6,548,498.8Z"/></g><g id="ca-nt"><path class="cls-1" d="M124.1,190.1a29.19,29.19,0,0,0-3.4.3,30.92,30.92,0,0,0-4.9.8c-.4.2-.5.8-.4,2.4.3,2.5-.3,3.1-1.4,1.5a3.67,3.67,0,0,0-1-1.1c-.7,0-7.2,11.6-8.4,15.3-.8,2.2-1.7,4.4-2,5-1,1.6-.8,2,2.1,4,6.2,4.2,6.4,4.6,3.8,9.9a19,19,0,0,0-1.8,5.2c-.2,1.7-.1,1.9,1.5,3.2.9.8,1.6,1.5,1.5,1.7a11.58,11.58,0,0,0-.3,2.9c-.1,2.7-.6,3.6-2.4,4.1-1.3.3-1.9,1.4-1.9,3,0,.6-.2,1.1-.4,1.1s-.5.5-.7,1.2a1.9,1.9,0,0,0,.6,2.1,4.2,4.2,0,0,1,.9,2.9,9,9,0,0,0,1.1,4.1,5.92,5.92,0,0,1,.8,3.6,5,5,0,0,0,.7,3.2c.9,1.7.9,1.8.1,4.4a70.46,70.46,0,0,0-2.4,13.1,20.84,20.84,0,0,1-.5,4,2.18,2.18,0,0,0,.7,2c1.2,1.4,1.9,3,2.6,6.2.7,2.8,1.5,4.7,2.8,6.1l.9,1-1,1a4.06,4.06,0,0,0-1,2.7,5.83,5.83,0,0,1-.5,2.5c-.4.8-.2,1,2.3,2.1a44.38,44.38,0,0,1,4.5,2.4,3.74,3.74,0,0,0,3.2.9c1.8-.3,1.7-.8,1.7,6.4v5.5l4.9,2a526.71,526.71,0,0,0,52.4,17.8c5.2,1.5,12.4,3.6,15.9,4.6s7,2.1,7.7,2.2,4.3.8,8,1.6,7.2,1.4,7.8,1.5,3.3.6,5.8,1.1,5.1,1,5.9,1.1,4.1.8,7.5,1.5c7,1.4,9.5,1.6,9.5.8a9.32,9.32,0,0,1,.2-1.4c.1-.5.3-2.5.4-4.6s.4-4.3.5-4.9.3-2.4.4-4c.4-4.5,1.1-11.7,1.4-13.9.1-.7.3-3.1.4-5.3s.4-4.3.5-4.6a41.66,41.66,0,0,0,.4-4.4c.1-2,.5-5.4.7-7.4a23.64,23.64,0,0,0,.2-4.1,66.74,66.74,0,0,0-6.5-3.7c-7.3-3.8-14.8-7.8-20.4-10.8l-3.9-2.1-2.7-4.4-2.7-4.4-5-1.1-5-1.1-4.3-5.8c-2.4-3.2-6.1-8.3-8.3-11.3s-6.5-9-9.6-13.2-5.9-8.1-6.3-8.7c-.6-1-.6-1.3.9-5.1,5.5-14.4,5.4-14.3,2.7-17.9a9.66,9.66,0,0,1-1.5-2.4.46.46,0,0,0-.5-.4,4.65,4.65,0,0,1-1.6-.8,6.67,6.67,0,0,0-2.9-1c-1.5-.2-2,0-3.6,1.3s-2,1.4-3,1c-1.5-.6-1.4-.9.1-2.4.7-.7,1.2-1.5,1-1.7a8.14,8.14,0,0,1-.3-2.8c0-3.8-.6-3.8-4.5,0a47.44,47.44,0,0,1-3.6,3.4c-.3,0-1.7-1.4-1.7-1.9,0-.2-.1-2.9-.1-6-.1-5.6-.1-5.7-1.2-6.2-1.6-.7-2.3-.6-3.6.4a4.21,4.21,0,0,1-3.3.8c-1.4-.1-2-.3-1.7-.6a4.71,4.71,0,0,0,.6-1.7c.2-1.1,0-1.4-1.8-2.3a12.63,12.63,0,0,0-8-.6c-.6.1-3.2.4-5.8.5-3.4.2-4.7.4-5,.9s-1,.6-1.7.6c-1.2,0-1.3-.1-1.3-1.9C125.8,190.8,125.7,190.1,124.1,190.1ZM160.7,252c11.5,0,12.4.2,12.4,2.1a5.66,5.66,0,0,1-2.1,2.5c-1.4,1.2-1.9,1.9-1.6,2.2.5.5,6.6,3,9.6,3.9,2.1.6,2.1.7,1.8,2.1s-1,2.5-1.6,2.5a8.38,8.38,0,0,0-2.1,1.1l-1.7,1.1-2.6-1.2c-1.4-.7-2.9-1.4-3.4-1.6-1.1-.6-1.7.1-2.7,3s-1.1,2.9-4.5,4.1a21.58,21.58,0,0,1-3.2.9c-.8,0-.5-1.3.8-2.8,2.6-3.1,2.6-3,1.1-3a5.19,5.19,0,0,0-2.7,1.1c-2.2,1.8-3.8,2.1-5.8,1a6.38,6.38,0,0,1-2.2-2.1c-.5-1-.3-1.3,2.6-4.1a26.59,26.59,0,0,1,5.1-3.9,4.69,4.69,0,0,0,2.2-1.7c.3-1.3-1.4-2.6-3.5-2.7a20.27,20.27,0,0,1-4.6-1c-2.3-.8-2.9-1.2-3-2a1.83,1.83,0,0,1,.3-1.4C149.5,252.1,154.7,252,160.7,252Zm15,56.9a7.43,7.43,0,0,1,1.8,2,20.21,20.21,0,0,0,3,3.4,26.4,26.4,0,0,1,5.2,5.9c.9,1.4,1.4,1.7,3.9,2.4,2.7.7,3.1.7,5.5,0a6.44,6.44,0,0,0,3.6-2c1.4-1.7,3-2.5,5.8-2.6,2.4-.1,2.4-.1,2.3,1.1a5.38,5.38,0,0,1-3.8,4.3,11.05,11.05,0,0,0-3.5,2.3,18.92,18.92,0,0,1-4.8,3.1c-1.6.7-3.6,1.7-4.6,2.2a5.48,5.48,0,0,1-2.8.7,2.93,2.93,0,0,0-2.5,1,14.36,14.36,0,0,1-3.1,1.9,6.56,6.56,0,0,1-2.9.6c-8.2-.7-8.9-1-12.8-4.6-3.5-3.3-3.5-4.1.2-4.1a8,8,0,0,1,3.3.5c1,.5,2.2,0,4.1-1.7a3.3,3.3,0,0,1,3-1c2,.1,3.1-.5,3.1-1.9s-1.8-6.5-3.4-9.8C175.2,310.1,174.9,308.9,175.7,308.9Z"/><path class="cls-1" d="M222.9,224c-3.2-.9-8.1-2.4-11.1-3.3s-6.9-2-8.9-2.6c-3.3-.9-3.4-1-2-1.3a57.27,57.27,0,0,1,6.4-.1c3.9.1,5.2.4,6.9,1.2,2,1,7.4,2.6,7.8,2.3a12.91,12.91,0,0,0-2.5-2.7c-2.8-2.6-4.9-3.8-7-3.8-1.6,0-8.5-1.8-11.4-2.9-2.1-.8-2.2-1-3-3.5-.4-1.4-.8-2.9-.8-3.1,0-.5,2.1-1.2,8-2.8l2-.6-1.5-.4c-.9-.2-2.1-.4-2.8-.5-1.4-.1-2.8-2.1-2.3-3.3a1,1,0,0,0-.3-1A8.19,8.19,0,0,1,199,194c-1.1-1.6-.7-3.3,1.2-5.3s2.4-3,2.4-4.2c0-2.3,6.6-5.8,13.1-7.1,2.4-.5,5.3-1,6.4-1.2,2-.3,2.1-.2,2.5,1.1.6,1.6.1,4.1-1.3,6.7a4.7,4.7,0,0,0-.7,2.1,6.25,6.25,0,0,0,2.3-1.4l2-1.6,2.8,1.6a41.9,41.9,0,0,1,3.8,2.5l1.1.9-.9,2.1-.9,2.1,1.8-.4a9.62,9.62,0,0,0,2.1-.7c.2-.2,0-1.2-.4-2.2a5.34,5.34,0,0,1-.5-2c1.9-1.2,2.6-1.5,2.7-1.3.3.4-9.4,39.1-9.8,39.5C228.7,225.5,226,224.9,222.9,224Z"/><path class="cls-1" d="M179.1,195.2a41.44,41.44,0,0,1-.6-4.4c-.4-3.5-.7-4.2-2.9-7.9a25,25,0,0,1-2.4-4.6c0-.7,1.3-2.2,2.6-3a22.42,22.42,0,0,0,3.5-4.6,43.42,43.42,0,0,1,3.3-4.8c.5-.5,2.3-2.8,4.1-5.2,3.1-4.1,3.3-4.4,3.3-6.9v-3.1c-.1-.8,1.3-2.3,1.9-2.1a13,13,0,0,0,2.1.4,20.41,20.41,0,0,1,4,1.1c1.3.5,3.2,1.1,4.2,1.4,1.5.4,1.9.7,2.3,1.9a15.21,15.21,0,0,0,2.9,3.8c2.4,2.4,2.4,2.4,4.9,2.3,3.6-.1,4.1.4,6.2,6.8,2.6,8,2.3,8.9-4.4,10.5-3.1.8-6.1,2.1-6.9,3a7.27,7.27,0,0,1-1.6.8,9.74,9.74,0,0,0-2.4,1.5c-.6.5-2.4,2-4.1,3.2a12.35,12.35,0,0,0-4.5,5.2c-.9,1.6-2,3.2-2.6,3.5s-1,.5-1,.4-.5,0-3.8.7c-.6.1-2.6.4-4.5.5C180.1,195.7,179.3,195.6,179.1,195.2Z"/><path class="cls-1" d="M230.4,162.1a9.5,9.5,0,0,1-2.1-3c0-1.1,1.8-2.1,4.5-2.7,4.5-.9,5.8-2.4,2.1-2.4-1.5,0-2.1-.2-2.7-1.1-.8-1.1-.9-1.1-1.7-.3a4.91,4.91,0,0,1-4.8.6c-1.3-.7-5.4-5.6-5.7-6.8a2.46,2.46,0,0,1,1.9-2.7c.3,0,.6-.1.6-.3a4.59,4.59,0,0,1,1.5-3.2,4.27,4.27,0,0,0,1.1-2.1c0-1.2,2.5-4.2,3.5-4.2a2.43,2.43,0,0,0,1.5-1.1c.6-.9,1.1-1.1,2.9-1.1,2.8,0,4.5,1.2,4.5,3.4,0,1.3.3,1.7,1.7,2.6,2.3,1.5,3.3,3.7,3.4,7.2.1,3.1.7,4,2.9,4s2.2.3.8,6.3c-1,4.1-1.5,5.6-2,5.6a11,11,0,0,0-3.2,1.8c-2.4,1.6-2.7,1.8-5.6,1.8h-3.1Z"/><path class="cls-1" d="M216.8,142.3a2.58,2.58,0,0,1-1.2-1.8c-.6-2.2.3-3.4,3.7-4.8,2.9-1.2,3.9-1.3,4.6-.5.8,1,.4,2.2-1.1,3.4a25.13,25.13,0,0,0-3.1,2.6,10.7,10.7,0,0,1-1.8,1.4A9.68,9.68,0,0,1,216.8,142.3Z"/><path class="cls-1" d="M212.7,134.9a2.88,2.88,0,0,1-.7-1.8c0-1-.1-1.1-2.4-1.1-3.9,0-5.2-1.9-3.2-4.9a4.4,4.4,0,0,1,3-2,27.51,27.51,0,0,0,4.1-1.7,5.84,5.84,0,0,1,2.5-1c.2.1,1.8-1.1,3.6-2.8,4.1-3.8,4.7-4.1,8.1-4.1,1.5,0,3.3,0,3.9-.1,1.3-.2,3.3.7,3.7,1.7a4.77,4.77,0,0,1-2.2,5.9c-.5.3-.8,1.2-1,2.7-.2,2.1-.3,2.3-2.1,3.4a7.36,7.36,0,0,0-2.4,2c-.6,1.1-2.1,1.6-2.9.9-1-.8-.8-3.8.3-4.7a2.48,2.48,0,0,0,.9-1.1c0-.5-1.6.9-6,5.3C215.5,135.7,214.2,136.4,212.7,134.9Z"/><path class="cls-1" d="M247.1,122.8c-1.4-.6-1.9-1.2-2.7-3.1a19.84,19.84,0,0,1-1-2.9c0-.3-.4-.8-.9-1.2-2.4-1.4-3.4-5.6-1.4-5.6a2.89,2.89,0,0,1,2.3,2.2c0,.4.4.5,1.4.3,1.9-.4,9.5-.8,10.3-.5.4.2.5.7.1,2.1-.3,1.1-.5,2.3-.6,2.8-.7,3.4-1.3,5.1-2,5.8C251.5,123.6,249.2,123.7,247.1,122.8Z"/><path class="cls-1" d="M254.9,110c0-.2-.6-.6-1.3-.9a7.71,7.71,0,0,1-2.1-1.4,1.86,1.86,0,0,0-2-.6c-.7.1-1.3.1-1.5-.2-.7-1.1,2.6-4,3.8-3.3a1.32,1.32,0,0,0,1.1-.3c.6-.5,4-.4,4.4.1s-1.4,7-1.9,7C255.2,110.4,254.9,110.2,254.9,110Z"/></g><g id="ca-nu"><path class="cls-1" d="M256.9,249.6a21.13,21.13,0,0,1-7.8-4.5,13.51,13.51,0,0,0-3.1-1.9c-1-.4-1.8-1.1-1.8-1.4s-.1-.9-.1-1.2c-.1-1-1.9-.9-2.3.1-.4,1.3-2.6,2.3-5.7,2.6a7.54,7.54,0,0,0-3.2.8c-1.3,1.3-3.7,1.6-10,1.4-9.4-.4-12.2-.9-12.2-2.1,0-.3-.1-1.4-.2-2.3s-.3-2.9-.4-4.4c-.2-3-1-4.1-3.4-4.5-2.6-.5-8-4.2-8-5.6a1.7,1.7,0,0,0-.1-.7c0-.2-.4-1.9-.9-3.9s-.8-3.7-.8-3.8c0-.3.1-.3,19.1,5.4,7.5,2.2,13.7,4,13.8,3.9s2.4-9,5.1-19.8,5-20,5.1-20.3,1,1.3,2,3.8c1.7,4.3,1.8,4.5,1.6,8.7-.2,5.1.3,6.4,1.8,4.9.8-.8.9-1.4.8-4.1-.1-1.8-.2-5.7-.3-8.8l-.2-5.5,1.4-1.5c1.3-1.4,1.5-1.4,3.1-1.1a5.6,5.6,0,0,1,2.8,1.6c1,1.2,1,1.2.4.1a11.18,11.18,0,0,1-1.1-2.5c-.5-1.9.9-3.5,3.5-4,2.4-.4,4.1.4,5.9,2.8,1.7,2.2,1.2,4-1.8,7.8l-2.4,3,.1,5.5c.1,6.2.5,9.8,1.4,12.4.5,1.6.5,1.9-.5,4.1a6.36,6.36,0,0,0-.8,4c.4,2.4,3.2,6.1,7.2,9.5,4.7,3.9,6.3,6.9,5.4,9.7-.5,1.3-.5,1.3-3,1.1a7.27,7.27,0,0,1-2.9-.7,1.78,1.78,0,0,0-1-.4c-1.2,0-1,1.4.5,3.8,2.4,3.8,1.9,6.2-1.6,7.9A8.21,8.21,0,0,1,256.9,249.6Z"/><path class="cls-1" d="M380.1,450c-2.3-.9-2.7-1.3-2.7-2.1,0-1.2.3-1.3,3.3-1.7,2-.2,2.3-.1,3.4,1.2,1.6,1.8,1.5,3.6-.2,3.7A19.69,19.69,0,0,1,380.1,450Z"/><path class="cls-1" d="M287.6,366.1a28.5,28.5,0,0,0-3.7-.5c-1.9-.2-3.6-.4-3.8-.4s-1.8-.3-3.8-.5-3.6-.4-3.8-.4-1.5-.3-3.1-.4-3.8-.4-4.9-.5c-4.1-.5-5.7-.6-10.6-1.1-5.1-.5-5.9-.7-5.6-1.2.1-.2.3-2.2.5-4.5s.4-4.5.4-4.9.3-2.4.4-4.4.4-4.3.5-4.9.3-2.5.4-4.2c.3-3.7.6-7.2.9-9.9.1-1.1.3-3,.4-4.2.7-8,.9-9.8,1.4-14.1.1-1.5.3-3.1.4-3.7.1-.8-.5-1.3-3.5-2.9-4.5-2.4-12.7-6.7-19.2-10.2-2.8-1.5-5.9-3.1-6.9-3.6-1.7-.9-2.6-2.1-6-7.6l-1.6-2.6-5.1-1.1-5.1-1.1L204,274c-1.4-1.8-6.5-8.9-11.5-15.7s-10.1-14-11.6-15.9a22.45,22.45,0,0,1-2.6-4c0-.4,5.7-16.2,6-16.5.5-.6,4.8,3.2,6.6,5.9a19.29,19.29,0,0,0,6.5,5.5,2,2,0,0,0,2.1,0c.8-.4,1.2-.3,2.9,1.1a18.32,18.32,0,0,1,2.8,2.8,19.73,19.73,0,0,1,2.7,6.2c0,1.1-1.1,1.8-3.6,2.1s-4.4,1.3-4.4,2.1a4.89,4.89,0,0,0,1,1.9c.8,1.2,1.6,1.6,5.4,2.8,7,2.1,8.3,2.3,11.5,1.8a22.69,22.69,0,0,0,4-1c1.1-.5,1.2-.4,1.9.6.4.6,1.9,2.6,3.4,4.6,3.4,4.5,4.6,6.7,4.4,8.5-.1,1-.1,1.2.3.7s.4-2.4.2-5.2l-.3-4.5,4.7-2.3c2.7-1.3,4.8-2.6,4.9-3.1.2-.7.1-.7-1.6,0a39.28,39.28,0,0,1-4.1,1.4c-2.2.6-2.4.5-3.5-.3-3-2.2-.5-6.4,4-6.7a18.44,18.44,0,0,0,4-.9,8.49,8.49,0,0,1,3.5-.6c1.5.2,2.7,1.8,2.8,3.8a7.89,7.89,0,0,0,.8,2.9c1.1,2.1,4.5,5.3,5.7,5.4.6,0,1.2.1,1.4.1s.7.1.9.2,1.3,1.3,2.3,2.9l1.8,2.8,2.7.3c1.5.1,4,.3,5.6.3a25.66,25.66,0,0,1,6,.9l3.1.9s0-.7.1-1.6a10,10,0,0,1,.8-3.3,9.29,9.29,0,0,0,.7-2.9c0-1.1.1-1.2,2-.9a29,29,0,0,1,8.3,2.8,21.23,21.23,0,0,1,2.5,1.3c.1.1-1.5,6.1-2.4,8.9-.1.3.3.8.9,1a3.43,3.43,0,0,1,1.6,1.9l.6,1.5.3-1.3a3.39,3.39,0,0,0-.4-2.6,11.21,11.21,0,0,1-.7-4.3c0-3.2.4-4,2-3.5s4.7-1.2,6.1-3.1a5.76,5.76,0,0,0,1.4-4.3c0-1.9-.2-2.7-.9-3.3-1-.9-1.2-4.1-.3-5s-2-3.2-4.5-4c-1.5-.5-2.2-1.1-3.4-3a7.36,7.36,0,0,1-1.5-5,8.61,8.61,0,0,1,.5-3.4c.4-.7.2-1.5-.7-3.6l-1.2-2.7.9-2.5a5,5,0,0,1,2.7-3.5c1.7-.9,1.8-1.1,1.4-2.1s-.3-1.3,1-2.9c3.5-4.3,3.1-4,4.7-3.7a2.63,2.63,0,0,1,2,1.5,9.8,9.8,0,0,0,2.2,2.6c3,2.6,3.4,3.6,3.6,7.9.1,3.8.2,4,2.4,7.6,2.8,4.6,3.1,7.1.8,6.2-.9-.3-1-.3-.8,1a9.09,9.09,0,0,1-.4,3.1c-.5,1.7-.5,1.8.4,2.6s1.3.7,2.6.3c1.7-.5,3.2-.2,6.6,1.2,1.4.6,1.5.8,1,1.3a6.88,6.88,0,0,1-2.6.9c-3.1.4-3.4,1.2-1.3,4.1,1.6,2.4,2,3.6,2.1,7.1.1,1.9.8.1,1.1-2.9.5-4.6,1.1-6,2.9-6.7l1.5-.7,3,3.3c2.1,2.3,3.1,3.8,3.4,5.1.7,2.8.6,4.4-.4,5.4a3.33,3.33,0,0,0-.9,2.1c0,1.3.8,4.1,1.3,4.5a22.54,22.54,0,0,1,1.7,2.5,7.62,7.62,0,0,0,1.8,2.3c.7,0,2.3-1.5,2.7-2.4a17.48,17.48,0,0,0,.6-3.6,11.8,11.8,0,0,1,.9-3.9c.3-.7,1-2.7,1.5-4.4a24.39,24.39,0,0,1,2.2-5.1c1.6-2.3,1.7-3.3.4-4.7-1.1-1.1-2.3-6.4-1.9-7.9.6-1.9,1.5-2.5,4-2.5a9.26,9.26,0,0,1,4.9,1.3,12.68,12.68,0,0,0,3.4,1.3,4.89,4.89,0,0,1,2.3,1.5,20.44,20.44,0,0,0,3.3,2.5c1.9,1,3.5,2.5,3.5,3.3a1.68,1.68,0,0,1-.7.9c-.7.5-.7.6.2,1.8a7.44,7.44,0,0,1,1.2,2.9c.3,1.5.2,1.6-1,2.1a4.35,4.35,0,0,0-1.8,1.4,1.84,1.84,0,0,1-1.4.9c-1.2,0-1.1.8.2,2.4a7.76,7.76,0,0,1,1.4,2.7,4.21,4.21,0,0,0,1.7,2.5c3.1,2.1,3.1,6.6,0,11.9-3.7,6.3-4,6.6-5.9,6.4a8.24,8.24,0,0,1-2.9-.9l-1.2-.8.7,1.6c.8,1.8.3,2.6-1.3,2.1s-2.3-.5-3,.1-.9.5-2.2,0a7.82,7.82,0,0,1-2.2-1.6c-.6-.8-1-.9-2.4-.6a13.53,13.53,0,0,0-2.5.7c-.7.4-.6.6.8,1.9s1.6,1.6,1.3,3.4c-.2,1.4-1,2.6-2.7,4.6a14,14,0,0,0-2.6,3.9c-.1.6-.5,1.1-.8,1.1s.1.5.8,1c1.1.9,1.2,1.3,1.1,2.8a7.62,7.62,0,0,1-.9,2.9c-.4.6-1.1,1.7-1.6,2.4s-1.8,2.9-2.9,4.7c-2.2,3.9-3,4.3-7.3,4.3-3.2,0-4,.6-4.3,3.1-.1,1.5-.2,1.5-2.1,1.5a14.49,14.49,0,0,1-3.2-.3c-1.8-.4-1.9.3-.2,1.5.8.5,1.5,1.1,1.6,1.1.5.4.5,3.9.1,5.2-.6,1.8-2.2,2.6-5.3,2.8-3.5.1-3.3.1-2.6,1.2s.6,1.1-1,2.5a36.37,36.37,0,0,0-6,8,12.07,12.07,0,0,1-2,2.9,7,7,0,0,0-2.2,4,30.13,30.13,0,0,1-2.3,5.6c-1.9,4.1-2.3,5.2-2.2,7.2v2.4h-1.9C288.6,366.3,287.7,366.3,287.6,366.1Z"/><path class="cls-1" d="M376.9,341.7c-2.4-1.5-2.3-5.8.2-8.4,1-1.1,2.1-1,3.5.2s.7,6.4-1.1,8.1C378.4,342.6,378.4,342.6,376.9,341.7Z"/><path class="cls-1" d="M354,336.8c-1-1.9.4-6.3,2.6-7.7,1.7-1.2,2.2-1.3,5.6-1.2,2.1,0,2.3.2,2.8,1.4s.4,1.5-.9,3.5a9.58,9.58,0,0,1-7.4,4.8C354.8,337.7,354.4,337.6,354,336.8Z"/><path class="cls-1" d="M344.1,327.1c-.6-.1-.8-.6-.8-2.3a4.85,4.85,0,0,0-.5-2.6,7.17,7.17,0,0,0-3-.6c-5.2-.1-6-1.2-3.1-4.4,1.7-1.8,2-2.6,1.9-5.1-.3-8.7,0-11.5,1.7-18.2.5-2.1.7-2.3,2.1-2.6s1.7-.1,2.5,1a18.07,18.07,0,0,1,1.8,3.1c.7,1.6,1,1.9,2.1,1.9.9,0,2.6.9,5.1,2.6,2.1,1.4,5,3.5,6.5,4.5s2.8,2.2,2.8,2.5a6.68,6.68,0,0,0,1.1,2.4,7.77,7.77,0,0,1,1.1,2.5c0,.7.3.8,2.3.5s2.5-.1,4,1,1.6,1.5,1.5,2.8c-.2,2.3-.5,2.8-2.3,3.8-1.6,1-1.6,1-3.6.1a8.47,8.47,0,0,0-3.6-.7,2.44,2.44,0,0,1-2.6-.8,2.79,2.79,0,0,1-.8-1.8c.2-1.2-3.8-3.2-4.7-2.4a2.18,2.18,0,0,0-.7,1.6,6.76,6.76,0,0,1-2.1,4.6c-.7.7-1.6,1.8-2.2,2.5-1.4,1.8-3.1,3.7-3.5,3.7A5.76,5.76,0,0,1,344.1,327.1Z"/><path class="cls-1" d="M286,257.4a15.48,15.48,0,0,1-5.3-3.5,4.72,4.72,0,0,0-1.7-1.2c-.9,0-2.9-1.9-2.9-2.7,0-1.1,7-10.6,7.8-10.6,1.1,0,5.2,4.3,6.4,6.7,1.8,3.7,3,7.1,3,8.4,0,.9-.4,1.5-1.7,2.3C289.9,258.1,288.5,258.2,286,257.4Z"/><path class="cls-1" d="M450.2,324.1a53.22,53.22,0,0,0-6.2-.4c-4.8-.2-6.3-.4-7-1-.5-.4-1.5-1.3-2.3-1.9a4.07,4.07,0,0,0-3.6-1.1c-2.4.1-3.9-.3-8.5-2.4-2.8-1.3-3.2-1.6-3.7-3.2s-.5-1.8.2-2.1c.8-.5,1-1.3.3-1.3a11.33,11.33,0,0,1-2.6-1.5,16.68,16.68,0,0,0-3.5-1.8,3.1,3.1,0,0,1-2-1.5,7.08,7.08,0,0,0-5.7-3.5c-1.9-.2-2.3-.1-3.2.8a3.66,3.66,0,0,1-2.9,1c-1.6,0-2.2.3-3.8,1.8l-1.9,1.8H390c-6.1,0-7.5-1.1-8-6.5-.2-1.9-.1-2.2,1.1-3.4a3.73,3.73,0,0,0,1.4-3,2.31,2.31,0,0,1,.8-2.1,35.63,35.63,0,0,1,6-.5c4.8-.1,5.4-.2,6.6-1.1,2-1.5,4-2.5,5.2-2.5.8,0,.9-.2.7-1-.4-1.2-.6-2.2-.7-2.6a11.48,11.48,0,0,0-1.9-1.5c-1.7-1.1-1.8-1.3-1.6-2.9a8.8,8.8,0,0,1,.9-3c.4-.7,1.7-3.3,2.9-5.7l2.3-4.5-.9-3.1a20.54,20.54,0,0,0-5.6-8.9,18.57,18.57,0,0,1-1.8-2.3,10,10,0,0,0-3.2-2.9c-1.7-1-2.3-1.5-2.5-2.8s-.5-1.5-1.7-1.4a5.22,5.22,0,0,0-2,.7,20.16,20.16,0,0,1-2.5,1.5c-1.6.8-1.9.8-2.4.3-.8-.9-.1-2.5,1.5-3.9,1.4-1.2,1.4-1.2.5-1.9-1.1-.9-1.7-.9-3.4,0s-2.6.6-2.6-1.1a1.66,1.66,0,0,1,.9-1.7c.8-.4.8-.5-1.2-2.5-3.6-3.5-5.6-5.1-6.2-4.9-.3.1-.5.9-.5,1.7v1.5l-4.5.1c-2.5.1-5.9.1-7.5.1-2.5-.1-2.9.1-2.9.7s-.5.7-3.7.7c-2.1,0-5.9-.2-8.4-.4a22.8,22.8,0,0,0-6.2.1c-2,.6-3.4-.4-4.2-2.6-.4-1.3-.7-1.4-1.8-1.4-5.2.4-5.5.4-6.8-.6-2.9-2.1-5.3-5.6-5.3-7.7,0-.7.4-.9,2-1.1,1.1-.1,2.9-.3,3.9-.3,1.5,0,1.7-.1,1.2-.6a9.46,9.46,0,0,0-5.5-1.6c-1.4,0-2-.2-2.2-.8a21.94,21.94,0,0,1-1.3-7.5c.5-9.1.7-10.1,2.6-15.7,2.8-8,4.8-11.8,7.3-13.2,4-2.4,10.4-1.7,11.1,1.1.3,1.1.1,1.5-1.2,2.9a8.06,8.06,0,0,0-1.8,3.4,9.5,9.5,0,0,1-1,2.7c-.8,1.2-1.9,5.8-1.5,6.4a24.13,24.13,0,0,1,.4,3.7c.1,3.6.3,4.1,1.5,4.1.5,0,.9-.4,1.1-1.2a5.36,5.36,0,0,1,1-2c.6-.6.6-1,.2-1.5a8.16,8.16,0,0,1-1.6-5.1c0-1.6.2-2.3.9-2.9a5.27,5.27,0,0,0,1.2-1.5c.2-.4.5-.8.8-.8s.5-.4.5-.9c0-1.6,3.4-6.4,5.2-7.4,2-1.1,6.2-1.9,7.5-1.4.8.3,1.5,1.4,4.2,6.4,1.7,3.1,2.9,6.6,2.7,7.5-.3,1.3,1.3,3.4,2.6,3.4a10.54,10.54,0,0,0,2.6-.5c1.4-.4,1.6-.6,1.4-1.3-.5-1.5,2.2-3.7,5.4-4.4,2.5-.5,2.8-.5,4.2.4a6.22,6.22,0,0,0,2.6.9c1.4,0,3.3,1.6,3.8,3.1s1.5,2.6,2.5,2.6c.6,0,.9.5,1.1,1.8.2,1,.5,1.8.7,1.8a17.6,17.6,0,0,1,2.9,2.4c2,2,2.5,2.3,2.7,1.6a14.6,14.6,0,0,1,.9-2.2c.7-1.6,1.1-1.6,5-.3,1.6.6,2,1,2.8,2.9a5.72,5.72,0,0,0,2.2,2.9,4.59,4.59,0,0,1,1.7,1.7c.9,1.7,2,2.1,3.3,1.1s2.5-.9,5.1,1c1.6,1.2,1.9,1.5,1.6,2.6-.8,3.1-.8,3.6-.2,3.5a3.64,3.64,0,0,0,1.4-1.4c1.1-1.8,2.5-1.6,4.6.7,2,2.1,3,3.7,3,5,.1,2.5.3,2.7,1.7,3.4a5.56,5.56,0,0,1,2.2,2.1l.7,1.3-2,1.2c-1.6,1-2.2,1.1-3,.7-1.4-.6-1.7-.2-.8,1.1.7,1,.6,2.9-.1,4.6-.4,1,1.1,2.3,3.3,3a13.51,13.51,0,0,1,3.4,1.7,7.83,7.83,0,0,0,3.3,1.2,9.23,9.23,0,0,1,2.6.5,9.77,9.77,0,0,0,3.7.3l2.6-.2,2.4,2.5c2.1,2.2,2.6,2.5,4.2,2.5,1,0,2,.1,2.3.1s.7.7.8,1.5a6,6,0,0,0,.6,1.8c.2.2,1.7-.2,3.4-.8l3.1-1.1,1.7,1c1.5.9,1.7,1.1,1.8,3.3.2,2.9-.1,3.9-1.2,5.2-.8,1-.9,1.1-.2,1.9s.6,1,.3,1.9a4.5,4.5,0,0,0-.2,2.6c.3,2-1.2,4.3-2.8,4.3-1,0-1.1.1-.8,1,.5,1.5,1.9,4.2,2.4,4.5.9.6.4,1.5-1.4,2.4s-1.9.9-3.4.1a17.82,17.82,0,0,0-3.7-1.4c-1.9-.5-2.4-.9-3.7-2.8-1.7-2.5-4.8-5.5-5.7-5.5a2.27,2.27,0,0,1-1.2-.6c-1.8-1.8-4.8-2.8-4.8-1.7,0,.2-.5.6-1.2.9l-1.2.5,1.2,1.3c1.4,1.5,1.4,3.5,0,4.2-.7.3-.8.7-.6,1.4.2.5.4.7.4.5.1-.5,3.2,1,3.8,1.8.3.4,1.4,1.7,2.3,2.8,1.7,1.9,2.3,2.2,7,3.4,1.4.4,1.9.8,2.1,1.6a2.76,2.76,0,0,0,1.2,1.6,8.85,8.85,0,0,1,2,2.2,35.88,35.88,0,0,0,4.2,4.9l3.1,3.2-.1,6.1a29.68,29.68,0,0,1-.4,6.4c-.5.3-8.5-2.3-12.8-4.1a22.08,22.08,0,0,1-5.1-2.8c-1.3-1.1-2.5-1.3-5.1-1-.8.1-.3.9.9,1.3a4.81,4.81,0,0,1,2,2c.7,1.2,1.4,1.7,4.2,2.8a51.7,51.7,0,0,1,8.1,4.4l4.8,3.1-.1,2.6-.1,2.6-2.5.1C451.5,324.2,450.3,324.1,450.2,324.1Z"/><path class="cls-1" d="M385.9,322.4c-1.6-1.1-2.2-2.3-1.4-3.2s1.6-.8,3.1.3,1.7,2.5.8,3.4C387.6,323.6,387.6,323.6,385.9,322.4Z"/><path class="cls-1" d="M390.7,317.4c-.8-.1-1-.4-.9-1.4s.4-1.2,1.3-1.3c1.5-.2,3.2,1.2,2.8,2.2C393.6,317.7,392.8,317.8,390.7,317.4Z"/><path class="cls-1" d="M383.6,268.3c-3-3-2-12.2,1.5-14.5,1.6-1,4-.5,5.6,1.3,1.2,1.4,1.3,1.5,1.3,6.3,0,5.5-.2,5.9-3.6,7.4C386.1,269.8,385,269.7,383.6,268.3Z"/><path class="cls-1" d="M395.7,260.1c-1.3-.6-2.4-2.3-2-3,.5-.9,4-.6,4.7.3.9,1.1.7,1.8-.7,2.5A1.85,1.85,0,0,1,395.7,260.1Z"/><path class="cls-1" d="M369.3,248.4c-.5-.5-.4-.7.8-2a7,7,0,0,0,1.4-3.5c.3-2.2,1.3-4.4,2-4.4s.9,1.4.4,2.4a4.51,4.51,0,0,0-.4,2.4C373.5,245.7,370.4,249.6,369.3,248.4Z"/><path class="cls-1" d="M278.9,216.9a6.51,6.51,0,0,1-2.1-2.5c-.4-4.8-1.1-6-5.1-8.7a11.22,11.22,0,0,1-2.8-3.6c-1.4-2.6-1.4-2.7-.8-4.6a5.83,5.83,0,0,1,1.7-2.8c1.1-.8,1.1-.8,3.4,1s2.4,1.8,3.1,1a6.48,6.48,0,0,0,1.2-2.5c.4-1.4.3-1.8-.4-2.6-2.1-2.3-2.6-3.7-2.2-5.9.5-2.4,1.8-4.5,2.9-4.5a11.78,11.78,0,0,1,3,1.3c2,1.1,2.4,1.2,2.9.7,1.1-1.3,5.9-2.3,7-1.5a5.22,5.22,0,0,1,.5,2.8c0,1.8-.2,2.4-.8,2.6s-.7.3,0,.9c1.1.8,1,1.3-1.2,3.8a9.86,9.86,0,0,0-2,2.7c0,.3.6.7,1.3.9,1,.4,1.3.7,1.3,1.6a6.54,6.54,0,0,0,.6,2.3,12.11,12.11,0,0,1,1.8,6.5c.2,2.8.1,3.4-.9,4.9-1.1,1.8-3.6,3.6-4.9,3.6-.4,0-.6.2-.5.4.4.7-1.8,2.9-3.5,3.4C281.1,218.6,280.9,218.5,278.9,216.9Z"/><path class="cls-1" d="M297.2,208.5c-1-.8-1.2-1.3-1.2-2.9a8.72,8.72,0,0,0-.5-3.1c-1-2.7-.2-12.9,1.3-16.4a27,27,0,0,0,1.2-3.8c.4-2.4,1.7-3.1,6.6-3.8a5.23,5.23,0,0,1,3.6.7,8.36,8.36,0,0,0,2.7.9,11.31,11.31,0,0,1,5.6,2.5c1.5,1.1,1.5,1.1.8,2.5a9.52,9.52,0,0,1-1.4,2.1,7.47,7.47,0,0,0-.9,2,12.09,12.09,0,0,1-1.7,3.5,16.84,16.84,0,0,0-2,4.8,7,7,0,0,1-1,2.7,23.69,23.69,0,0,1-3.3.4,9,9,0,0,0-3.2.6c-.3.3-.7,3.4-.8,6.2,0,.7-2.3,1.9-3.7,1.9A3.27,3.27,0,0,1,297.2,208.5Z"/><path class="cls-1" d="M361.1,193.8c-2-3.3-5-9.7-4.8-10.3.4-1,9.3-.9,11.2.1a21.61,21.61,0,0,1,7.2,7.5c.9,1.6-.4,2.4-3.7,2.3a7.34,7.34,0,0,0-4.6.9C363.7,195.7,362.2,195.6,361.1,193.8Z"/><path class="cls-1" d="M317,172.9a7.75,7.75,0,0,0-3.1-1.1c-2.3,0-2.9-.8-3.1-3.9a16.26,16.26,0,0,0-.6-3.6c-.7-1.3-1-5.4-.4-6.4a10.93,10.93,0,0,0,.6-3.4c.1-2.1-.1-2.7-1.1-4a7.94,7.94,0,0,1-1.4-2.4c-.1-.8-.6-.9-3.5-1.2a16.71,16.71,0,0,1-4-.6c-1-.4-5.1-5.6-5.4-6.8a5.52,5.52,0,0,1,.2-2.5c.5-1.8,1.6-2.2,5.1-1.8s5.8,1.8,6.5,4.1c.4,1.2,1.5,1.5,4.4,1.3,3.5-.3,5.1.6,5.1,2.9a1.62,1.62,0,0,0,1.1,1.6c1.7.8,2.2,2.2,1.4,4.4-.6,1.8-.6,1.8.9,3.3a5.08,5.08,0,0,1,1.5,2.4c0,.8.3,1,1.9,1.3,1,.1,3.6.6,5.6,1l3.8.7L335,157a30.86,30.86,0,0,1,2.9-1.2,8.43,8.43,0,0,0,2.3-1.6c1.8-1.5,1.9-1.6,5.5-1.5,4.1.1,5.4.5,8.4,2.4,3.7,2.4,5.6,5.7,4.2,7.1-.3.3-.3.9.1,1.8.5,1.2.4,1.5-.2,2.2a4.83,4.83,0,0,0-.9,2.3c-.1,1.4-.4,1.7-2.3,2.6-3.7,1.8-9,1.8-9.8,0-.4-.8-.5-.9-1.1-.3a15.38,15.38,0,0,1-2.6,1.6c-1.7.9-2.9,1-8.6,1.2-7.1.2-8.7-.1-9.3-1.9-.4-1.2-.7-1.1-2.4.7a4.66,4.66,0,0,1-2,1.5A5.79,5.79,0,0,1,317,172.9Z"/><path class="cls-1" d="M302,171.5c-.9-.2-5.8-3.6-7-4.8s-.8-2.5,1-6c1.5-2.8,2-3.3,3.4-3.8a6,6,0,0,1,6,1.4c1.2,1,1.2,1.3,1.5,6.2.3,5.1.3,5.1-.9,6.3C305,171.8,303.9,172,302,171.5Z"/><path class="cls-1" d="M284.7,163.4c-2-.9-4.1-3.1-4.1-4.3a4,4,0,0,1,1.4-2l1.4-1.2-4.1.1c-4.6.1-5.4-.3-5.4-3,0-2.1-.6-2.9-3.1-4.5a15.13,15.13,0,0,1-2.2-1.6,5.41,5.41,0,0,1,.8-1.5c.7-1.2.9-1.2,2.8-1,2.4.3,3.6.9,3.6,1.6a8.59,8.59,0,0,0,2,2.6c1.5,1.5,2.3,2.1,3.3,2.1,1.2,0,1.3-.2,1.5-1.6.2-1.7-.4-2.6-2.9-4.1-.7-.4-1.2-1-1.2-1.3a6.9,6.9,0,0,1,2.2-2.3c1.6-1.3,2.5-1.7,3.4-1.6.7.1,2.3.3,3.6.4a9.31,9.31,0,0,1,3.5.9l1.1.7L292,150c-.1,4.9-.4,8.4-.7,8.8a2.68,2.68,0,0,0-.2,2.1c.5,2.4-.3,3.4-2.6,3.4A16.2,16.2,0,0,1,284.7,163.4Z"/><path class="cls-1" d="M252.5,160.6c-1.8-1.1-3-1.1-4.2-.1-.4.4-1,.5-1.2.3-.7-.4,1.7-10.5,2.5-10.4.3.1.5-.7.5-2.3,0-3,2.1-13.4,2.9-14.8,1.3-2.1,4.8-.4,3.6,1.8a1.91,1.91,0,0,0,0,1.8,7.82,7.82,0,0,1-.3,5,5.87,5.87,0,0,0-.3,2.5c0,1.5.2,1.8,1.1,1.9a9.13,9.13,0,0,0,3-.4c1.8-.5,2-.5,2.8.3,1.6,1.6,2,7.8.6,9.6-.4.5-1.1,1.5-1.6,2.3A6.57,6.57,0,0,1,252.5,160.6Z"/><path class="cls-1" d="M264.6,160.5a2.44,2.44,0,0,1,.3-2.3c.4-.7.8-1.2.8-1.3a4.1,4.1,0,0,1,1.4-.3c1.3-.2,1.4-.1,2.3,1.8.6,1.3.8,2.2.5,2.5a7,7,0,0,1-2.7.6C265.2,161.6,265,161.5,264.6,160.5Z"/><path class="cls-1" d="M350.6,146.6c-.1-.5-.2-1.1-.1-1.2.3-.6-.3-1.2-1.7-2s-1.4-.6-2.3.4c-.8.8-1.3,1-2,.8a12.91,12.91,0,0,0-2.1-.5,5.15,5.15,0,0,1-2.1-1.4c-.8-1-1.1-1.1-1.6-.6a2.41,2.41,0,0,0-.7,1.7c0,1.5-1.4,2.4-3.2,2a63.65,63.65,0,0,0-6.8-.4c-4.8-.1-5.6-.2-6.7-1s-1.3-1.3-1.4-3.4a7.07,7.07,0,0,1,.6-3.8c1.1-2.1,3.7-4.4,4.8-4.4,1.9,0,2.2-1,.7-2.5-2.5-2.3-3.2-4.8-2.1-6.9.7-1.4,1.2-1.6,3.7-1.6,2.7,0,4.5,1.3,5.1,3.8a7.87,7.87,0,0,0,1.5,2.7c.9.9,1.2,1,2,.6s.8-.6-1.1-2.5a14.2,14.2,0,0,1-2.5-3.3c-.5-1.1-.4-1.4.7-2.8l1.2-1.5h-3c-3.8,0-5-.7-5-2.9a9.11,9.11,0,0,1,.9-3.3,4.87,4.87,0,0,0,.7-2c-.7-.7,1.3-2.8,3.9-4.1l2.9-1.5,2.9,1.5c3.7,2,3.5,1.9,3.5,1.2a7.9,7.9,0,0,1,.3-1.3c.2-.4.1-.8-.1-.8s-1-.1-1.6-.2c-1.8-.2-4.8-3.5-5.8-6.5a14.91,14.91,0,0,0-2.3-4.3,12.64,12.64,0,0,1-1.5-2.3c0-.2-.4-.5-.9-.6-1.3-.4-1.7-2.4-1.4-5.6.4-3.8.9-4.3,3.7-4.1,3,.3,3.8.8,7,5.1a18.49,18.49,0,0,0,2.9,3.4c.5-.5-.7-3.2-2.1-4.8-2.2-2.5-2.1-3.8.4-5.1a25,25,0,0,0,3.5-2.1,6.62,6.62,0,0,1,2.5-1.2c.5,0,.8-.3.8-.9a6.12,6.12,0,0,1,1.8-2.7l1.8-1.8-1.1-1.4a8,8,0,0,1-1.2-2.1c0-.4-.5.2-1,1.3-2.7,5.4-4.8,7.3-8.2,7.3a27.7,27.7,0,0,0-4.6.6c-3.5.8-4.9.3-5.1-1.9a8.92,8.92,0,0,1,.5-3.2c.4-.9.5-1.6.4-1.6-.5,0-1.9,1.9-1.9,2.5a3.9,3.9,0,0,1-1.1,1.7c-.9.8-1.4,1-2.4.7-3-.8-5.1-3.3-4-4.6.5-.6.4-.7-.4-.7a4.51,4.51,0,0,1-1.3-.1c-.7-.1-1.4-1.6-1.4-3,0-1.2.4-1.8,1.8-3.1,1.9-1.7,2.1-2.3,1.1-2.3a2.43,2.43,0,0,1-1.5-.9,3.33,3.33,0,0,0-1.9-.9c-3.8,0-2.8-4.1,1.5-5.8a10.67,10.67,0,0,0,3.2-2.3c1.4-1.4,1.9-1.7,3.5-1.7,1.8,0,1.9-.1,1.6-1.1-.2-.8,0-1.3,1.1-2.2a3.59,3.59,0,0,0,1.3-2,1.6,1.6,0,0,1,2-1.6,9.32,9.32,0,0,0,1.4.2,7,7,0,0,1,2.1,1.1c1.7,1.2,2.1.9,2.1-1.2a9.17,9.17,0,0,1,1.5-3.1,7.32,7.32,0,0,0,1.5-3,6,6,0,0,1,1.8-2.6c1.4-1.5,2-1.8,2.9-1.6s1.2,0,1.6-1a3.62,3.62,0,0,1,4-2c3.4.6,4.4.5,6.4-.5,2.2-1.2,5.6-1.6,7-.9.6.3,1.6.2,3.4-.3s2.9-.7,3.6-.4a10.29,10.29,0,0,0,3.4.3c3.3-.2,4.1.1,4.8,1.5s1.8,2.2,3.8,2.5c1.7.3,2.4,1.1,2.9,3.2a16.29,16.29,0,0,1-.4,8.4c-.7,2.4-1.2,3.4-2.3,4.3a5,5,0,0,1-2,1.2c-.8,0-3.1,2.8-4.3,5.3-.6,1.3-1.1,2.4-1.1,2.5,0,.6,2.2-1.5,2.6-2.5a6.68,6.68,0,0,1,1.8-2c.7-.5,1.3-1,1.3-1.2,0-.5,2.1-.4,2.4.1a12.33,12.33,0,0,1,.3,2.9,6.43,6.43,0,0,1-1.1,4.1c-1.6,2.5-3,5.4-2.9,5.9.1.3-.8,2.6-1.9,5.2s-2.3,5.2-2.5,5.8a43.54,43.54,0,0,0-1.7,8.6c-.2,2.3-2.3,4.3-4.3,4.1-1.2-.1-1.4,0-1.7,1.3a7.45,7.45,0,0,1-1.3,2.5c-.9,1-4.6,2.6-5,2.2-.1-.1-.6.2-1,.8-.8.9-.8,1,.1,1.6a2.49,2.49,0,0,1,.3,3.7c-.6.7-.6.8-.1.9a4.25,4.25,0,0,1,1.1.2c.3.1.8.1,1.3.2a4.47,4.47,0,0,1,2.1,1.4c1.6,1.7,1.8,4.9.4,5.8-1.2.7-1.1,1.1.2,2.2a3.06,3.06,0,0,1,1.1,1.7,1.17,1.17,0,0,1-1.1,1.1c-.9.2-1.1.6-1.1,1.7a4.78,4.78,0,0,1-4,4.3l-1.5.1.1,3.3c.1,3,0,3.4-.9,4.4-2.7,2.9-2.7,2.9-1.9,4.2a7.71,7.71,0,0,0,2.1,1.9,6.21,6.21,0,0,1,1.9,1.4c.7.9.4,3.2-.6,5.5C357.8,145.4,351.5,149.3,350.6,146.6Z"/><path class="cls-1" d="M268,130.1c-1.2-1.2-1.4-3.2-.6-5.5.6-1.7,1.4-1.8,2.5-.1,1.7,2.4,1.8,5.4.1,6.3C269.2,131.1,268.9,131,268,130.1Z"/><path class="cls-1" d="M300.5,129.5c-3.2-1.6-3.5-3.2-1.1-5.3a5.27,5.27,0,0,1,6.6-.5c2.5,1.5,2.5,3.5.1,5.5A5.12,5.12,0,0,1,300.5,129.5Z"/><path class="cls-1" d="M296.6,122.1a2.55,2.55,0,0,1-1.7-3.2,3.36,3.36,0,0,0-1.1-2.3c-1.6-1.9-1.9-3-1.6-5.6.3-2.4,1.6-3.8,3.1-3.4a20.84,20.84,0,0,1,3.5,2,16,16,0,0,0,2.9,1.7c.7,0,1.3,2.5,1.3,5.3v3.1l-2,1.6C298.8,122.9,298.6,123,296.6,122.1Z"/><path class="cls-1" d="M287.1,121.3c-.5-.6-1.7-1.8-2.5-2.8-2.7-3.1-4.1-3.9-6.9-3.8-2.2.1-2.6,0-3.8-1.2a3.63,3.63,0,0,1-.9-4.5,1.56,1.56,0,0,1,1.1-.8,3.16,3.16,0,0,0,1.5-.8c.8-.8.8-1.1.4-2.5a6.35,6.35,0,0,0-2-2.9c-2.8-2.3-1.6-6,2-6,2,0,4.5,1.7,4.5,3.1,0,.8.6,1.4,1.6,1.6s3.2,2.2,4.1,4a12.59,12.59,0,0,0,1.8,2.7c1.5,1.6,1.7,2.4,1.1,4.3-.9,2.5-.8,3.1.7,4.8a5.3,5.3,0,0,1,1.3,2.2A4,4,0,0,1,289,122C288.2,122.2,287.9,122.2,287.1,121.3Z"/><path class="cls-1" d="M312.4,116.5a11.63,11.63,0,0,1-2.1-2.7,6.66,6.66,0,0,0-1.4-2c-1.6-1.7-3.2-5.1-3.2-6.7a3.67,3.67,0,0,1,3.4-3.5c1.2,0,2.8-1.3,2.8-2.1,0-.4-2.1-1.6-2.9-1.5-.3,0-1.4.2-2.5.3-2.7.4-4,.1-4.6-1.2a2,2,0,0,1,.2-2.2c.4-.7.5-1.2.2-1.2a2.9,2.9,0,0,1-1.4-.9c-1-1-1.2-3.1-.4-5.2.4-1.2.7-1.4,2.2-1.4s1.7-.1,1.4-1a5.87,5.87,0,0,0-1.6-2.1c-1.1-1-1.3-1.4-1-2.5.4-1.6,1.2-2.5,2.8-2.6,2.8-.3,2.8-.7.7-2.9l-1.5-1.6.9-1.8a5.77,5.77,0,0,1,2.2-2.4A2.26,2.26,0,0,0,308,67c.1-1.6.3-1.7,1.7-1.8,1.6-.1,4.2,1.2,4.9,2.6a29.9,29.9,0,0,1,2.2,5.2c0,1,1.9,3.8,3.8,5.9,1.4,1.5,1.9,2.4,1.9,3.4s.5,1.9,2.2,3.7c1.9,2.1,2.2,2.6,2.2,4.2,0,2,.2,2.2,4.4,5.7,1.6,1.3,1.8,1.7,1.8,3.4s-.4,2.4-2.6,5.4c-1.4,1.9-3.1,3.8-3.8,4.1a2,2,0,0,0-1.1,1.7,7.22,7.22,0,0,1-1.6,3.2c-1.8,2.4-2.1,2.5-4,1.9-.8-.3-1-.1-1.1,1.2s-.2,1.4-2.4,1.6C314.3,118.4,314.1,118.3,312.4,116.5Z"/><path class="cls-1" d="M257.7,109.5c.1-.6.4-1.8.5-2.8s.5-1.7.7-1.7c.6,0-.1,4.1-.8,4.9C257.5,110.5,257.5,110.5,257.7,109.5Z"/><path class="cls-1" d="M291.2,90.3c-1.5-1.2-2.5-3-2.3-4,.4-1.5,1-2.1,2.3-2.1.9,0,1.5.4,2.4,1.8,1.4,2.2,1.5,2.8.3,3.9S292.1,91.1,291.2,90.3Z"/></g><path id="ca-on" class="cls-1" d="M379.3,576.8a2.77,2.77,0,0,1,2.3-1.5,13,13,0,0,0,2.3-.7c.8-.5,1.2-3.6.6-4-.4-.3-.4-.6-.1-1.2a10.93,10.93,0,0,0,.7-2.5,4.51,4.51,0,0,1,1.1-2.2c1.6-1.1,3-3.7,2.8-5.3-.1-.8-.2-3.1-.2-5.1-.1-3.4,0-3.8,1.5-6.4l1.6-2.8-.8-1.8a9,9,0,0,0-1.7-2.6c-.9-.8-1.3-2-.6-2a18.41,18.41,0,0,1,2.9,2.6c2.4,2.4,4.7,4,7.1,4.6s3.8-3.4,2-6a69.2,69.2,0,0,0-7.2-7.8,12.28,12.28,0,0,0-3.8-1c-1.6-.2-4-.7-5.3-1-1.7-.5-4.3-.7-8.9-.7-6.1,0-6.6-.1-7.1-.9a12.37,12.37,0,0,0-3-2.1c-1.9-1-2.3-1.4-2.4-2.4a4.35,4.35,0,0,0-1.3-2.5c-1.1-1.1-1.2-1.4-.5-1.6,1-.4.9-1.3-.2-2.9a22.83,22.83,0,0,1-1.8-3.2c-.8-1.7-1.1-2-2.6-2.2-1.7-.3-6.4-2.5-7.5-3.6a4.17,4.17,0,0,1-.7-2.3,20.77,20.77,0,0,0-.5-3l-.3-1.3-3.6.2c-3.3.2-3.8.1-6.1-1.1l-2.6-1.3-1.8,1.2c-1.6,1-1.8,1.2-1.1,1.9s.4.9-2.3,2.6a41.26,41.26,0,0,0-4.6,3.6c-1.8,1.9-2,1.9-8.4.9a47.6,47.6,0,0,0-6.5-.6c-3-.1-5.9-1.1-5.9-2.1,0-.2-.5-.4-1.1-.4a5.15,5.15,0,0,1-2.8-1.5c-1.6-1.5-1.6-1.5-5.7-1.5-2.9,0-4.2-.2-4.7-.6a5.4,5.4,0,0,0-2.4-1c-2.4-.4-2.7-.8-3-3.9-.3-2.5-.4-2.8-1.7-3.5s-1.4-.8-1.4-3.3c.1-2.8.6-14.7.8-19,.1-1.5.3-5.8.5-9.7.4-8.8-.4-7.4,10.1-18.4,2.2-2.3,5.3-5.7,6.9-7.5s3.1-3.5,3.3-3.8,2.8-3.3,5.8-6.7,6.3-7.3,7.5-8.6c6-6.6,8.6-9.6,9.4-10.6l.9-1.1,1.5.8c1.8,1,4.8,3.8,4.8,4.5a6.54,6.54,0,0,0,1.4,1.9,7.49,7.49,0,0,0,4.1,1.9,8.26,8.26,0,0,1,4,1.8,6,6,0,0,0,4.4,1.7c.5,0,2,1,3.3,2.2l2.4,2.1,8.3.3c7.2.3,8.5.4,10.1,1.2l1.8.9-.3,3.8a17.31,17.31,0,0,1-.7,4.2c-.2.2,0,1,.5,1.8a9.08,9.08,0,0,1,1.1,3.4c.5,3.5.6,3.9,1,4.7a10.19,10.19,0,0,1,.3,2.9,5.6,5.6,0,0,0,1.2,4.1c1.7,2.7,7,9.1,7.5,9.1,1,0,3.8,3.6,4.6,6l.9,2.5,2.7-.2,2.7-.2.3,2.3c.5,3.6.6,5.2.9,7.8.1,1.4.3,2.9.4,3.5s.3,2.3.5,3.8.3,3.1.4,3.8c.2,1.4.6,5,.9,7.7.1,1.2.3,2.9.4,3.8.7,5.3,1.1,9,1.3,11.2a22.88,22.88,0,0,0,1.6,5.6,8.87,8.87,0,0,0,3.9,4.8,24.89,24.89,0,0,0,10.9,3.9,10.52,10.52,0,0,1,4.7,1.6,8.31,8.31,0,0,0,2.9,1.3c.5,0,1.4.8,2.1,1.7l1.2,1.7,3.8-.2c3.3-.2,4.2-.4,6.6-1.7,2.8-1.5,5-2.2,5.1-1.6a16.75,16.75,0,0,0,.6,2.7c.2.8-.1,1.3-1.4,2.4a55.39,55.39,0,0,0-8.3,8.8,27.74,27.74,0,0,1-3.5,3.9c-.8.1-2.5,1.7-2.3,2.1.5.8-3,2.2-6,2.3-5.3.2-12.9,3.3-14.5,6s-1.6,3.3.1,4a5.71,5.71,0,0,0,2.4.4c.7-.2,1,.1,1.6,1.3.9,1.8.6,2.1-2.4,2.1-1.8,0-6.6,1.8-7.9,3-.6.5-.5.7.4,1.4l1.1.8-1.2.3a7.25,7.25,0,0,1-3.2-.2c-4.2-1.1-5.2-.6-10.4,4.9-2.9,3-3.5,3.5-4.9,3.5a28.31,28.31,0,0,0-3,.2l-1.4.1Z"/><path id="ca-pe" class="cls-1" d="M534.6,498.2a23,23,0,0,0-3.9-.4,31.64,31.64,0,0,1-6.1-.9,24.14,24.14,0,0,0-4.4-1.1c-1.8-.1-2-.8-.9-3.1.6-1.2,1.3-2.2,1.6-2.2a9.53,9.53,0,0,1,2.6,1.9c1.6,1.5,2.1,1.8,2.5,1.3s1.4-.6,2.7-.6a9,9,0,0,0,2.9-.4c1.4-.8,5.4-1.8,5.6-1.4a2.73,2.73,0,0,1-.4,1.5,8.94,8.94,0,0,0-.7,3.2C535.9,497.8,535.2,498.8,534.6,498.2Z"/><g id="ca-qc"><path class="cls-1" d="M445.4,530.9a8.37,8.37,0,0,1-.9-2.8c-.2-1.5-.3-1.5-2-1.7s-4.2.8-6.8,2.6c-.9.6-2,.8-4.5.8-3.3,0-3.3,0-4.4-1.5-.6-.8-1.4-1.5-1.9-1.5a9.2,9.2,0,0,1-3.1-1.4,10.55,10.55,0,0,0-4.7-1.6,23.69,23.69,0,0,1-10.4-3.4,8.67,8.67,0,0,1-3.6-4.5,18.71,18.71,0,0,1-1.6-5.8c-.1-1.6-.4-3.5-.5-4.2s-.4-3.2-.7-5.5-.6-4.9-.7-5.8-.3-2.4-.4-3.5-.8-7.2-1.5-13.5-1.4-12-1.6-12.6c-.2-1-.1-1.2,1.1-1.4s1.4-.4,1.1-1.6,0-1.8.9-3.2a6.47,6.47,0,0,0,1.2-3,20.28,20.28,0,0,0-1.8-4.9,52.15,52.15,0,0,1-2.3-5.5,13.34,13.34,0,0,0-1.2-2.9,5,5,0,0,1-.6-3.2c.1-2.3-1-4.8-2.6-5.7a1.89,1.89,0,0,1-.9-1.6,4.14,4.14,0,0,0-.9-2.3,4.32,4.32,0,0,1-.9-1.5c0-.7,2.1-2.6,4.6-4.1a22,22,0,0,0,3.6-3c.8-.9,2.3-2.6,3.4-3.8a21.32,21.32,0,0,0,3.6-6.1c1.5-3.6,1.6-4.3,1.5-7.7a24,24,0,0,0-1.3-7.4,43.58,43.58,0,0,1-1.5-4.8c-.5-2-4.4-6.3-7.3-7.8-3.4-1.8-6-4.4-6.2-6.2a7,7,0,0,1,.6-3,20.23,20.23,0,0,0,.9-2.4,3.06,3.06,0,0,1,1-1.4c.7-.6.9-1.3.9-2.9a4,4,0,0,1,.9-3c.8-.9.8-1.1.2-2.8-.3-1-.7-2.3-.8-2.9a17,17,0,0,0-2.7-5.4c-.9-1.2-1-1.8-1-6.3,0-3.6-.2-5.2-.6-5.8a25.44,25.44,0,0,1-1.9-3.8l-1.3-3,1.1-2.3c1.1-2.2,1.2-2.3,3.2-2.6a18.47,18.47,0,0,1,8,.3c2.5.9,6.1,1.2,7.5.7a11.78,11.78,0,0,0,3-2.2,7.64,7.64,0,0,1,2.2-1.7c.8,0,9.3,4.5,12.1,6.4,2.2,1.4,2.6,2,2.6,2.9a4.73,4.73,0,0,0,.7,2.2c.7,1,1.2,1.2,5.3,1.7a66.08,66.08,0,0,1,6.7,1.2l2.1.7-.3,2.4c-.3,2.4,0,3.9,2.1,9.6a5.69,5.69,0,0,1,.4,2.5,3.33,3.33,0,0,0,1.1,2.3,12.77,12.77,0,0,1,2,3.1l.9,2,2.2-.3c2.1-.3,2.3-.2,4.5,1.7a13.64,13.64,0,0,0,3.6,2.3c.7.2,1.2.5,1.2.7,0,.8,1,.3,2.8-1.5a6.88,6.88,0,0,0,2.3-3.7c.2-1.3.6-2,1.3-2.3a4.18,4.18,0,0,0,1.6-2.4c.7-2.2.6-6.8-.1-8.1a3,3,0,0,1-.4-1.3c0-.2.3-1.5.6-2.9.4-2.2,1.4-3.8,2.2-3.3a4.37,4.37,0,0,1,.6,1.8c.4,2.1,2.3,5.4,3.1,5.4.5,0,1.8,4.4,1.6,5.5s.1,1.4,2.6,1.2l2.5-.2-.1,2.8a22.1,22.1,0,0,1-.5,4.3,3,3,0,0,0,0,2.3c.5,1,2.9,2.5,4.5,2.9s1.6.8,1.9,6a30.55,30.55,0,0,0,.9,6.4c.3,1.2.7,2.9.9,3.8a4,4,0,0,0,1.6,2.6c1.3,1,3.5,4.9,3.5,6.3a2.54,2.54,0,0,0,.8,1.4,7.19,7.19,0,0,1,1.6,2.5c.8,1.6.7,1.8-.2,3.8l-.9,2.1-2.3-.3c-1.3-.1-2.9-.4-3.7-.5-1.2-.3-1.5-.1-2.4,1.3-1.2,1.7-1.9,1.9-3.1.9a9.45,9.45,0,0,0-3.5-1.3c-3-.6-3.2-.5-3.7,1.6a3,3,0,0,1-1.4,1.7c-.9.4-1.1.8-1.1,2a3.82,3.82,0,0,1-1.4,2.9c-1.2,1.3-1.4,1.6-1.1,3.2a8.8,8.8,0,0,0,.9,3,15.26,15.26,0,0,0,5.5,5.5c1.9,1,2.2,2,1.4,4.5-.5,1.4-.4,1.5.8,2.6s2.8,1.2,5.4.4c.9-.3,1-.1,1.2,2a5.35,5.35,0,0,0,1.4,3.4c1,1,1.3,1.1,3.6.8,2-.3,2.6-.2,3.3.5a3.76,3.76,0,0,0,1.6.9c2.1.4,6.6.5,7.1.2a3.94,3.94,0,0,0,.8-2.3c.3-2.5.6-5.5.6-5.6a7.12,7.12,0,0,1,1.9.8,5.33,5.33,0,0,0,3.6.7c1.9-.3,9-2.7,16.4-5.6,11.4-4.5,18.4-7,21-7.7a16.53,16.53,0,0,0,3.4-1.2.78.78,0,0,1,1-.1,44.92,44.92,0,0,1,3.2,4.3,18.66,18.66,0,0,1-2.8,2.4c-4,3.1-6.5,5.8-6.7,7.7a25.28,25.28,0,0,1-2.2,5.5c-1.1,2.2-2.2,4.5-2.4,5.1-.5,1.4-7.6,5.2-12.2,6.6-1.7.5-5.5,1.6-8.4,2.5-17.1,5-25.4,8.1-26.9,10.1a8.45,8.45,0,0,0-1.2,3.3,47.94,47.94,0,0,1-1.3,5.1c-.8,2.6-1.1,3-2,3-2.1,0-6.5,4.9-8,9.1a30.1,30.1,0,0,1-2.2,4.4,10.71,10.71,0,0,0-1.6,3.8c-.5,3.7-7.3,14.7-10.8,17.5-5,4-11.8,11.2-11.1,11.8a27.59,27.59,0,0,0,3.9-4,61,61,0,0,1,6.7-6.3,35.8,35.8,0,0,0,7.8-8.2c1.8-2.6,5-9,5-10a4.49,4.49,0,0,1,.5-1.9,52.2,52.2,0,0,1,6.6-8.1c.9-.8,2.5-2.3,3.8-3.4a29.46,29.46,0,0,1,4.9-3.6c1.5-.9,4.1-2.6,6-3.9a18.44,18.44,0,0,1,6.2-3c2.7-.7,3-.7,5.5.1,2.1.7,2.7,1.1,3.4,2.3,1.8,3.4,1.5,5.6-1.1,8.7s-3.4,3.6-6,3.8c-5.1.5-9.3,1.7-10.7,3-1.8,1.7-3.3,2.2-6.8,2.3-4.2.2-4.4.5-4.1,4.9l.3,3.6-1.7.3a14.75,14.75,0,0,1-2.9.1,1.52,1.52,0,0,0-1.9.8c-.9,1.2-2.8,7.4-3.1,10.1-.1,1.1-.5,3.3-.7,4.9s-.5,3.7-.6,4.8c-.3,3.4-1.6,6.3-3.4,7.6a10.69,10.69,0,0,0-2.6,2.6,3.87,3.87,0,0,1-1.9,1.6c-.5.1-4.1.9-8.1,1.8a65,65,0,0,1-9.5,1.6C446.3,532.1,446,532,445.4,530.9Z"/><path class="cls-1" d="M517.5,463.2a5.4,5.4,0,0,1-2.2-1,14.56,14.56,0,0,0-3.6-1.3c-3.2-.7-3.8-1.8-1.8-3.4,1-.8,1.8-1,4.1-1.1,6-.1,8.2.1,12.3,1.5s4.1,1.4,4.1,2.8c0,1.7-.2,1.8-5.1,2.2C519.9,463.4,518.7,463.4,517.5,463.2Z"/></g><path id="ca-sk" class="cls-1" d="M233.7,492.6a28.5,28.5,0,0,0-3.7-.5c-1.9-.2-4-.4-4.6-.5s-2.4-.3-4-.5-3.4-.4-4-.4-2.4-.3-4-.5-7.8-1.4-13.7-2.7-11.1-2.5-11.5-2.6c-2-.4-3.1-.7-5.8-1.3a29,29,0,0,0-3.8-.8,35.87,35.87,0,0,1-4.3-1c-2.8-.6-3.4-.9-3.2-1.5s3.7-15,4-16.4c.1-.4.8-3.3,1.5-6.4s2.1-8.7,3-12.4,2.6-10.7,3.8-15.7,2.3-9.5,2.4-9.9.8-3.4,1.5-6.4,2.2-9.3,3.4-13.9,2.7-11.2,3.5-14.6,2.2-9.2,3.1-12.9l1.6-6.7,2.3.2c1.3.1,3.3.3,4.5.5a26.82,26.82,0,0,0,5.6-.1c3.2-.4,3.6-.3,6.1.8s3.6,1.2,3.6.3c0-.5-9.4-5.1-11.7-5.7a11.86,11.86,0,0,0-2.8-.5,3.07,3.07,0,0,1-1.9-.9,2.86,2.86,0,0,0-3.6-.4c-1,.5-1,.4-.4-2.7.4-1.8.6-2.2,1.2-2s3.8.8,6.7,1.4c.6.1,1.5.3,1.9.4,1.5.3,19.8,3.9,21,4.1.6.1,3.5.7,6.4,1.3s6.1,1.1,7.1,1.2c1.7.2,1.8.2,1.7,1.7,0,.8-.6,5.2-1.2,9.7s-1.3,9.2-1.4,10.4c-.3,2.2-.8,3.3-1.6,3.3s-3.3,2.9-3.9,4.3a3.87,3.87,0,0,0-.1,2.8c1,3.1.8,4.6-.7,6.2-1,1-1.3,1.6-1,2.1s.6.4,1.8-.6a5.87,5.87,0,0,1,2.1-1.2c.7,0,.7,1.4-.1,10.2-.1,1.4-.3,4.2-.4,6.4s-.3,4.9-.4,6-.3,4-.4,6.4-.3,5.1-.4,6-.3,3.7-.4,6.4-.4,5.4-.4,6-.3,3.5-.5,6.4-.4,5.6-.4,6-.3,3.1-.4,6.2-.4,5.8-.4,6.2-.3,3.2-.4,6.2-.4,5.9-.5,6.3-.2,2.1-.3,3.6C234.9,492.4,234.5,493.3,233.7,492.6Z"/><path id="ca-yt" class="cls-1" d="M119,325.5c-.5-.3-2.3-1.2-4.2-2.1-2.8-1.3-12.4-6.2-28.2-14.6-5-2.7-23.4-14.1-36.9-23-4.8-3.1-7-4.8-7-5.4,0-1.1,1.4-3.3,2.8-4.4,2.6-2,1.1-3.3-4-3.5-1,0-1.4-.3-1.6-1-.1-.5-.4-.9-.6-.8a2.72,2.72,0,0,1-2.6-1.5c-.2-.7.8-2.5,4.1-7.4,6.1-9,17.3-25.6,26-38.5,6.9-10.3,15.9-23.5,27.9-41.4l5.4-8,1.4.5c2.9,1,3.7,2,4.1,4.8a20.62,20.62,0,0,0,1.3,4.6,12.66,12.66,0,0,1,1.3,3.7,5.33,5.33,0,0,0,2.1,3.3c1.6,1.4,1.7,1.6,1.2,2.3a115.58,115.58,0,0,0-6.4,10.5c-.5,1-1.2,2.9-1.7,4.2a44.77,44.77,0,0,1-1.8,4.4c-1.9,3.9-2,3.6,2.6,7.1,3.2,2.4,4.2,3.4,4.2,4.2a14,14,0,0,1-1.6,4.1,15.3,15.3,0,0,0-1.8,5.5c-.2,2.4-.2,2.5,1.4,3.7s1.7,1,1.2,6.1c0,.2-.6.4-1.3.6a3.74,3.74,0,0,0-2.7,3.3,6,6,0,0,1-.9,2.4,2.91,2.91,0,0,0,.6,4.2c.5.4.6,1.1.5,2.3a3.47,3.47,0,0,0,.8,3.1,7,7,0,0,1,1.1,3.9,11.34,11.34,0,0,0,.8,4c.8,1.4.8,1.6-.1,4.6a47.76,47.76,0,0,0-2,11.4,20.4,20.4,0,0,1-.8,4.8c-.4,1.2-.4,1.5.6,2.6,1.5,1.6,1.9,2.5,2.8,5.8a23.57,23.57,0,0,0,2,5.1c.9,1.7,1.1,2.4.7,2.5s-.7,1.2-.8,2.3a21.24,21.24,0,0,1-.6,3.4c-.4,1.5.2,2,3.8,3.7a26,26,0,0,1,4.1,2.3,6.89,6.89,0,0,0,2.9,1.2h1.2l-.1,4.6a39.14,39.14,0,0,1-.3,4.7C119.9,326,119.4,325.8,119,325.5Z"/></svg>