<?xml version="1.0" encoding="utf-8"?>
<!-- Generator: Adobe Illustrator 21.0.2, SVG Export Plug-In . SVG Version: 6.00 Build 0)  -->
<svg version="1.1" xmlns="http://www.w3.org/2000/svg" xmlns:xlink="http://www.w3.org/1999/xlink" x="0px" y="0px"
	 viewBox="0 0 23.6 23.6" style="enable-background:new 0 0 23.6 23.6;" xml:space="preserve">
<style type="text/css">
	.st0{fill:none;stroke:#FFFFFF;stroke-width:0.5;stroke-miterlimit:10;}
	.st1{fill:#FFFFFF;stroke:#FFFFFF;stroke-width:0.25;stroke-miterlimit:10;}
	.st2{fill:#FFFFFF;stroke:#FFFFFF;stroke-width:0.25;stroke-linejoin:round;stroke-miterlimit:10;}
</style>
<g id="Capa_1">
	<path class="st0" d="M11.8,0C5.3,0,0,5.3,0,11.8s5.3,11.8,11.8,11.8s11.8-5.3,11.8-11.8S18.3,0,11.8,0z"/>
	<circle class="st1" cx="12.8" cy="6.4" r="1.7"/>
</g>
<g id="Layer_2">
	<path class="st2" d="M8.5,10l-0.2,1.6c0,0,0.8-0.8,1.1-1c0.3-0.1,2-0.7,0.3,3.5C9,15.2,7.6,20.9,14.4,19c0.1-0.6,0.4-2,0.4-2
		s-2.9,2.2-2.6-0.5c0.3-2.5,1.3-4.4,1.3-4.6s0.8-3.3-3.1-2.9C8.9,9.2,8.5,10,8.5,10z"/>
</g>
</svg>
