<?xml version="1.0" encoding="utf-8"?>
<!-- Generator: Adobe Illustrator 21.0.2, SVG Export Plug-In . SVG Version: 6.00 Build 0)  -->
<svg version="1.1" id="Layer_1" xmlns="http://www.w3.org/2000/svg" xmlns:xlink="http://www.w3.org/1999/xlink" x="0px" y="0px"
	 viewBox="0 0 20 20" style="enable-background:new 0 0 20 20;" xml:space="preserve">
<style type="text/css">
	.st0{fill:#030104;}
	.st1{fill:#FFFFFF;}
</style>
<g>
	<path class="st0" d="M10,0C4.5,0,0,4.5,0,10s4.5,10,10,10s10-4.5,10-10S15.5,0,10,0z M12.1,15.8c-0.6,0.3-1,0.4-1.4,0.5
		c-0.4,0-0.7,0-1,0c-0.6-0.1-1.1-0.2-1.4-0.6C8,15.4,7.8,15,7.8,14.5c0-0.2,0-0.4,0-0.6c0-0.2,0.1-0.4,0.1-0.6L8.6,11
		c0.1-0.2,0.1-0.4,0.1-0.6c0-0.2,0.1-0.4,0.1-0.5c0-0.3-0.1-0.5-0.2-0.6C8.5,9.1,8.4,9.1,8.1,9.1c-0.2,0-0.4,0.1-0.5,0.1
		C7.4,9.3,7.3,9.3,7,9.6l0.1-1c0.4-0.2,0.8-0.4,1.2-0.5C8.7,8,9.1,7.9,9.4,7.9c0.6,0,1.1,0.2,1.5,0.5c0.3,0.3,0.5,0.7,0.5,1.2
		c0,0.1,0,0.3,0,0.5c0,0.2-0.1,0.5-0.1,0.7l-0.6,2.3c-0.1,0.2-0.1,0.4-0.1,0.6c0,0.2-0.1,0.4-0.1,0.5c0,0.3,0.1,0.5,0.2,0.6
		C10.7,15,11,15,11.3,15c0.2,0,0.3,0,0.5-0.1c0.2-0.1,0.7-0.3,0.7-0.3L12.1,15.8z"/>
	
		<ellipse transform="matrix(5.737358e-02 -0.9984 0.9984 5.737358e-02 5.0372 15.1621)" class="st1" cx="10.5" cy="4.9" rx="1.7" ry="1.4"/>
</g>
</svg>
