<svg id="Layer_1" data-name="Layer 1" xmlns="http://www.w3.org/2000/svg" xmlns:xlink="http://www.w3.org/1999/xlink" viewBox="0 0 17 17"><defs><style>.cls-1{fill:#aaa;stroke:#aaa;stroke-miterlimit:10;}.cls-2{fill:#333;}</style><symbol id="Pinned" data-name="Pinned" viewBox="0 0 16.8 16.8"><circle class="cls-1" cx="8.4" cy="8.4" r="7.9"/><path class="cls-2" d="M6.07,3.26h0a1.85,1.85,0,0,0,.35.64c.14.14.21.21.35.21L6.42,8a1.14,1.14,0,0,0-.78.35,1.22,1.22,0,0,0-.35.92h0c0,.14,0,.14.07.21s.07.07.21.07H7.83V12a14.61,14.61,0,0,0,.14,2c.07.78.07.92.07.92a.35.35,0,0,0,.07.21c.07.07.07.07.21.07a.3.3,0,0,0,.28-.28s0-.14.07-.92a14.61,14.61,0,0,0,.14-2V9.55h2.4a.3.3,0,0,0,.28-.28h0a1.61,1.61,0,0,0-.42-.85,1.14,1.14,0,0,0-.78-.35L10,4.18A.6.6,0,0,0,10.31,4a1.08,1.08,0,0,0,.28-.71h0A.3.3,0,0,0,10.31,3h-4C6.21,3,6.14,3,6.07,3.26Z"/></symbol></defs><title>pinned</title><use id="Pinned-3" data-name="Pinned" width="16.8" height="16.8" transform="translate(0.1 0.1)" xlink:href="#Pinned"/></svg>