<?xml version="1.0" encoding="utf-8"?>
<!-- Generator: Adobe Illustrator 21.0.2, SVG Export Plug-In . SVG Version: 6.00 Build 0)  -->
<svg version="1.1" id="Layer_1" xmlns="http://www.w3.org/2000/svg" xmlns:xlink="http://www.w3.org/1999/xlink" x="0px" y="0px"
	 viewBox="0 0 64 80" style="enable-background:new 0 0 64 80;" xml:space="preserve">
<style type="text/css">
	.st0{fill:none;stroke:#000000;stroke-width:8;stroke-linecap:square;stroke-linejoin:bevel;stroke-miterlimit:10;}
	.st1{font-family:'Arial-BoldMT';}
	.st2{font-size:5px;}
</style>
<g>
	<path class="st0" d="M7.8,17.8c1.2-2,2.6-3.9,4.3-5.6C23,1.3,40.7,1.3,51.6,12.2s10.9,28.6,0,39.5s-28.6,10.9-39.5,0"/>
	<g>
		<path d="M1.2,25.3H21c1.1,0,1.7-1.3,0.9-2.1L2.1,3.4C1.3,2.7,0,3.2,0,4.3l0,19.8C0,24.7,0.5,25.3,1.2,25.3z"/>
	</g>
</g>
<text transform="matrix(1 0 0 1 0 79)" class="st1 st2">Created by Mooms</text>
<text transform="matrix(1 0 0 1 0 84)" class="st1 st2">from the Noun Project</text>
</svg>
