<?xml version="1.0" encoding="utf-8"?>
<!-- Generator: Adobe Illustrator 21.0.2, SVG Export Plug-In . SVG Version: 6.00 Build 0)  -->
<svg version="1.1" xmlns="http://www.w3.org/2000/svg" xmlns:xlink="http://www.w3.org/1999/xlink" x="0px" y="0px"
	 xml:space="preserve">
<style type="text/css">
	.st0{display:none;}
	.st1{display:inline;fill:#24481E;}
	.st2{display:inline;fill:#315530;}
	.st3{display:inline;fill:#639081;}
	.st4{display:inline;fill:#719E98;}
	.st5{display:inline;fill:#81AEAD;}
	.st6{display:inline;fill:#91BFC4;}
	.st7{display:inline;fill:#A5D0D9;}
	.st8{display:inline;fill:#BADFED;}
	.st9{display:inline;fill:#D5EEFE;}
	.st10{fill:#CEC6B6;}
	.st11{fill:#FFFFFF;stroke:#F0EDE5;stroke-width:0;stroke-miterlimit:10;}
	.st12{fill:#1CD1C8;}
</style>
<g id="map">
	<g class="st0">
		<rect x="-1015.7" y="15.5" class="st1" width="23.9" height="459">
		<title>High Vapour Pressure Product
37</title>
		</rect>
		<polygon class="st2" points="-991.7,104.5 -1015.5,104.5 -1015.7,474.5 -991.7,474.5 		">
		<title>Miscellaneous
6</title>
		</polygon>
		<rect x="-1015.7" y="231.5" class="st3" width="23.9" height="242.7">
		<title>Commodity
2</title>
		</rect>
		<rect x="-1015.7" y="272.5" class="st4" width="23.9" height="201.7">
		<title>Commodity
2</title>
		</rect>
		<rect x="-1015.7" y="331.5" class="st5" width="23.9" height="142.7">
		<title>Commodity
2</title>
		</rect>
		<rect x="-1015.7" y="382.5" class="st6" width="23.9" height="91.7">
		<title>Commodity
2</title>
		</rect>
		<rect x="-1015.7" y="428.5" class="st7" width="23.9" height="45.7">
		<title>Commodity
2</title>
		</rect>
		<rect x="-1015.7" y="450.5" class="st8" width="23.9" height="23.7">
		<title>Commodity
2</title>
		</rect>
		<rect x="-1015.7" y="462.5" class="st9" width="23.9" height="12.7">
		<title>Commodity
2</title>
		</rect>
	</g>
</g>
<g id="Top_Bar">
	<g>
		<g>
			<rect x="0.8" y="0.8" class="st10" width="514" height="450.9"/>
			<g>
				<path id="ca-ab_2_" class="st11" d="M135.6,373.7c-21.1-2.9-18.8-2.4-20.4-4.9l-1.3-2.2l0.3-4.4c0.3-4.6,0.1-5.7-1.3-7.9
					c-0.5-0.7-1.9-2.9-3.1-4.7c-1.2-1.8-2.7-4.4-3.3-5.7c-0.6-1.3-1.7-3-2.4-3.9c-0.7-0.9-1.5-2.2-1.7-2.9c-0.2-0.7-1-1.9-1.7-2.5
					c-0.7-0.6-1.3-1.3-1.3-1.5c0-0.2-0.5-0.9-1-1.4c-0.5-0.6-1.2-2.1-1.6-3.6c-0.4-1.6-1.1-3-1.8-3.8c-0.6-0.7-1.3-1.7-1.6-2.2
					c-0.3-0.5-1.2-1.3-2-1.7c-1.4-0.7-2.1-2.1-1.3-2.7c0.2-0.1,0.2-1.2,0.1-2.4c-0.3-2.1,1.4-9.7,12.7-59l1-4.5l8.8,1.8
					c4.8,1,12.2,2.4,16.3,3c4.1,0.7,11.4,1.9,16.2,2.7c4.8,0.8,8.7,1.5,8.8,1.5c0.3,0.2-0.4,6.1-0.8,6.3c-0.2,0.2-0.8,0.5-1.3,0.7
					c-0.9,0.4-4.5,4.9-4.4,5.6c0,0.2,0.7,0.6,1.5,0.9c1.4,0.5,1.5,0.5,2.4-0.4c0.6-0.5,1.1-1.3,1.1-1.7c0.1-0.5,0.2-0.7,0.3-0.7
					c0.1,0.1-0.1,3.1-0.5,6.6c-1,8.4-2,17.5-3.4,30.1c-0.6,5.6-1.3,11.9-1.6,14.1c-1.3,11-2.4,20.8-3,26.2c-3.2,28.2-2.9,26-3.2,26
					C141.3,374.4,138.7,374.1,135.6,373.7z"/>
				<g id="ca-bc_2_">
					<path class="st11" d="M52,363.5c-2.6-1.3-6.9-5.7-7.1-7.3c-0.1-0.9-0.4-1.2-1.3-1.4c-1.2-0.3-2.2-1.7-3-4
						c-0.2-0.6-0.8-1.7-1.4-2.4c-0.6-0.7-1.4-2-1.9-2.9c-0.5-0.9-1.7-2.7-2.7-4.1c-1.1-1.5-2.2-3.3-2.6-4.8
						c-0.4-1.3-1.1-2.9-1.4-3.5c-0.6-1.2-0.6-1.2,0.4-2.3c0.6-0.6,1.4-1.1,1.8-1.2c0.8-0.1,3.3,1.8,7.5,5.7c1.3,1.2,2.6,2.4,2.8,2.6
						c0.2,0.2,1.1,1.1,2,1.9c0.8,0.9,1.6,1.6,1.8,1.7c0.6,0.4,2,3.7,2.5,5.9c0.5,2.1,0.8,2.7,2.8,4.7c2.6,2.7,2.8,3.1,3.5,6
						c0.3,1.2,0.9,2.9,1.2,3.6c0.4,0.8,0.6,1.5,0.5,1.6C56.6,364.2,53.3,364.2,52,363.5z"/>
					<path class="st11" d="M114.3,370.6c-0.4-0.1-8.5-1.6-14.9-2.7c-2.2-0.4-25.5-6.1-35.2-8.6c-1.7-0.4-3.5-0.9-4.2-1.1
						c-1.5-0.4-1.8-0.7-2-2.5c-0.1-1-0.5-1.6-1.1-2c-2.4-1.6-3.4-2.4-3.5-3.1c-0.1-0.4-0.2-0.8-0.4-0.8c-0.9,0.1-2.5-1.8-3-3.5
						c-0.7-2.8-2.3-5.2-4.8-7.2c-2.3-1.8-2.3-1.9-2.3-3.7c0-1.5-0.1-1.9-0.6-1.8c-0.3,0-0.7-0.1-0.7-0.2c-0.1-0.2-1-0.7-2.1-1.1
						c-1.1-0.5-2-1-2-1.3c0-0.3-0.2-0.8-0.3-1.2c-0.3-1-0.5-1.7-0.9-5.8c-0.4-3.5-0.3-3.6,0.7-4.7c1-1,1-1.2,0.5-2.3
						c-0.3-0.6-0.7-1.8-0.8-2.7c-0.1-1.2-0.6-2-2-3.5c-1.5-1.7-1.8-2.2-1.8-3.4c0-0.7,0.4-1.7,0.8-2.1c0.8-0.8,0.6-1.4-1-3.9
						c-0.8-1.2-1.1-2.2-1.6-6.4c-0.6-4.8-0.6-5,0.3-6.1c0.5-0.6,1.7-1.6,2.8-2.1c2.6-1.4,4.6-3.6,4.4-5.1c-0.2-1.5,0.4-3.4,1.7-5.2
						c0.9-1.3,1-1.7,0.7-3.8c-0.3-2.2-0.4-2.5-1.6-3.3c-1.4-1-4.3-5.1-5.2-7.5c-0.6-1.4-0.6-2.3-0.1-6.1c0.4-3.9,0.4-4.7-0.2-6.6
						c-0.4-1.2-1-3.8-1.3-5.8c-0.4-2-0.8-4-0.9-4.4c-0.1-0.4-0.4-1.4-0.7-2.3c-0.2-0.8-1.2-3.6-2.1-6.2c-1-2.6-1.9-5.1-2-5.5
						c-0.2-0.5-0.8-1-1.8-1.3c-2.8-0.8-3.2-0.7-3.7,0.6c-0.4,0.9-1.1,1.5-2.8,2.4c-1.2,0.6-2.9,1.5-3.6,2c-0.8,0.5-1.5,0.9-1.5,0.9
						c-0.1,0,0-0.6,0.1-1.3c0.3-2-0.6-6.6-1.5-7.6c-0.9-1.1-1.3-4.7-0.4-4.6c0.3,0,4.4,2,9.2,4.4c13.1,6.5,27.3,13,34.1,15.6
						c3.4,1.3,6.3,2.4,6.5,2.5c1.1,0.6,13.7,5.2,18.3,6.7c2.9,0.9,9.1,2.7,13.8,3.9c4.7,1.2,8.8,2.3,8.9,2.4
						c0.2,0.1,0.2,0.7,0.1,1.2c-0.2,0.5-1.5,6.3-3,12.8c-1.5,6.5-3.1,13.8-3.7,16.1c-5.9,25.4-7.1,31.1-6.8,33
						c0.1,1.2,0,2.4-0.2,2.9c-0.7,1.3,0,2.9,1.5,3.6c1.9,0.9,4.8,5,5.4,7.6c0.3,1.4,0.9,2.7,1.8,3.8c0.7,0.9,1.3,1.8,1.3,2
						c0,0.2,0.5,0.8,1.1,1.3c0.6,0.5,1.3,1.7,1.7,2.7c0.4,1,0.9,1.9,1.1,1.9c0.5,0.2,2.5,3.4,3,4.7c0.2,0.6,1.9,3.5,3.8,6.3
						c2,3,3.5,5.7,3.5,6.4c0.1,0.7,0,2.8-0.1,4.9c-0.2,3.8,0.1,5.4,1.3,6.8C115,370.4,115,370.7,114.3,370.6z"/>
					<path class="st11" d="M17.9,308.7c-2-3.4-3.1-7.7-3.6-13.9c-0.3-3.6-0.3-5.8,0-6.2c0.2-0.4,0.4-0.9,0.3-1.3
						c-0.1-1,1.5-1.2,3.2-0.3c2,1,4.7,3.2,4.8,3.8c0,0.3-1.3,2.3-2.9,4.5c-3.5,4.7-3.5,4.9-1.3,10.5c0.8,1.8,1.4,3.6,1.5,4
						C20,311.2,19,310.5,17.9,308.7z"/>
				</g>
				<path id="ca-mb_2_" class="st11" d="M197.4,263.5l0,2.5c0,1.4,0,2.8,0,3.1c0,0.3,0,1.6-0.1,2.7c0,1.2,0,2.4-0.1,2.7
					c0,0.3-0.1,2.9-0.1,5.6c-0.1,4.8,0,5.1,0.7,6.1c0.8,1,0.8,1.1-0.1,2.5c-0.5,0.8-1.1,1.8-1.3,2.2s-0.2,3,0,5.7
					c0.2,2.8,0.4,5.7,0.4,6.6c0,0.9,0.1,3.1,0.2,5.1c0.1,1.9,0.2,4.5,0.3,5.8c0.3,5.3,0.4,7.5,0.5,10.5c0.1,1.7,0.2,4,0.2,5.1
					c0,1.1,0.2,3.7,0.3,5.8c0.1,2.1,0.3,4.6,0.3,5.4c0,0.9,0.2,3.4,0.3,5.6c0.1,2.2,0.3,4.7,0.3,5.4c0,0.7,0.2,3.4,0.3,5.8
					c0.1,2.5,0.3,4.7,0.2,5.1c-0.1,1.1,0.5,9.9,0.8,12.4l0.3,2.5l2.3,0c3.7-0.1,7.3-0.1,8.3-0.1c0.5,0,1.9,0,3.1,0c2.3,0,3.5,0,7,0
					c1.2,0,3.8-0.1,5.8-0.2c2-0.1,5.4-0.4,7.6-0.6l3.9-0.4l0-1.9c0-1-0.2-4-0.4-6.5c-0.2-2.6-0.4-5.9-0.5-7.4s-0.4-5.3-0.6-8.5
					c-0.9-11.1-0.9-12.2-0.2-13.9c0.4-0.8,2.7-4.3,5.2-7.7c2.5-3.4,5.2-7.1,6-8.3c0.8-1.2,1.6-2.4,1.8-2.6c3.2-4.6,4.7-6.9,6.4-9.5
					c1.1-1.7,3.1-4.6,4.3-6.4c1.3-1.8,2.8-4,3.4-4.9c0.6-0.9,1.9-2.7,2.8-4c0.9-1.3,1.7-2.5,1.6-2.8c0-0.4-2.1-1-3.9-1.1
					c-2.7-0.1-3.5-0.3-4-0.8c-0.4-0.5-1.1-0.5-2.9-0.3c-1.3,0.2-2.4,0.6-2.5,0.8c-0.2,0.5-4.6,1.6-5.5,1.4c-0.4-0.1-0.5-0.4-0.4-1
					c0.2-0.9,0.1-1.3-1.6-6.3c-1.2-3.6-1.6-4.7-2.1-6.8c-0.6-2.4-1.7-3-5.8-3.4c-2.6-0.2-3.5-0.5-3.9-1.1c-0.6-0.8-0.9-3.9-0.9-8
					l0-2.6l-2,0.2c-1.1,0.1-2.2,0.2-2.3,0.2c-0.2,0-1.6,0-3.2,0c-1.6,0-3.2,0-3.5,0c-0.3,0-1.8,0-3.3,0c-1.5,0-3,0-3.5,0
					s-1.8,0-3.1,0c-1.3,0-3.7,0.1-5.4,0.1c-1.7,0-4.1,0.1-5.4,0.1c-1.3,0-3.1,0.1-4.1,0.1L197.4,263.5z M216.4,328.4
					c1.5-0.2,2.5,0.4,3.5,1.8c0.5,0.8,1.1,1.6,1.3,1.7c0.8,0.4,3.1,4.9,2.8,5.5c-0.2,0.4,0.8,2.4,1.7,3.7c0.3,0.4,0.7,1.7,0.7,2.8
					c0.2,2.2,2,6.7,3.5,8.6c0.6,0.8,1,2.1,1.4,4.7c0.5,3.6,0.5,3.6-0.4,3.9c-0.5,0.1-1.2,0.7-1.5,1.3c-0.7,1.2-1.4,1.4-2.3,0.7
					c-0.7-0.6-0.9-3.4-0.2-4.7c0.2-0.5,0.5-1.3,0.5-2c0-0.6,0.2-1.4,0.5-1.7c0.6-1,0.5-1.9-0.4-2.3c-0.7-0.3-0.9-0.2-1.2,0.4
					c-0.4,0.9-1.3,1.2-1.4,0.5c0-0.3,0.1-1,0.2-1.7c0.7-3-1.3-5.3-3.6-4.1c-0.9,0.5-1.2,0.4-2-0.2c-0.5-0.4-1.2-1.5-1.7-2.5
					c-0.4-1-1.3-2.3-1.9-2.9c-0.8-0.8-1.1-1.5-1.1-2.3c0-1.1-0.1-1.2-2-1.9c-2.6-1-3.6-0.5-3.4,1.8c0.1,0.9,0.2,2.5,0.2,3.5
					c0.3,5.3,0.3,5.3,2,6.4c3.7,2.3,4,2.6,4.8,4.9c0.4,1.2,0.9,2.9,1,3.6c0.1,0.8,0.7,2.2,1.4,3.2c1.6,2.4,1.9,4.3,0.7,4.8
					c-1.2,0.5-1.7,0.5-2.1,0.1c-0.3-0.4-2-5.2-3.2-9.3c-0.7-2.3-1.4-3-4.2-4.4c-2.3-1.1-3.4-2.1-3.4-2.8c0-0.3,0-0.8,0-1.2
					c0-0.4,0.2-1,0.4-1.3c0.3-0.4,0.3-1.5,0.1-3.1c-0.3-2.6-0.3-2.5-1.9-3.2c-1.7-0.7-2.4-1.5-2.6-3c-0.1-0.8,0.1-1,0.8-1.1
					c1.4-0.2,1.7-1.5,0.7-2.5c-0.5-0.5-0.9-1.1-0.9-1.3c-0.1-0.5,1.6-1.5,2.7-1.6c0.9-0.1,3.1,1.6,3.2,2.4c0,0.3,0.5,1,1.1,1.4
					l1,0.7l0.3-1.5c0.6-2.5,1.9-4.6,3.1-5.1C215.3,328.6,215.9,328.4,216.4,328.4z"/>
				<path id="ca-nb_2_" class="st11" d="M434,371.4c-0.9-0.1-2.1-1.2-2.9-2.6c-0.3-0.6-1-1.1-1.4-1.1c-1.6-0.2-4.8-6.3-5.3-10.1
					c-0.2-1.3-0.5-1.9-1.2-2.4c-1.7-1.2-3.8-2-5-1.9l-1.2,0.1l-0.4-2.4c-0.2-1.3-0.4-2.5-0.3-2.7c0.1-0.2,1.2-0.4,2.5-0.6
					c2.8-0.4,4.3-1.1,5.7-2.7c0.6-0.7,2.1-1.6,3.8-2.3c2.5-1.1,2.8-1.1,4.2-0.7c1.4,0.4,1.5,0.4,2.2-0.5c1.3-1.9,5.7-3.8,5.8-2.5
					c0,0.3-0.2,0.9-0.4,1.5c-0.6,1.5-0.2,4.8,0.8,5.8c0.5,0.5,1,1.4,1.3,2.1c0.3,0.8,1.2,1.8,2.4,2.7c1.9,1.4,2.1,1.5,4.3,1.2
					c1.3-0.2,2.4-0.2,2.6-0.1c0.1,0.1-0.5,1.2-1.4,2.4c-0.9,1.2-2,3.2-2.4,4.4c-1,3.1-5.2,8.5-6.7,8.7c-0.8,0.1-1.2,0.4-1.4,1.3
					C438.9,370.6,436.5,371.7,434,371.4z"/>
				<g id="ca-nl_2_">
					<path class="st11" d="M471.5,323.8c-1.2-1.2-1.4-2.9-0.5-4.5c1-1.8,0.9-3.7-0.2-3.9c-1-0.2-1.1-1-0.3-2.8
						c0.6-1.3,0.6-1.8,0-4.7c-1.1-5.3-1.7-11.7-1.8-18c0-0.4,0-2.2-0.1-3.9c-0.1-3.6,0.5-5,2.9-7.4c1.4-1.4,1.7-1.5,2.3-1.2
						c1.6,1,2,2.4,2.4,7.1c0.2,2.5,0.3,4.7,0.2,4.9c-0.1,0.2-0.2,1.4-0.1,2.7l0,2.3l0.8-1.3c0.5-0.7,0.8-1.4,0.8-1.5
						c0-0.6,1.5-0.9,2.8-0.6c1.5,0.3,1.5,0.4,1.6,2.4l0.1,1.3l1.9-0.2c1.1-0.1,2-0.4,2.1-0.6c0.1-0.2,1-0.7,1.9-1.1
						c1-0.4,2.6-1.2,3.6-1.9c1.8-1.1,3.5-1.4,5.2-0.7c0.9,0.3,1.5,2.4,1,3.4c-0.3,0.7-0.2,0.9,0.5,1.5c0.7,0.6,1.1,0.6,2.7,0.1
						c2.4-0.7,2.8-0.6,3,0.7c0.1,1.1-0.5,2.6-1.6,3.9c-0.4,0.4-0.5,0.7-0.2,0.7c0.3,0,0.5,0.5,0.6,1.3s0.3,1.6,0.5,1.9
						c0.4,0.7,1,0.7,0.9,0.1c-0.1-0.7,1.5-3.3,2.1-3.3c0.3,0,0.8,0.6,1.2,1.4c0.7,1.7,1.3,1.8,2.7,0.4c0.6-0.5,1.2-0.9,1.4-0.7
						c0.2,0.1,0.5,1.4,0.7,2.8c0.2,1.4,0.5,3.2,0.6,4c0.3,2.1-0.9,4.5-2.5,4.8c-1,0.2-1.3,0.1-1.7-0.7c-0.7-1.1-1-1.1-1.5,0.2
						c-0.8,2.1-1.8,1-2.8-3c-0.7-2.9-1.3-4.1-2-4c-0.2,0-0.3,0.7-0.2,1.5c0.1,1.1-0.1,1.7-1.1,3c-1.2,1.5-1.3,1.9-1.4,4.5
						c-0.1,3.8-0.9,4.9-3.8,5.3c-2.6,0.4-2.9-0.2-1.1-2.4c1-1.2,1.1-1.7,1-3c-0.2-1.4-0.2-1.5-1-1c-1.3,1-3,1.5-3.5,1.2
						c-0.5-0.3-1.1,0.1-4.7,2.8c-1.1,0.8-2.4,1.7-3,1.8c-0.6,0.2-1.6,0.5-2.3,0.7c-0.7,0.2-2.9,1.3-4.9,2.4c-2,1.1-3.8,2.1-4.1,2.2
						C472.6,324.7,472,324.3,471.5,323.8z"/>
					<path class="st11" d="M420.6,302c-0.1-0.1-0.8-0.1-1.6-0.1c-0.8,0-1.8-0.3-2.3-0.6c-0.7-0.5-1.3-0.5-3-0.1
						c-2.8,0.6-3.1,0.5-3.5-0.9c-0.8-2.4-0.8-2.7-0.9-3.1c0-0.3-0.4-0.7-0.7-1c-0.6-0.5-0.8-0.4-1.8,0.4c-0.6,0.5-1.5,1-1.9,1
						c-1,0.1-2.5-1.1-1.9-1.5c0.4-0.3,0.2-2.6-0.3-3.9c-0.2-0.5-0.9-1-2-1.2c-3-0.8-6.5-5-5.7-7c0.2-0.4,0.5-0.8,0.7-0.9
						c0.4,0,0.9-1.6,0.9-3c0-0.4,0.4-1.1,0.8-1.5c0.4-0.4,0.9-1.2,1-1.8c0.2-1,0.3-1.1,1.9-0.9c0.9,0.1,2.2,0.4,2.7,0.7
						c1.5,0.8,2.8,0.3,3.5-1.2c0.6-1.2,0.7-1.3,2.6-1.2c1.1,0,2.2,0,2.6-0.1c0.6-0.1,0.7,0.2,0.7,1.2c0,0.7,0,1.4-0.1,1.5
						c-1.6,1.4-2.7,2.7-2.8,3.3c-0.1,0.4-0.6,1.1-1.2,1.6c-1.2,1.1-1.3,1.5-0.1,2.3c1,0.7,3.2,0.1,3.9-1c0.7-1.4,2.6-2.3,4-2
						c1.9,0.3,3.2-0.5,3.7-2.4c0.5-1.6,0.3-3.6-0.3-4.1c-0.2-0.2-0.7,0.1-1.1,0.6c-0.4,0.6-1.2,1-2,1.1c-2.9,0.4-3.2-0.4-1.9-3.9
						c0.5-1.3,0.8-2.7,0.8-3.2c-0.1-1.2-1.8-3.9-2.6-4.5c-0.4-0.2-0.7-0.7-0.8-1.1c-0.1-1.1-2.4-4.2-3.8-5.1
						c-0.9-0.6-1.5-1.4-1.8-2.5c-0.3-0.9-0.8-2.7-1.2-4.1c-0.4-1.3-0.9-3.6-1.1-5c-0.4-2.9-1.3-4.4-2.8-4.5c-0.6,0-1.6-0.4-2.4-0.7
						c-1.5-0.7-1.9-1.8-1.1-3.3c0.3-0.6,0.3-1.2,0-1.7c-0.4-0.9-0.5-1.2-0.3-3.4c0.1-1.4-0.1-1.4-3.6-0.8c-0.8,0.1-1.4,0.1-1.3,0
						c0.1-0.1-0.3-1.4-0.8-2.9c-0.8-2.1-1.2-2.7-1.7-2.7c-0.4,0-1-0.3-1.3-0.6c-0.7-0.8-2.9-6.4-2.7-6.7c0.3-0.4,5.3,3,7.1,4.9
						c1.1,1.1,2.2,2,2.6,2c0.4,0,1.1,0.4,1.6,1c0.5,0.6,1.5,1.3,2.3,1.7c0.9,0.4,1.7,1.3,2.4,2.5c0.7,1.2,1.3,1.8,1.7,1.7
						c0.4,0,1.1,0.5,1.6,1.1c0.8,0.9,1.3,1.2,2.6,1.2c1.4,0.1,1.7,0.3,2.6,1.6c0.6,0.8,1.2,2.2,1.4,3c0.4,1.4,0.5,1.5,2.2,1.8
						c1,0.2,2.2,0.6,2.6,0.9c0.7,0.6,0.7,0.8,0.4,2.6c-0.3,1.7-0.2,2.1,0.3,2.8c0.3,0.5,0.8,1.3,0.9,1.8c0.3,0.8,0.9,1.1,4.6,1.9
						c2.4,0.5,4.6,0.9,5,0.8c0.4,0,1.4,0.5,2.3,1.3l1.7,1.4l3.4-0.3c1.9-0.1,4.1-0.1,4.9,0.1c1.6,0.4,2.5,0.1,3.5-1.3
						c0.3-0.4,1-0.4,3.3-0.1c1.6,0.2,3,0.6,3.2,0.8c0.6,0.7,0.1,2.2-0.9,2.8c-0.6,0.3-1.8,1.7-2.8,3.2c-1,1.4-2.2,3.2-2.8,3.9
						c-0.6,0.7-1.7,2.3-2.5,3.5c-1.6,2.2-2.2,4.6-1.1,4.9c0.9,0.2,4.3-4.4,4.4-6c0.1-0.9,0.9-2.4,2.6-4.9c2.3-3.2,2.7-3.5,4-3.7
						c1.2-0.1,1.6,0,2.4,1c0.9,1,1.2,1.1,1.9,0.8c1.7-0.7,3.6-0.8,4.7-0.2c0.5,0.3,2.1,1,3.4,1.6c1.3,0.5,2.5,1,2.6,1.1
						c0.1,0,0,0.5-0.2,1.1c-0.5,1.5,0.6,3.7,2.4,5.2c1.4,1.1,3.4,3.7,3.5,4.5c0.1,0.6-2,5-3.2,6.5l-1,1.4l-1.8-1.8c-1-1-2-1.9-2.2-2
						c-0.2-0.1-1,0.2-1.7,0.6c-0.7,0.5-2.2,1.2-3.2,1.6c-1.1,0.4-3.1,1.4-4.6,2.1c-1.4,0.8-4.4,2.4-6.7,3.5s-4.8,2.6-5.7,3.1
						c-3.5,2-11.1,5.7-12.5,6.2c-1.2,0.4-1.9,0.3-3.8-0.3c-1.2-0.4-2.4-0.7-2.6-0.5c-0.2,0.2-0.3,1-0.2,1.9c0.2,1.9,0.2,5.4,0,5.6
						C422.6,301.7,420.8,302.1,420.6,302z"/>
				</g>
				<g id="ca-ns_2_">
					<path class="st11" d="M448.6,382.3c-2.3-0.2-3.5-1.4-4.8-4.4c-0.6-1.5-0.8-2.4-0.6-3.1c0.4-1.6,2.5-5.6,3.9-7.7
						c0.7-1,1.5-2.2,1.7-2.6c0.2-0.4,0.8-1,1.4-1.2c1.1-0.4,4.1-3.1,4-3.5c0-0.4-1.7,0.5-3.6,1.9c-3.3,2.5-3.2-0.9,0.1-5.9
						c1.5-2.2,1.8-2.5,3-2.6c3.7-0.3,7.7-1.5,8.9-2.6c0.8-0.7,1.5-1,1.9-0.9c0.4,0.1,1.4,0.1,2.4,0c2-0.2,3.7,0.5,4.5,1.9
						c0.5,0.9,0.4,1.1-1.6,3.7c-1.2,1.5-2.4,3.1-2.7,3.5c-1.2,1.6-4.2,4.6-5,4.9c-0.5,0.2-1.2,1.2-1.7,2.4c-0.8,1.9-1,2-2.1,2
						c-1,0-1.3,0.1-1.5,1c-0.2,0.6-0.3,1.2-0.3,1.4s-0.3,1.7-0.8,3.3c-0.6,2.2-1.3,3.6-3,5.8c-1.2,1.6-2.2,2.9-2.3,2.9
						C450.5,382.5,449.6,382.4,448.6,382.3z"/>
					<path class="st11" d="M470.7,349.8c-0.4-0.2-1.6-1.2-2.7-2.2c-1.5-1.3-2-1.9-1.8-2.3c0.2-0.3,0.7-2.2,1.1-4.2
						c0.8-4.1,1.7-7,2.3-7c0.7-0.1,1.7,1.5,1.9,2.9c0.3,2.2,0.7,3,1.9,3.1c1.4,0.2,3.4,1.7,3.5,2.6c0.1,0.4-0.3,1.7-0.9,2.8
						c-0.7,1.5-1.2,2-1.8,2.1c-0.6,0.1-1.1,0.6-1.6,1.4C471.8,350.3,471.7,350.4,470.7,349.8z"/>
				</g>
				<g id="ca-nt_2_">
					<path class="st11" d="M71.7,125.9c-0.7,0.1-1.6,0.3-2.9,0.6c-2,0.5-3.9,1-4.2,1.2c-0.4,0.2-0.4,0.8-0.1,2.1
						c0.5,2.1,0.1,2.8-1,1.5c-0.4-0.5-0.9-0.9-1-0.9c-0.6,0.1-5,10.9-5.7,14.2c-0.4,2-1,4-1.2,4.5c-0.7,1.5-0.5,1.8,2.3,3.2
						c5.8,3,6,3.4,4.3,8.2c-0.6,1.7-1,3.8-1,4.7c0,1.5,0.1,1.7,1.6,2.7c0.9,0.6,1.6,1.2,1.5,1.3c-0.1,0.2-0.1,1.3,0,2.6
						c0.2,2.4-0.2,3.2-1.7,3.8c-1,0.4-1.5,1.4-1.4,2.8c0.1,0.5,0,1-0.2,1c-0.2,0-0.4,0.5-0.5,1.1c-0.1,0.8,0.1,1.2,0.8,1.8
						c0.6,0.5,1,1.3,1.1,2.5c0.1,1,0.7,2.4,1.4,3.5c0.8,1.2,1.1,2.2,1.1,3.1c0,0.9,0.3,1.8,0.9,2.7c1,1.4,1,1.5,0.6,3.8
						c-0.5,3.2-0.9,8.4-0.7,11.7c0.1,1.5,0.1,3.1,0,3.5c-0.1,0.5,0.2,1.1,0.8,1.7c1.2,1.1,1.9,2.4,2.9,5.1c0.9,2.4,1.8,3.9,3.1,5
						l0.9,0.8l-0.7,1c-0.5,0.7-0.7,1.5-0.6,2.4c0.1,0.8,0,1.8-0.1,2.3c-0.3,0.7-0.1,0.9,2.2,1.6c1.4,0.4,3.3,1.2,4.1,1.6
						c1.3,0.7,1.9,0.7,2.9,0.4c1.5-0.5,1.4-0.9,2.1,5.4l0.6,4.8l4.4,1.2c14.3,3.9,31.1,7.4,47.2,10c4.7,0.7,11.1,1.8,14.2,2.3
						c3.2,0.5,6.3,1,6.9,1.1c0.6,0,3.8,0.3,7,0.5c3.2,0.3,6.4,0.5,6.9,0.5c0.6,0,2.9,0.2,5.1,0.4c2.2,0.2,4.5,0.3,5.2,0.4
						c0.6,0,3.6,0.3,6.7,0.5c6.2,0.5,8.4,0.4,8.3-0.3c0-0.3,0-0.8,0-1.2c0-0.4,0-2.2-0.1-4.1c-0.1-1.8-0.1-3.8-0.1-4.3
						c0-0.5,0-2.1-0.1-3.5c-0.1-4-0.3-10.3-0.3-12.3c0-0.7-0.1-2.7-0.2-4.7c-0.1-1.9-0.1-3.8-0.1-4.1c0-0.3,0-2.1-0.1-3.9
						c-0.1-1.8-0.2-4.8-0.2-6.5c0-1.8-0.1-3.4-0.3-3.6c-0.1-0.2-2.9-1.3-6-2.5c-6.7-2.6-13.7-5.2-18.8-7.2l-3.6-1.4l-2.8-3.6
						l-2.8-3.6l-4.4-0.4l-4.4-0.4l-4.3-4.6c-2.4-2.5-6.1-6.6-8.3-9c-2.2-2.4-6.6-7.1-9.7-10.5c-3.1-3.3-6-6.5-6.4-6.9
						c-0.7-0.8-0.6-1.1,0.2-4.6c3.2-13.1,3.2-13.1,0.4-15.9c-0.8-0.9-1.5-1.7-1.6-1.9c0-0.2-0.2-0.3-0.5-0.3c-0.2,0-0.9-0.2-1.5-0.5
						c-0.6-0.3-1.8-0.6-2.7-0.6c-1.3,0-1.8,0.2-3,1.5c-1.2,1.3-1.6,1.4-2.5,1.2c-1.3-0.3-1.3-0.6-0.1-2.1c0.6-0.7,0.9-1.4,0.7-1.6
						c-0.2-0.2-0.4-1.3-0.6-2.4c-0.4-3.3-0.9-3.3-3.9,0.5c-1.4,1.8-2.6,3.3-2.8,3.3c-0.3,0-1.6-1.1-1.7-1.4c0-0.2-0.4-2.5-0.7-5.2
						c-0.6-4.9-0.7-4.9-1.7-5.3c-1.4-0.5-2.1-0.3-3.1,0.7c-0.7,0.7-1.4,1-2.7,1.1c-1.2,0.1-1.7,0-1.6-0.3c0.2-0.3,0.3-0.9,0.3-1.6
						c0.1-1-0.1-1.2-1.8-1.8c-1.9-0.7-4.7-0.5-7,0.4c-0.5,0.2-2.7,0.7-4.9,1.1c-2.9,0.5-4,0.9-4.2,1.3c-0.1,0.3-0.8,0.7-1.4,0.7
						c-1.1,0.1-1.1,0.1-1.3-1.5C73.2,126.4,73.1,125.7,71.7,125.9z M109.9,176c9.9-1.2,10.8-1.1,11,0.5c0,0.4-0.7,1.5-1.5,2.4
						c-1.1,1.2-1.5,1.9-1.2,2.1c0.5,0.4,6,1.9,8.7,2.4c1.9,0.3,1.9,0.4,1.8,1.6c-0.1,1.4-0.6,2.3-1.1,2.4c-0.2,0-1,0.6-1.7,1.2
						l-1.4,1.2l-2.3-0.8c-1.3-0.4-2.7-0.9-3.1-1.1c-1-0.4-1.5,0.3-2,2.9c-0.5,2.5-0.6,2.6-3.5,4c-1.3,0.6-2.5,1.1-2.7,1.2
						c-0.7,0.1-0.5-1.1,0.4-2.5c1.9-2.9,1.9-2.9,0.6-2.7c-0.7,0.1-1.6,0.6-2.2,1.3c-1.7,1.8-3.1,2.2-4.9,1.5
						c-0.9-0.4-1.8-1.1-2.1-1.6c-0.5-0.8-0.4-1.1,1.8-3.8c1.3-1.6,3.1-3.4,4-4c0.9-0.6,1.6-1.3,1.7-1.7c0.2-1.1-1.5-2.2-3.3-2
						c-0.8,0.1-2.7-0.1-4.1-0.4c-2.1-0.4-2.6-0.7-2.8-1.5c-0.1-0.5-0.1-1.1,0.1-1.2C100.2,177.3,104.7,176.6,109.9,176z
						 M128.9,223.9c0.2,0,1,0.7,1.8,1.6c0.8,0.9,2.1,2.1,3,2.7c2.3,1.6,4,3.1,5.1,4.6c0.9,1.2,1.3,1.4,3.6,1.6
						c2.4,0.3,2.8,0.3,4.8-0.6c1.5-0.6,2.4-1.3,2.9-2.1c1-1.6,2.3-2.5,4.7-2.9c2-0.4,2.1-0.4,2.1,0.7c0.1,1.5-1.2,3.5-2.8,4.1
						c-0.8,0.3-2,1.4-2.8,2.4c-0.8,1-2.5,2.4-3.8,3.2s-3,1.9-3.7,2.4c-0.8,0.6-1.8,0.9-2.3,0.9c-0.7,0-1.3,0.3-2.1,1.1
						c-0.6,0.7-1.7,1.6-2.5,2c-0.8,0.4-1.9,0.8-2.4,0.8c-7.1,0.2-7.8,0.1-11.6-2.7c-3.4-2.5-3.4-3.2-0.3-3.6c1.2-0.1,2.5-0.1,2.9,0
						c0.9,0.4,1.9-0.2,3.3-1.9c0.8-0.9,1.2-1.1,2.5-1.2c1.8-0.1,2.6-0.8,2.5-2c-0.1-1.2-2.2-5.5-4-8.2
						C128.5,225.1,128.2,224,128.9,223.9z"/>
					<path class="st11" d="M160.6,144.9c-2.8-0.5-7.3-1.2-9.9-1.7c-2.6-0.4-6.2-1-7.9-1.3c-3-0.5-3.1-0.5-1.9-0.9
						c0.7-0.2,3.2-0.5,5.5-0.7c3.4-0.3,4.6-0.2,6.1,0.3c1.9,0.7,6.7,1.5,6.9,1.2c0.1-0.1-1-1-2.4-2.1c-2.7-2-4.6-2.8-6.4-2.6
						c-1.4,0.2-7.6-0.7-10.1-1.4c-1.9-0.5-2-0.6-2.9-2.7c-0.5-1.2-1-2.4-1-2.7c-0.1-0.4,1.7-1.3,6.6-3.3l1.7-0.7l-1.4-0.1
						c-0.8-0.1-1.9-0.1-2.5-0.1c-1.2,0-2.6-1.5-2.4-2.6c0.1-0.3-0.1-0.7-0.4-0.8c-0.3-0.1-0.9-0.7-1.3-1.2c-1.1-1.3-0.9-2.8,0.5-4.7
						c1.3-1.8,1.8-2.9,1.7-3.9c-0.2-2,5.1-5.8,10.6-7.6c2-0.7,4.5-1.4,5.4-1.7c1.7-0.4,1.8-0.4,2.3,0.6c0.6,1.3,0.5,3.6-0.4,6
						c-0.3,0.9-0.5,1.8-0.4,1.9c0.1,0.1,1-0.5,1.8-1.4l1.6-1.6l2.5,1.1c1.4,0.6,3,1.4,3.6,1.8l1,0.7l-0.6,1.9l-0.6,1.9l1.5-0.6
						c0.8-0.3,1.6-0.7,1.7-0.9c0.1-0.2-0.1-1-0.5-1.9c-0.4-0.9-0.7-1.6-0.7-1.7c1.5-1.3,2.1-1.6,2.2-1.4c0.3,0.3-4,35.1-4.3,35.5
						C165.9,145.7,163.5,145.4,160.6,144.9z"/>
					<path class="st11" d="M119.8,124.5c-0.1-0.3-0.6-2-1-3.8c-0.7-3-1-3.6-3.3-6.6c-1.4-1.8-2.6-3.5-2.6-3.7c-0.1-0.6,0.9-2,2-2.9
						c0.5-0.4,1.6-2.4,2.6-4.4c0.9-2,2-4.1,2.3-4.5c0.3-0.5,1.7-2.7,3-5c2.3-3.9,2.3-4.2,2.1-6.3c-0.1-1.2-0.3-2.4-0.4-2.7
						c-0.2-0.7,0.8-2.1,1.4-2c0.3,0,1.1,0.1,1.9,0.1c0.8,0,2.4,0.2,3.6,0.6c1.2,0.3,2.9,0.7,3.8,0.8c1.3,0.2,1.7,0.4,2.2,1.4
						c0.3,0.7,1.6,2,2.9,3c2.3,1.8,2.3,1.8,4.5,1.5c3.1-0.5,3.6,0,6,5.2c3.1,6.7,2.9,7.5-2.7,9.6c-2.6,1-5.1,2.5-5.6,3.3
						c-0.1,0.1-0.7,0.5-1.3,0.9c-0.6,0.4-1.5,1.1-1.9,1.6c-0.5,0.5-1.9,2-3.2,3.2c-1.9,1.8-2.5,2.8-3.4,5c-0.6,1.5-1.4,3-1.8,3.3
						c-0.4,0.3-0.8,0.5-0.8,0.4c0-0.1-0.5,0-3.2,1c-0.5,0.2-2.2,0.6-3.9,0.9C120.7,124.9,120,124.9,119.8,124.5z"/>
				</g>
				<g id="ca-nu_2_">
					<path class="st11" d="M192.8,163.7c-1.9-0.2-4.9-1.5-7.2-3.1c-0.7-0.5-2-1.1-2.9-1.4c-0.9-0.3-1.7-0.7-1.7-1
						c-0.1-0.3-0.2-0.7-0.2-1c-0.2-0.9-1.8-0.6-1.9,0.3c-0.2,1.2-2,2.3-4.7,2.8c-1.2,0.3-2.5,0.7-2.7,1c-1,1.3-3,1.8-8.5,2.2
						c-8.2,0.6-10.6,0.5-10.8-0.5c0-0.3-0.2-1.2-0.4-2c-0.2-0.8-0.6-2.5-0.8-3.8c-0.5-2.6-1.3-3.4-3.4-3.5c-2.3-0.1-7.3-2.8-7.5-4
						c0-0.2-0.1-0.4-0.1-0.6c-0.1-0.2-0.6-1.6-1.2-3.3c-0.6-1.7-1.1-3.1-1.1-3.3c0-0.3,0-0.3,17.1,2.6c6.7,1.1,12.3,2,12.3,1.9
						c0.1-0.1,1.1-8.1,2.3-17.8c1.2-9.7,2.2-17.9,2.3-18.3c0.1-0.3,1,1.1,2.1,3.1c1.9,3.6,2,3.8,2.3,7.4c0.3,4.4,0.9,5.5,2.1,4.1
						c0.6-0.7,0.6-1.3,0.2-3.7c-0.3-1.6-0.8-5-1.2-7.6l-0.8-4.8l1.1-1.4c1-1.3,1.2-1.4,2.6-1.3c0.9,0.1,2,0.6,2.6,1.1
						c1,0.9,1,0.9,0.3,0c-0.4-0.5-0.9-1.4-1.2-2.1c-0.7-1.6,0.4-3.1,2.6-3.8c2-0.6,3.6-0.1,5.4,1.8c1.7,1.7,1.5,3.4-0.7,7l-1.8,2.9
						l0.7,4.8c0.8,5.4,1.5,8.5,2.5,10.7c0.6,1.3,0.6,1.6,0,3.6c-0.5,1.6-0.6,2.5-0.3,3.5c0.6,2.1,3.4,4.9,7.2,7.5
						c4.5,2.9,6.2,5.3,5.6,7.9c-0.3,1.2-0.3,1.2-2.4,1.2c-1.2,0-2.4-0.1-2.6-0.3c-0.2-0.2-0.6-0.3-0.9-0.2c-1,0.1-0.7,1.4,0.8,3.2
						c2.5,3.1,2.3,5.2-0.6,7C196.1,163.7,194.8,163.9,192.8,163.7z"/>
					<path class="st11" d="M320.4,325.2c-2.1-0.6-2.5-0.8-2.6-1.6c-0.1-1.1,0.1-1.2,2.7-1.8c1.7-0.4,1.9-0.4,3.1,0.7
						c1.6,1.4,1.7,3,0.2,3.2C323.3,325.7,321.7,325.5,320.4,325.2z"/>
					<path class="st11" d="M231.6,262c-0.1-0.1-1.6-0.1-3.3,0c-1.7,0.1-3.2,0.1-3.3,0c-0.1,0-1.6-0.1-3.3,0c-1.7,0.1-3.2,0.1-3.3,0
						c-0.1,0-1.3-0.1-2.7,0c-1.4,0-3.3,0.1-4.3,0.1c-3.6,0-5,0.1-9.3,0.2c-4.5,0.1-5.2,0-4.9-0.5c0.1-0.2,0.1-1.9,0-4
						c-0.1-2-0.2-4-0.1-4.3c0-0.3,0-2.1-0.1-3.9c-0.1-1.8-0.1-3.8-0.1-4.3c0-0.5,0-2.2-0.1-3.7c-0.1-3.3-0.2-6.4-0.3-8.8
						c0-1-0.1-2.6-0.1-3.7c-0.2-7-0.3-8.7-0.3-12.5c0-1.3-0.1-2.7-0.1-3.2c0-0.7-0.6-1.1-3.3-2.2c-4.1-1.6-11.7-4.5-17.7-6.8
						c-2.6-1-5.4-2.1-6.3-2.4c-1.6-0.6-2.5-1.5-6-6l-1.6-2.1l-4.5-0.4l-4.5-0.4l-2.5-2.7c-1.4-1.5-6.6-7.1-11.6-12.5
						c-5-5.4-10.2-11.1-11.7-12.6c-1.4-1.5-2.6-3-2.6-3.2c-0.1-0.4,3.2-14.7,3.4-15c0.4-0.6,4.5,2.3,6.3,4.5
						c1.2,1.5,4.3,3.5,6.2,4.1c0.8,0.3,1.2,0.2,1.8-0.2c0.7-0.5,1-0.4,2.6,0.6c1,0.7,2.2,1.6,2.7,2.1c1.1,1.2,2.9,4.3,3,5.1
						c0.1,1-0.8,1.7-2.8,2.2c-2.1,0.5-3.7,1.6-3.6,2.3c0,0.2,0.5,0.9,1,1.5c0.8,1,1.6,1.2,5,1.8c6.3,1.1,7.4,1.1,10.2,0.4
						c1.3-0.4,2.8-1,3.4-1.3c0.9-0.5,1-0.5,1.7,0.3c0.4,0.5,1.9,2.1,3.4,3.6c3.5,3.6,4.7,5.4,4.7,6.9c0,0.9,0.1,1.1,0.3,0.6
						c0.2-0.4,0.1-2.1-0.4-4.5l-0.7-3.9l3.8-2.5c2.2-1.5,3.8-2.8,3.9-3.2c0.1-0.6,0-0.6-1.4,0.2c-0.8,0.5-2.4,1.2-3.4,1.6
						c-1.8,0.7-2,0.7-3.1,0.1c-2.8-1.6-1.1-5.6,2.8-6.3c0.8-0.2,2.3-0.7,3.3-1.2s2.4-0.9,3-0.9c1.3,0,2.5,1.3,2.8,3
						c0.1,0.7,0.6,1.8,1,2.4c1.2,1.7,4.4,4.2,5.5,4.1c0.5,0,1,0,1.3,0c0.2,0,0.6,0,0.8,0c0.2,0,1.3,1,2.3,2.3l1.9,2.3l2.4,0
						c1.3,0,3.5-0.2,4.9-0.3c1.4-0.2,3.8-0.1,5.3,0.1c1.5,0.2,2.8,0.4,2.8,0.4s0-0.6-0.1-1.4c-0.1-0.8,0.1-2.1,0.3-3
						c0.2-0.9,0.4-2,0.3-2.6c-0.1-1-0.1-1,1.7-1c2.2,0,4.7,0.5,7.4,1.5c1.2,0.4,2.2,0.8,2.3,0.9c0.1,0.1-0.6,5.5-1.1,8
						c-0.1,0.3,0.3,0.6,0.8,0.8c0.5,0.1,1.2,0.8,1.6,1.5l0.6,1.2l0.1-1.2c0.1-0.8-0.1-1.6-0.6-2.3c-0.4-0.6-0.9-2.1-1.1-3.7
						c-0.4-2.8-0.1-3.5,1.4-3.3c1.4,0.2,3.9-1.5,5-3.4c0.8-1.4,0.9-2.1,0.7-3.9c-0.2-1.7-0.5-2.3-1.1-2.8c-1-0.7-1.5-3.4-0.8-4.3
						c0.6-0.8-2-2.6-4.3-3c-1.4-0.3-2-0.7-3.3-2.3c-1.4-1.7-1.6-2.3-1.8-4.2c-0.1-1.2-0.1-2.6,0.1-3c0.2-0.6,0-1.3-1-3.1l-1.3-2.3
						l0.5-2.3c0.4-1.9,0.7-2.4,2-3.3c1.4-1,1.5-1.2,1-2c-0.4-0.7-0.4-1.1,0.6-2.6c2.5-4.1,2.3-3.9,3.7-3.7c0.9,0.1,1.5,0.4,1.9,1.1
						c0.3,0.5,1.3,1.5,2.2,2.1c2.9,2,3.4,2.8,4,6.5c0.5,3.3,0.6,3.5,2.9,6.4c2.9,3.7,3.4,5.8,1.3,5.3c-0.8-0.2-0.9-0.1-0.6,0.9
						c0.2,0.6,0.2,1.9,0,2.8c-0.3,1.5-0.3,1.7,0.6,2.2c0.8,0.5,1.2,0.5,2.3,0c1.4-0.6,2.7-0.5,5.8,0.4c1.3,0.4,1.4,0.5,1,1
						c-0.3,0.3-1.2,0.8-2.2,1c-2.6,0.7-2.8,1.4-0.7,3.8c1.6,1.9,2.1,2.9,2.6,6c0.3,1.6,0.7,0,0.7-2.6c0-4.1,0.3-5.4,1.8-6.2l1.3-0.7
						l2.9,2.5c2,1.8,3.1,3,3.5,4.1c0.9,2.3,1,3.8,0.2,4.8c-0.4,0.5-0.6,1.3-0.5,2c0.1,1.1,1.1,3.5,1.6,3.8c0.1,0.1,1,1,1.8,2
						c0.8,1,1.6,1.9,1.8,1.8c0.6-0.1,1.9-1.5,2.1-2.4c0.1-0.5,0.2-1.9,0.2-3.2c0-1.3,0.1-2.8,0.4-3.5c0.2-0.7,0.6-2.5,0.8-4
						c0.2-1.5,0.9-3.7,1.4-4.7c1.1-2.2,1.1-3.1-0.1-4.1c-1-0.9-2.7-5.4-2.5-6.6c0.3-1.7,1.1-2.3,3.2-2.6c1.5-0.2,2.6,0,4.3,0.7
						c1.3,0.5,2.6,0.9,3.1,0.8c0.4-0.1,1.4,0.4,2.1,1.1c0.8,0.6,2.2,1.4,3.2,1.8c1.7,0.6,3.3,1.8,3.4,2.5c0,0.2-0.2,0.6-0.5,0.9
						c-0.5,0.5-0.5,0.6,0.4,1.6c0.5,0.6,1.1,1.6,1.4,2.4c0.4,1.3,0.3,1.4-0.7,1.9c-0.6,0.3-1.2,0.9-1.4,1.4c-0.2,0.5-0.7,0.9-1.1,1
						c-1,0.1-0.9,0.8,0.4,2c0.6,0.5,1.3,1.6,1.5,2.2c0.3,0.8,0.8,1.5,1.7,2c2.9,1.5,3.4,5.4,1.3,10.4c-2.5,5.9-2.7,6.2-4.4,6.2
						c-0.8,0-2-0.2-2.6-0.5l-1.1-0.5l0.8,1.4c0.9,1.5,0.5,2.3-0.9,2c-1.5-0.3-2-0.2-2.6,0.4c-0.5,0.5-0.7,0.6-1.9,0.2
						c-0.8-0.2-1.7-0.7-2-1.1c-0.6-0.6-0.9-0.7-2.2-0.3c-0.8,0.2-1.8,0.6-2.1,0.9c-0.6,0.4-0.5,0.6,0.9,1.6c1.4,1.1,1.5,1.3,1.5,2.8
						c-0.1,1.2-0.6,2.4-1.8,4.3c-1,1.5-1.8,3.1-1.9,3.7c-0.1,0.5-0.3,1-0.6,1.1c-0.2,0,0.1,0.4,0.8,0.8c1,0.6,1.2,1,1.3,2.3
						c0,0.9-0.2,2-0.4,2.6c-0.3,0.6-0.8,1.6-1.1,2.3c-0.3,0.7-1.2,2.7-2,4.4c-1.5,3.6-2.1,4.1-5.8,4.5c-2.7,0.3-3.4,1-3.4,3.1
						c0,1.3,0,1.4-1.7,1.5c-1,0.1-2.2,0.1-2.8,0.1c-1.6-0.2-1.6,0.5,0,1.3c0.7,0.4,1.4,0.8,1.5,0.8c0.4,0.3,0.9,3.3,0.6,4.5
						c-0.3,1.6-1.7,2.5-4.3,3c-3,0.5-2.9,0.4-2.1,1.3c0.6,0.8,0.6,0.9-0.6,2.3c-1.7,2.1-3.6,5.4-4.4,7.6c-0.4,1-1,2.2-1.4,2.7
						c-0.9,1-1.6,2.8-1.5,3.8c0,0.4-0.6,2.7-1.4,5.1c-1.2,3.8-1.4,4.8-1.2,6.5l0.3,2l-1.6,0.2C232.5,262,231.7,262,231.6,262z"/>
					<path class="st11" d="M306.2,231.1c-2.2-1-2.6-4.8-0.7-7.4c0.8-1,1.7-1.1,3.1-0.2c1.4,0.9,1.3,5.5-0.1,7.1
						C307.6,231.8,307.6,231.8,306.2,231.1z"/>
					<path class="st11" d="M285.9,229.3c-1.1-1.6-0.3-5.5,1.4-7c1.4-1.2,1.8-1.4,4.7-1.6c1.8-0.2,2-0.1,2.6,0.9
						c0.6,1,0.5,1.3-0.4,3.1c-1.3,2.7-3.4,4.5-5.9,5C286.7,230,286.3,229.9,285.9,229.3z"/>
					<path class="st11" d="M276.3,221.9c-0.5,0-0.7-0.5-0.9-1.9c-0.1-1-0.5-2-0.7-2.2c-0.3-0.2-1.5-0.3-2.6-0.2
						c-4.5,0.5-5.3-0.4-3.2-3.5c1.2-1.7,1.4-2.5,1.1-4.6c-1.2-7.5-1.2-10-0.4-16.1c0.2-1.9,0.4-2.1,1.6-2.5c1.1-0.4,1.4-0.3,2.3,0.6
						c0.5,0.5,1.4,1.7,1.9,2.5c0.7,1.3,1,1.5,2,1.4c0.8-0.1,2.4,0.5,4.7,1.8c1.9,1,4.7,2.5,6.1,3.2c1.4,0.7,2.6,1.6,2.7,1.9
						c0,0.3,0.6,1.2,1.2,2c0.6,0.8,1.2,1.7,1.2,2.1c0.1,0.6,0.4,0.6,2.1,0.2c1.8-0.4,2.1-0.4,3.5,0.4c1.3,0.8,1.5,1.1,1.6,2.3
						c0,2-0.2,2.5-1.6,3.6c-1.3,1-1.3,1-3.1,0.4c-1.2-0.3-2.3-0.4-3.2-0.2c-1.1,0.3-1.6,0.2-2.3-0.4c-0.5-0.4-0.9-1.1-0.9-1.5
						c0.1-1-3.6-2.4-4.3-1.6c-0.3,0.3-0.5,1-0.4,1.4c0.2,1.4-0.3,3-1.3,4.3c-0.5,0.6-1.2,1.7-1.6,2.4c-1,1.8-2.3,3.5-2.7,3.6
						C277.9,221.8,276.9,221.9,276.3,221.9z"/>
					<path class="st11" d="M218.8,167.4c-1.3-0.3-3.1-1.1-4.9-2.5c-0.7-0.5-1.4-0.9-1.6-0.9c-0.8,0.1-2.7-1.3-2.8-2
						c-0.1-1,4.9-10,5.7-10c1-0.1,4.9,3.2,6.2,5.2c1.9,3,3.4,5.9,3.5,7c0.1,0.8-0.2,1.3-1.2,2.2
						C222.2,167.5,220.9,167.8,218.8,167.4z"/>
					<path class="st11" d="M367.7,208c-0.1-0.1-2.5,0.1-5.4,0.3c-4.2,0.3-5.5,0.3-6.2-0.1c-0.5-0.3-1.5-1-2.2-1.4
						c-1.1-0.7-1.6-0.8-3.2-0.5c-2.1,0.4-3.4,0.2-7.6-1.2c-2.5-0.8-2.9-1.1-3.5-2.4c-0.6-1.3-0.6-1.5-0.1-1.9
						c0.7-0.5,0.7-1.2,0.1-1.1c-0.2,0-1.3-0.4-2.5-1c-1.1-0.6-2.6-1.1-3.3-1.2c-0.8-0.1-1.4-0.5-1.9-1.1c-1-1.5-3.1-2.5-5.3-2.5
						c-1.6,0-2,0.2-2.7,1c-0.6,0.7-1.2,1-2.4,1.2c-1.4,0.2-1.9,0.5-3.1,1.9l-1.4,1.7l-3.2,0.4c-5.3,0.6-6.6-0.2-7.7-4.9
						c-0.4-1.6-0.3-1.9,0.6-3.1c0.8-1,1-1.6,0.9-2.7c-0.1-1,0-1.6,0.4-1.9c0.3-0.2,2.7-0.7,5.2-1.1c4.1-0.6,4.6-0.7,5.6-1.7
						c1.5-1.5,3.2-2.6,4.2-2.7c0.7-0.1,0.8-0.2,0.5-0.9c-0.4-1-0.8-1.9-0.8-2.2c0-0.1-0.8-0.6-1.8-1.1c-1.6-0.8-1.7-1-1.7-2.4
						c0-0.8,0.2-2,0.4-2.7c0.2-0.6,1.1-3,1.9-5.3l1.5-4.2l-1.1-2.6c-1-2.5-3.7-5.8-5.8-7.2c-0.4-0.3-1.2-1.1-1.8-1.8
						c-0.6-0.8-2-1.7-3.1-2.2c-1.6-0.7-2.1-1.1-2.5-2.1c-0.4-1.2-0.6-1.3-1.6-1c-0.6,0.2-1.3,0.5-1.6,0.8c-0.3,0.3-1.2,1-2,1.6
						c-1.3,0.9-1.6,0.9-2,0.5c-0.7-0.7-0.4-2.1,0.9-3.5c1-1.2,1-1.2,0.2-1.7c-1.1-0.6-1.6-0.6-2.9,0.4c-1.4,1-2.2,0.8-2.4-0.6
						c-0.1-0.7,0.1-1.3,0.6-1.6c0.7-0.4,0.6-0.6-1.3-2c-3.5-2.7-5.4-3.9-5.9-3.6c-0.3,0.1-0.4,0.8-0.3,1.5l0.2,1.3l-3.9,0.6
						c-2.2,0.3-5,0.7-6.4,0.8c-2.1,0.2-2.5,0.4-2.4,0.9c0.1,0.5-0.3,0.7-3.1,1c-1.8,0.2-5.1,0.4-7.3,0.6c-2.5,0.1-4.6,0.4-5.4,0.8
						c-1.6,0.7-3,0-3.9-1.8c-0.5-1.1-0.7-1.2-1.7-1c-4.5,0.9-4.7,1-5.9,0.2c-2.8-1.6-5.2-4.3-5.4-6.1c-0.1-0.6,0.3-0.8,1.7-1.2
						c1-0.3,2.4-0.5,3.3-0.7c1.3-0.2,1.5-0.3,0.9-0.7c-0.9-0.7-3.1-1-4.9-0.8c-1.2,0.1-1.7,0-2-0.4c-0.9-1.6-1.8-4.7-1.9-6.4
						c-0.5-8-0.4-8.9,0.6-13.9c1.5-7.3,2.9-10.8,4.9-12.3c3.2-2.5,8.8-2.6,9.7-0.2c0.4,0.9,0.3,1.3-0.7,2.7
						c-0.6,0.9-1.2,2.2-1.2,3.1c0,0.8-0.3,1.9-0.6,2.5c-0.6,1.2-1,5.3-0.7,5.8c0.1,0.2,0.5,1.6,0.7,3.2c0.5,3.2,0.7,3.6,1.7,3.5
						c0.4-0.1,0.8-0.5,0.8-1.2c0.1-0.6,0.4-1.4,0.7-1.9c0.4-0.6,0.4-0.9,0-1.4c-1.1-1.2-1.7-2.5-1.9-4.3c-0.2-1.4-0.1-2,0.4-2.6
						c0.4-0.4,0.8-1.1,0.9-1.4c0.1-0.4,0.4-0.7,0.6-0.8c0.2,0,0.4-0.4,0.3-0.8c-0.2-1.4,2.2-5.9,3.7-7c1.6-1.2,5.2-2.3,6.3-2
						c0.7,0.2,1.5,1.1,4.3,5.1c1.8,2.5,3.2,5.4,3.1,6.2c-0.1,1.1,1.5,2.8,2.6,2.7c0.5-0.1,1.5-0.4,2.2-0.7c1.2-0.5,1.3-0.7,1.1-1.3
						c-0.6-1.3,1.5-3.5,4.2-4.4c2.1-0.7,2.4-0.7,3.7-0.1c0.8,0.4,1.8,0.6,2.4,0.5c1.2-0.1,3,1.1,3.6,2.3c0.5,1.3,1.6,2.1,2.4,2
						c0.5-0.1,0.8,0.3,1.1,1.4c0.2,0.8,0.6,1.5,0.8,1.5c0.2,0,1.4,0.8,2.7,1.8c2,1.5,2.4,1.7,2.5,1.2c0.1-0.4,0.3-1.3,0.5-2
						c0.4-1.5,0.8-1.5,4.3-0.8c1.4,0.3,1.9,0.6,2.7,2.2c0.6,1.1,1.5,2,2.2,2.3c0.6,0.3,1.4,0.9,1.7,1.3c1,1.4,1.9,1.6,3,0.6
						c1.1-1.1,2.1-1,4.5,0.3c1.5,0.9,1.8,1.1,1.7,2.1c-0.3,2.7-0.3,3.3,0.2,3.1c0.3-0.1,0.8-0.7,1-1.3c0.8-1.7,2-1.6,4.1,0.1
						c2,1.6,3,2.9,3.2,4c0.4,2.1,0.5,2.4,1.8,2.8c0.8,0.3,1.7,1,2.1,1.6l0.7,1.1l-1.6,1.3c-1.3,1-1.8,1.2-2.6,1
						c-1.2-0.4-1.5,0-0.6,1c0.7,0.8,0.9,2.4,0.4,4.1c-0.2,0.9,1.2,1.9,3.1,2.2c0.8,0.1,2.2,0.6,3.1,1.1c0.9,0.5,2.2,0.8,3,0.7
						c0.7-0.1,1.8,0,2.3,0.2c0.6,0.2,2,0.1,3.2-0.2l2.2-0.4l2.3,1.9c2,1.7,2.5,1.9,3.9,1.8c0.9-0.1,1.8-0.1,2-0.2
						c0.2,0,0.7,0.6,0.9,1.2c0.2,0.7,0.5,1.3,0.7,1.5c0.2,0.1,1.4-0.3,2.8-1l2.5-1.3l1.5,0.7c1.4,0.6,1.6,0.8,1.9,2.7
						c0.4,2.5,0.3,3.4-0.5,4.7c-0.6,0.9-0.6,1,0.1,1.6c0.6,0.5,0.7,0.8,0.4,1.6c-0.2,0.5-0.1,1.6,0.1,2.3c0.5,1.7-0.6,3.8-2,4
						c-0.8,0.1-0.9,0.2-0.6,1c0.6,1.3,2.1,3.5,2.6,3.7c0.9,0.4,0.5,1.2-0.9,2.2c-1.5,1-1.5,1-2.9,0.4c-0.8-0.3-2.3-0.7-3.4-0.8
						c-1.7-0.2-2.1-0.5-3.5-2.1c-1.7-2-4.7-4.3-5.5-4.2c-0.3,0-0.8-0.1-1.1-0.4c-1.7-1.3-4.4-1.9-4.3-1c0,0.2-0.4,0.6-0.9,0.9
						l-1,0.6l1.2,1c1.4,1.1,1.6,2.9,0.4,3.7c-0.6,0.4-0.7,0.7-0.4,1.2c0.2,0.4,0.4,0.6,0.4,0.4c0-0.5,2.9,0.5,3.5,1.2
						c0.3,0.4,1.4,1.3,2.3,2.2c1.7,1.5,2.2,1.7,6.4,2.3c1.2,0.2,1.7,0.5,2,1.1c0.2,0.5,0.7,1.1,1.2,1.2c0.5,0.2,1.3,0.9,1.9,1.7
						c0.6,0.8,2.5,2.5,4.1,3.8l3,2.4l0.6,5.3c0.3,3,0.5,5.5,0.3,5.6c-0.4,0.3-7.6-1.1-11.5-2.2c-1.9-0.5-4-1.4-4.7-1.9
						c-1.2-0.8-2.3-0.9-4.6-0.3c-0.6,0.2-0.1,0.8,0.9,1.1c0.6,0.2,1.5,0.9,2,1.5c0.7,1,1.4,1.3,3.9,2c1.7,0.4,5.1,1.7,7.5,2.9
						l4.4,2.2l0.2,2.3l0.2,2.3l-2.2,0.3C368.8,207.9,367.8,208,367.7,208z"/>
					<path class="st11" d="M311.9,213.4c-1.5-0.8-2.1-1.8-1.6-2.6c0.5-0.8,1.3-0.9,2.7-0.1c1.3,0.7,1.7,2,1,2.9
						C313.6,214.2,313.6,214.2,311.9,213.4z"/>
					<path class="st11" d="M315.6,208.5c-0.7,0-0.9-0.3-0.9-1.1c0-0.8,0.2-1.1,1-1.3c1.3-0.3,2.9,0.7,2.7,1.6
						C318.2,208.4,317.5,208.6,315.6,208.5z"/>
					<path class="st11" d="M304.2,166.4c-2.9-2.3-3-10.4-0.2-12.8c1.2-1.1,3.4-0.8,4.9,0.5c1.2,1.1,1.3,1.2,1.8,5.4
						c0.6,4.8,0.5,5.1-2.3,6.8C306.6,167.5,305.6,167.5,304.2,166.4z"/>
					<path class="st11" d="M313.9,158c-1.2-0.4-2.3-1.7-2-2.4c0.4-0.8,3.4-1,4.1-0.2c0.9,0.9,0.8,1.5-0.3,2.2
						C315,158.1,314.4,158.2,313.9,158z"/>
					<path class="st11" d="M289.8,150.7c-0.4-0.4-0.4-0.6,0.4-1.9c0.5-0.7,0.8-1.9,0.8-3.2c0-1.9,0.7-3.9,1.3-4
						c0.6-0.1,0.9,1.1,0.6,2c-0.2,0.5-0.2,1.5-0.1,2.1C293.1,147.9,290.9,151.5,289.8,150.7z"/>
					<path class="st11" d="M208.3,132.8c-1.1-0.7-2-1.6-2.1-2c-0.8-4.1-1.6-5.1-5.3-7.1c-0.7-0.4-2-1.6-2.8-2.8
						c-1.5-2.1-1.5-2.2-1.2-3.9c0.2-1,0.7-2.2,1.2-2.6c0.8-0.8,0.9-0.8,3.1,0.5c2.1,1.2,2.3,1.3,2.8,0.5c0.3-0.4,0.7-1.5,0.8-2.3
						c0.2-1.3,0.1-1.6-0.6-2.2c-2.1-1.8-2.7-3-2.5-5c0.2-2.1,1.1-4.1,2-4.2c0.3,0,1.6,0.3,2.7,0.8c1.8,0.8,2.2,0.8,2.5,0.3
						c0.8-1.3,4.9-2.7,5.9-2c0.3,0.2,0.6,1.2,0.8,2.4c0.2,1.6,0.1,2.1-0.4,2.4c-0.6,0.3-0.6,0.4,0.1,0.8c1.1,0.6,1,1-0.6,3.4
						c-0.8,1.2-1.5,2.3-1.4,2.6c0,0.2,0.6,0.5,1.3,0.7c0.9,0.2,1.2,0.5,1.3,1.3c0.1,0.6,0.4,1.4,0.8,1.9c1.4,1.8,1.8,2.8,2.3,5.5
						c0.5,2.4,0.4,2.9-0.2,4.4c-0.8,1.7-2.7,3.5-3.8,3.7c-0.4,0-0.5,0.2-0.4,0.4c0.4,0.6-1.3,2.8-2.7,3.4
						C210.4,134,210.2,134,208.3,132.8z"/>
					<path class="st11" d="M223.2,123.5c-0.9-0.6-1.1-1-1.3-2.4c-0.1-0.9-0.4-2.1-0.7-2.7c-1.2-2.3-1.6-11.2-0.6-14.4
						c0.3-1.1,0.6-2.6,0.6-3.4c0.1-2.1,1.2-2.9,5.3-4c1.1-0.3,2-0.2,3.2,0.2c0.9,0.3,2,0.6,2.5,0.5c1.1-0.1,3.5,0.6,5.1,1.6
						c1.4,0.8,1.4,0.8,0.9,2.1c-0.3,0.7-0.7,1.6-0.9,2c-0.3,0.4-0.5,1.2-0.5,1.8c0,0.6-0.5,2.1-1.1,3.2c-0.6,1.2-1.1,3.1-1.3,4.4
						c-0.1,1.3-0.4,2.4-0.6,2.5c-0.2,0.1-1.5,0.4-2.8,0.7c-1.3,0.3-2.5,0.7-2.7,0.9c-0.2,0.3-0.2,3.1,0,5.5c0,0.6-1.8,1.9-3,2
						C224.8,124.1,223.8,123.9,223.2,123.5z"/>
					<path class="st11" d="M276.9,103.9c-2.1-2.7-5.3-7.9-5.2-8.5c0.2-0.9,7.9-1.8,9.7-1.1c2.3,0.9,5.4,3.5,7,5.7
						c0.9,1.3-0.1,2.2-3,2.4c-1.8,0.2-2.7,0.4-3.9,1.2C279.4,105.3,278,105.3,276.9,103.9z"/>
					<path class="st11" d="M223.5,90.8c-0.8-0.1-5.4-2.5-6.6-3.4c-1-0.8-1-2.1,0.3-5.3c1-2.6,1.3-3.1,2.6-3.7
						c1.7-0.8,3.5-0.6,5.3,0.5c1.1,0.7,1.2,1,1.9,5.2c0.8,4.4,0.8,4.5-0.1,5.6C226.1,90.7,225.2,91,223.5,90.8z"/>
					<path class="st11" d="M207.7,85.6c-1.8-0.6-3.9-2.3-4-3.3c0-0.4,0.4-1.2,1-1.9l1.1-1.2l-3.5,0.6c-4,0.6-4.7,0.4-4.9-2.1
						c-0.2-1.8-0.8-2.5-3.1-3.6c-1.1-0.5-2.1-1.1-2.1-1.2c0-0.1,0.2-0.8,0.5-1.4c0.5-1.1,0.6-1.2,2.3-1.2c2.1,0,3.2,0.4,3.3,1
						c0,0.3,0.9,1.2,2,2.1c1.4,1.2,2.2,1.6,3,1.5c1-0.1,1.1-0.3,1.1-1.6c0-1.5-0.6-2.2-2.9-3.2c-0.6-0.3-1.1-0.7-1.2-1
						c0-0.3,0.7-1.3,1.7-2.2c1.3-1.3,2-1.7,2.8-1.7c0.6,0,2,0,3.2,0c1.2,0,2.5,0.2,3.1,0.4l1,0.5l0.7,7.2c0.4,4.3,0.5,7.4,0.3,7.7
						c-0.2,0.3-0.2,1.1,0.1,1.9c0.6,2,0.1,3-1.9,3.2C210.1,86,208.6,85.8,207.7,85.6z"/>
					<path class="st11" d="M179.6,86.5c-1.7-0.8-2.7-0.7-3.6,0.4c-0.3,0.4-0.8,0.5-1,0.4c-0.6-0.3,0.4-9.4,1-9.3
						c0.3,0,0.4-0.7,0.2-2c-0.3-2.6,0.4-11.9,1-13.2c0.9-1.9,4.1-0.8,3.3,1.2c-0.2,0.5-0.2,1.1,0.1,1.6c0.5,0.9,0.7,3.4,0.3,4.4
						c-0.1,0.4-0.2,1.4,0,2.2c0.2,1.3,0.4,1.5,1.2,1.5c0.5,0,1.7-0.3,2.6-0.7c1.5-0.6,1.7-0.6,2.5,0c1.6,1.2,2.6,6.5,1.6,8.3
						c-0.3,0.5-0.8,1.5-1.1,2.2C186,86.7,182.6,87.9,179.6,86.5z"/>
					<path class="st11" d="M190,85.2c-0.4-0.7-0.3-1.2,0-2c0.3-0.6,0.5-1.2,0.5-1.2s0.6-0.2,1.2-0.4c1.1-0.3,1.2-0.3,2.2,1.3
						c0.6,1,0.9,1.9,0.7,2.1c-0.2,0.2-1.2,0.6-2.3,0.8C190.7,86.1,190.5,86,190,85.2z"/>
				</g>
				<path id="ca-on_2_" class="st11" d="M333.2,435.7c0.3-0.8,0.8-1.3,1.8-1.6c0.8-0.2,1.6-0.6,1.9-0.8c0.7-0.6,0.7-3.3,0.1-3.6
					c-0.4-0.2-0.4-0.5-0.2-1c0.2-0.4,0.3-1.4,0.4-2.2c0-0.8,0.4-1.7,0.7-2c1.3-1.2,2.2-3.5,1.9-4.9c-0.2-0.7-0.5-2.7-0.7-4.4
					c-0.4-2.9-0.4-3.3,0.6-5.8l1.1-2.6l-0.9-1.4c-0.5-0.8-1.3-1.7-1.8-2.1c-0.9-0.6-1.3-1.6-0.7-1.7c0.2,0,1.4,0.9,2.8,2
					c2.3,1.8,4.5,2.9,6.6,3.3c2.2,0.3,2.9-3.4,1.1-5.4c-1.2-1.3-5.9-5.4-7.1-6.1c-0.4-0.2-1.9-0.4-3.4-0.4c-1.4,0-3.5-0.1-4.7-0.3
					c-1.5-0.3-3.8-0.2-7.8,0.3c-5.3,0.6-5.7,0.6-6.3,0c-0.4-0.4-1.6-1.1-2.8-1.5c-1.7-0.7-2.2-1-2.3-1.8c-0.1-0.6-0.7-1.5-1.4-2
					c-1.1-0.9-1.2-1.1-0.6-1.3c0.8-0.4,0.7-1.3-0.4-2.5c-0.5-0.6-1.3-1.7-1.9-2.6c-0.8-1.4-1.1-1.6-2.4-1.7
					c-1.5-0.1-5.8-1.5-6.9-2.3c-0.3-0.3-0.7-1.1-0.9-1.9c-0.2-0.8-0.5-1.9-0.7-2.5l-0.4-1.1l-3.1,0.6c-2.8,0.5-3.2,0.5-5.4-0.3
					l-2.4-0.9l-1.5,1.2c-1.3,1.1-1.4,1.2-0.8,1.7c0.6,0.5,0.5,0.7-1.7,2.5c-1.3,1.1-2.9,2.7-3.6,3.7c-1.3,1.9-1.5,1.9-7.1,1.7
					c-1.6-0.1-4.1,0-5.6,0.1c-2.6,0.2-5.2-0.4-5.3-1.2c0-0.2-0.5-0.3-1-0.2c-0.6,0.1-1.6-0.3-2.5-1c-1.6-1.2-1.6-1.2-5.1-0.7
					c-2.5,0.3-3.7,0.3-4.1-0.1c-0.3-0.3-1.3-0.5-2.1-0.6c-2.2-0.1-2.4-0.4-3-3c-0.5-2.2-0.7-2.4-1.8-2.8c-1.2-0.5-1.3-0.6-1.5-2.7
					c-0.2-2.5-1-12.9-1.3-16.6c-0.1-1.3-0.4-5.1-0.6-8.5c-0.6-7.7-1.1-6.4,6.8-17.1c1.7-2.2,4-5.5,5.2-7.2c1.2-1.7,2.3-3.4,2.5-3.6
					c0.2-0.3,2.1-3.2,4.3-6.4c2.2-3.3,4.7-7,5.6-8.3c4.5-6.4,6.4-9.3,7-10.2l0.6-1.1l1.4,0.6c1.7,0.7,4.5,2.8,4.6,3.4
					c0,0.2,0.7,0.9,1.4,1.5c1,0.8,2,1.1,3.7,1.2c1.6,0.1,2.7,0.5,3.6,1.1c1.2,0.9,2.2,1.1,4,1c0.4,0,1.8,0.7,3.1,1.5l2.3,1.6
					l7.2-0.6c6.3-0.6,7.4-0.6,8.9,0l1.7,0.6l0.1,3.4c0.1,1.9,0,3.5-0.2,3.7c-0.2,0.2,0.1,0.9,0.6,1.5c0.5,0.6,1.1,1.9,1.3,2.8
					c0.8,3,0.9,3.3,1.3,4c0.2,0.4,0.5,1.5,0.5,2.5c0.1,1.4,0.4,2.1,1.5,3.4c1.8,2.2,7,7.2,7.5,7.1c0.9-0.1,3.7,2.8,4.6,4.7l1,2.1
					l2.3-0.5l2.3-0.5l0.5,1.9c0.8,3.1,1.1,4.4,1.6,6.7c0.2,1.2,0.6,2.5,0.7,3c0.2,0.5,0.5,2,0.8,3.2c0.3,1.2,0.6,2.7,0.8,3.2
					c0.3,1.2,1.1,4.3,1.6,6.6c0.2,1,0.6,2.5,0.8,3.2c1.1,4.6,1.9,7.7,2.3,9.6c0.3,1.2,1.2,3.3,2,4.7c1.2,2.1,1.8,2.6,3.9,3.7
					c2.7,1.4,6.3,2.3,9.8,2.2c1.6,0,2.9,0.2,4.2,0.9c1,0.5,2.2,0.9,2.6,0.8c0.4,0,1.3,0.5,2,1.3l1.2,1.4l3.3-0.6
					c2.8-0.5,3.6-0.8,5.5-2.2c2.3-1.6,4.1-2.5,4.2-1.9c0.1,0.6,0.5,1.5,0.8,2.3c0.3,0.6,0.1,1.1-1,2.2c-2.1,2.3-3.9,4.7-6.3,8.6
					c-1.2,2-2.4,3.7-2.7,3.8c-0.6,0.1-2,1.8-1.7,2.1c0.5,0.7-2.4,2.2-4.9,2.6c-4.5,0.7-10.8,4.2-11.9,6.7c-1.1,2.5-1,3,0.5,3.5
					c0.8,0.2,1.7,0.3,2.1,0.1c0.6-0.2,0.9,0,1.5,1c0.9,1.5,0.7,1.7-1.9,2.1c-1.5,0.2-5.5,2.3-6.5,3.4c-0.5,0.5-0.4,0.7,0.5,1.2
					l1,0.6l-1,0.4c-0.6,0.2-1.8,0.3-2.8,0.2c-3.7-0.5-4.5,0-8.5,5.4c-2.2,2.9-2.7,3.4-3.8,3.6c-0.7,0.1-1.9,0.3-2.5,0.5l-1.2,0.3
					L333.2,435.7z"/>
				<path id="ca-pe_2_" class="st11" d="M459.1,350.7c-0.1-0.1-1.7-0.1-3.4,0.1c-1.8,0.1-4.2,0.1-5.4-0.1c-2.7-0.4-3.2-0.5-3.9-0.5
					c-1.6,0.1-1.8-0.5-1.1-2.6c0.4-1.1,0.9-2.1,1.2-2.1c0.3,0,1.4,0.6,2.4,1.4c1.6,1.2,2,1.3,2.3,0.9c0.2-0.3,1.1-0.7,2.3-0.8
					c1-0.1,2.2-0.4,2.5-0.7c1.1-0.8,4.5-2.1,4.7-1.8c0.1,0.2,0,0.8-0.2,1.4c-0.2,0.6-0.4,1.9-0.3,2.8
					C460.2,350.3,459.7,351.2,459.1,350.7z"/>
				<g id="ca-qc_2_">
					<path class="st11" d="M385.4,388.7c-0.4-0.5-0.9-1.6-1.1-2.3c-0.3-1.2-0.4-1.3-1.9-1.2c-1.6,0.1-3.5,1.1-5.6,3
						c-0.7,0.6-1.6,0.9-3.8,1.2c-2.8,0.3-2.9,0.3-3.9-0.9c-0.6-0.7-1.4-1.2-1.8-1.1c-0.4,0-1.7-0.3-2.8-0.9
						c-1.5-0.7-2.7-0.9-4.2-0.9c-3.3,0.1-7-0.6-9.4-1.9c-1.8-0.9-2.4-1.6-3.6-3.6c-0.9-1.5-1.7-3.4-2-4.9c-0.3-1.4-0.7-3-0.8-3.6
						c-0.2-0.6-0.7-2.8-1.2-4.7c-0.5-2-1-4.2-1.2-4.9c-0.2-0.7-0.5-2.1-0.7-3c-0.2-0.9-1.5-6.2-2.8-11.6c-1.3-5.4-2.5-10.3-2.7-10.9
						c-0.3-0.9-0.2-1,0.8-1.4c1.1-0.4,1.1-0.5,0.8-1.5c-0.3-0.9-0.2-1.5,0.5-2.9c0.5-1,0.8-2.2,0.7-2.7c-0.1-0.5-1-2.4-2.1-4.1
						c-1.1-1.7-2.2-3.7-2.5-4.6c-0.3-0.8-0.9-1.9-1.4-2.4c-0.5-0.6-0.8-1.5-0.9-2.7c-0.1-2-1.4-4.1-2.9-4.7
						c-0.5-0.2-0.8-0.7-0.9-1.3c-0.1-0.6-0.5-1.4-1-1.9c-0.5-0.5-0.9-1-0.9-1.2c-0.1-0.6,1.6-2.5,3.6-4.1c1-0.8,2.2-2.1,2.8-3
						c0.6-0.9,1.7-2.6,2.5-3.7c1-1.4,1.8-3.3,2.5-5.7c0.9-3.3,0.9-3.9,0.5-6.9c-0.3-2.4-0.9-4.1-1.9-6.3c-0.8-1.7-1.6-3.5-1.8-4
						c-0.6-1.7-4.5-5-7.1-6c-3.1-1.2-5.7-3.2-6-4.7c-0.1-0.6,0-1.8,0.2-2.7s0.5-1.8,0.5-2.2c0-0.3,0.4-0.9,0.7-1.3
						c0.5-0.6,0.7-1.2,0.5-2.6c-0.2-1.3,0-2.1,0.4-2.7c0.6-0.8,0.6-1-0.1-2.4c-0.4-0.8-0.9-1.9-1-2.5c-0.4-1.2-1.6-3-2.9-4.4
						c-0.9-0.9-1.1-1.5-1.5-5.4c-0.4-3.2-0.7-4.5-1.1-4.9c-0.3-0.3-1.2-1.7-2-3.1l-1.4-2.5l0.7-2.1c0.7-2,0.8-2.2,2.5-2.6
						c2.8-0.8,5.3-0.9,7-0.6c2.3,0.5,5.4,0.4,6.5-0.2c0.6-0.3,1.6-1.3,2.3-2.2c0.7-0.9,1.5-1.7,1.7-1.7c0.7-0.1,8.5,2.9,11.2,4.3
						c2,1,2.5,1.4,2.5,2.2c0,0.5,0.4,1.4,0.8,1.9c0.7,0.8,1.2,0.9,4.7,0.9c2.2,0,4.9,0.2,5.9,0.4l1.9,0.4l0,2.1
						c0,2.1,0.4,3.4,2.8,8.2c0.3,0.6,0.6,1.6,0.6,2.2c0.1,0.7,0.5,1.4,1.2,1.9c0.6,0.5,1.5,1.6,2,2.5l1,1.6l1.9-0.5
						c1.8-0.4,1.9-0.4,4.1,1c1.2,0.8,2.7,1.5,3.3,1.6c0.6,0.1,1.1,0.3,1.1,0.5c0.1,0.7,0.9,0.2,2.3-1.6c1.1-1.4,1.5-2.2,1.6-3.5
						c0.1-1.1,0.3-1.8,0.9-2.1c0.5-0.3,0.9-1.2,1.1-2.2c0.4-2-0.2-6-1-7.1c-0.3-0.4-0.5-0.9-0.5-1.1c0-0.2,0.1-1.4,0.2-2.5
						c0.1-2,0.8-3.4,1.5-3.1c0.1,0.1,0.5,0.8,0.7,1.5c0.5,1.8,2.5,4.5,3.2,4.4c0.5-0.1,2,3.7,1.9,4.7c-0.1,1.1,0.2,1.2,2.3,0.8
						l2.2-0.4l0.2,2.5c0.1,1.3,0.1,3.1,0,3.8c-0.2,0.9-0.1,1.6,0.2,2c0.6,0.8,2.7,1.8,4.2,2c1.3,0.2,1.5,0.5,2.3,5
						c0.3,2,1,4.5,1.4,5.5c0.4,1,1,2.5,1.2,3.2c0.3,0.9,0.8,1.6,1.7,2.1c1.3,0.7,3.5,3.9,3.7,5.1c0,0.3,0.4,0.9,0.9,1.2
						c0.4,0.3,1.2,1.2,1.6,2c0.8,1.3,0.8,1.5,0.3,3.3l-0.6,1.9l-2,0c-1.1,0-2.6,0-3.2-0.1c-1.1-0.1-1.3,0.1-2,1.4
						c-0.8,1.6-1.5,1.9-2.6,1.1c-0.4-0.3-1.8-0.6-3.1-0.7c-2.6-0.2-2.9-0.1-3.1,1.8c-0.1,0.6-0.5,1.3-1,1.7
						c-0.7,0.4-0.9,0.8-0.7,1.8c0.1,0.9-0.1,1.7-0.9,2.7c-0.9,1.2-1,1.6-0.6,2.9c0.2,0.8,0.7,1.9,1,2.5c1.1,1.6,3.6,3.6,5.3,4.2
						c1.8,0.6,2.1,1.5,1.7,3.8c-0.3,1.3-0.2,1.4,0.9,2.2c1.2,0.8,2.6,0.8,4.7-0.3c0.7-0.3,0.8-0.2,1.3,1.6c0.3,1.3,0.8,2.2,1.6,2.8
						c1,0.8,1.3,0.8,3.2,0.3c1.7-0.4,2.2-0.4,2.9,0.1c0.5,0.3,1.1,0.6,1.5,0.6c1.8,0.1,5.7-0.3,6.1-0.6c0.3-0.2,0.4-1.1,0.4-2.1
						c0-2.2-0.1-4.8-0.1-4.9c0-0.1,0.8,0.2,1.7,0.5c1.2,0.5,2.1,0.5,3.2,0.2c1.6-0.4,7.5-3.3,13.6-6.6c9.4-5.1,15.1-8.1,17.3-8.9
						c1.3-0.5,2.6-1.2,2.8-1.4c0.3-0.3,0.6-0.4,0.8-0.2c1,0.9,3.2,3.2,3.2,3.4c0,0.1-0.9,1.2-2.1,2.3c-3.2,3.1-5,5.8-5,7.4
						c0,0.8-0.6,3-1.3,5.1s-1.4,4.1-1.5,4.7c-0.3,1.2-6.1,5.4-9.9,7c-1.4,0.6-4.6,2-7,3c-14.3,6.1-21.1,9.7-22.2,11.7
						c-0.3,0.6-0.7,1.9-0.7,3c-0.1,1.1-0.3,3.1-0.6,4.6c-0.4,2.3-0.6,2.7-1.4,2.8c-1.8,0.2-5.1,5-5.9,8.8c-0.3,1.1-0.9,3-1.5,4.1
						c-0.5,1.1-1,2.7-1,3.4c0,3.3-4.7,13.6-7.5,16.4c-3.9,4-9,11-8.4,11.5c0.1,0.1,1.4-1.7,3-3.9c1.5-2.2,3.8-5,5.1-6.2
						c2.2-2.1,4.4-5.2,5.8-8c1.3-2.5,3.4-8.4,3.3-9.2c-0.1-0.5,0.1-1.2,0.2-1.7c0.5-1.4,3.5-6.2,4.8-7.8c0.7-0.8,1.9-2.3,2.9-3.4
						c0.9-1.1,2.6-2.8,3.8-3.7c1.2-0.9,3.3-2.8,4.8-4.1c1.8-1.6,3.3-2.6,5.1-3.3c2.3-0.9,2.6-0.9,4.7-0.5c1.9,0.3,2.5,0.7,3.2,1.6
						c1.9,2.7,1.9,4.7,0,7.7c-1.8,2.9-2.5,3.5-4.7,4c-4.3,1-7.9,2.5-8.9,3.8c-1.4,1.6-2.6,2.2-5.6,2.7c-3.6,0.6-3.8,0.9-3,4.7
						l0.6,3.1l-1.4,0.4c-0.8,0.2-1.9,0.4-2.5,0.4c-0.8,0-1.2,0.2-1.5,0.9c-0.6,1.2-1.6,6.7-1.6,9.1c0,1,0,2.9-0.1,4.3
						c0,1.4-0.1,3.3,0,4.2c0.1,3-0.8,5.7-2.1,7c-0.7,0.6-1.6,1.8-2,2.5c-0.4,0.7-1.1,1.5-1.5,1.6c-0.4,0.1-3.5,1.2-6.8,2.4
						c-3.3,1.2-6.9,2.2-8.1,2.4C386.4,389.7,386.1,389.6,385.4,388.7z"/>
					<path class="st11" d="M440.6,322.1c-0.5,0-1.4-0.3-2-0.6c-0.6-0.3-2.1-0.6-3.3-0.8c-2.8-0.3-3.5-1.2-1.9-2.8
						c0.8-0.8,1.5-1.1,3.5-1.4c5.2-0.8,7.1-0.8,10.8,0c3.6,0.8,3.7,0.8,3.8,2c0.2,1.5,0,1.6-4.2,2.4
						C442.7,321.9,441.7,322.1,440.6,322.1z"/>
				</g>
				<path id="ca-sk_2_" class="st11" d="M198.4,377.9c-0.1-0.1-1.6-0.1-3.3,0c-1.7,0.1-3.5,0.1-4.1,0.1c-0.5,0-2.1,0-3.5,0
					c-1.4,0-3,0.1-3.5,0c-0.5,0-2.1,0-3.5,0c-1.4,0-6.8-0.4-12.1-0.9c-5.3-0.5-9.9-1-10.2-1c-1.8-0.2-2.8-0.3-5.1-0.5
					c-1.4-0.2-2.9-0.3-3.3-0.3c-0.4,0-2.2-0.2-3.8-0.4c-2.5-0.3-3-0.4-2.9-1c0.1-0.6,1.6-13.4,1.7-14.7c0-0.3,0.3-2.9,0.6-5.8
					c0.3-2.8,0.9-7.8,1.3-11.1c0.4-3.3,1.1-9.6,1.6-14.1c0.5-4.5,1-8.5,1-8.9c0-0.4,0.3-3,0.6-5.8c0.3-2.7,0.9-8.4,1.4-12.5
					c0.5-4.1,1.1-10,1.5-13.1c0.3-3.1,0.9-8.3,1.3-11.6l0.7-6l2-0.1c1.1,0,2.9-0.1,3.9,0c1.1,0,3.2-0.3,4.8-0.7
					c2.8-0.7,3.1-0.7,5.4,0c2.3,0.7,3.2,0.7,3.1-0.1c-0.1-0.4-8.7-3.4-10.7-3.7c-0.9-0.1-2-0.2-2.4-0.1c-0.5,0.1-1.2-0.2-1.7-0.6
					c-1-0.7-2.1-0.7-3.1,0c-0.8,0.6-0.8,0.5-0.6-2.3c0.1-1.6,0.3-2,0.8-1.9c0.6,0.1,3.4,0.3,6,0.5c0.5,0,1.3,0.1,1.7,0.1
					c1.3,0.1,17.5,1.3,18.6,1.3c0.5,0,3.1,0.2,5.7,0.4c2.6,0.2,5.4,0.3,6.2,0.3c1.5,0,1.5,0,1.6,1.3c0.1,0.7,0,4.6,0,8.6
					c-0.1,4-0.1,8.1-0.1,9.2c0,1.9-0.3,3-1,3.1c-0.6,0.1-2.6,2.9-2.9,4.2c-0.3,0.9-0.2,1.6,0.2,2.5c1.2,2.6,1.2,4,0.1,5.5
					c-0.7,1-1,1.6-0.7,1.9c0.3,0.4,0.6,0.3,1.5-0.7c0.6-0.6,1.3-1.2,1.7-1.3c0.6-0.1,0.7,1.1,1,8.9c0,1.2,0.2,3.7,0.3,5.6
					c0.1,1.9,0.2,4.3,0.3,5.2c0,1,0.2,3.5,0.3,5.6c0.1,2.1,0.3,4.5,0.3,5.2c0,0.8,0.1,3.3,0.3,5.6c0.2,2.4,0.3,4.7,0.3,5.2
					c0,0.5,0.1,3.1,0.3,5.6c0.2,2.6,0.3,4.9,0.3,5.2c0,0.3,0.1,2.8,0.3,5.4c0.2,2.7,0.3,5.1,0.3,5.4c0,0.3,0.1,2.8,0.3,5.4
					c0.2,2.7,0.3,5.2,0.3,5.5c0,0.4,0.1,1.8,0.2,3.2C199.4,377.6,199.1,378.4,198.4,377.9z"/>
				<path id="ca-yt_2_" class="st11" d="M81.5,244.5c-0.4-0.2-2.2-0.8-3.8-1.4c-2.5-0.8-11.4-4.1-25.9-9.7
					c-4.6-1.8-21.7-9.8-34.4-16.1c-4.5-2.2-6.5-3.5-6.6-3.9c-0.1-1,0.8-3,1.9-4.1c2-2,0.6-3-3.8-2.6c-0.9,0.1-1.3-0.1-1.5-0.7
					c-0.2-0.4-0.4-0.7-0.6-0.6c-0.7,0.3-2.1-0.3-2.4-1c-0.3-0.6,0.5-2.3,2.8-6.9c4.3-8.5,12.3-24.2,18.4-36.4
					c4.9-9.7,11.2-22.2,19.8-39.1l3.8-7.6l1.3,0.3c2.6,0.6,3.4,1.3,4,3.8c0.3,1.2,1,3,1.6,3.9c0.6,0.9,1.3,2.3,1.5,3.1
					c0.3,1.1,0.9,1.8,2.2,2.6c1.6,1.1,1.7,1.2,1.2,1.9c-0.7,1.1-3.8,7.9-4.5,9.8c-0.3,0.9-0.8,2.6-1,3.8s-0.7,3-1.1,4
					c-1.2,3.6-1.4,3.4,3,5.9c3,1.8,4,2.5,4.1,3.2c0.1,0.5-0.4,2.2-0.9,3.7c-0.7,1.8-1,3.5-1,5c0.1,2.1,0.1,2.2,1.6,3
					c1.6,1,1.5,0.7,1.6,5.2c0,0.1-0.5,0.4-1.1,0.6c-1.2,0.4-2.1,1.9-2,3.2c0.1,0.4-0.2,1.4-0.5,2.2c-0.7,1.5-0.3,2.8,1,3.6
					c0.5,0.3,0.7,0.9,0.7,2c0,1.2,0.2,1.8,1,2.7c0.7,0.8,1.1,1.7,1.3,3.2c0.2,1.2,0.7,2.7,1.1,3.4c0.8,1.2,0.8,1.3,0.4,4.1
					c-0.6,3.6-0.7,6.4-0.6,10.1c0.1,1.6,0,3.6-0.1,4.2c-0.2,1.1-0.2,1.4,0.8,2.2c1.4,1.2,1.9,1.9,3,4.8c0.5,1.3,1.5,3.3,2.2,4.3
					c1,1.4,1.2,1.9,0.9,2.1c-0.3,0.1-0.5,1.1-0.4,2.1c0,1,0,2.4-0.1,3c-0.2,1.3,0.4,1.7,3.6,2.8c1.2,0.4,2.9,1.1,3.8,1.6
					c0.9,0.5,2.1,0.8,2.6,0.7l1-0.1l0.4,4c0.2,2.2,0.3,4.1,0.3,4.2C82.4,244.9,82,244.7,81.5,244.5z"/>
			</g>
		</g>
		<rect x="0.4" y="0.5" class="st12" width="514" height="50"/>
	</g>
</g>
<g id="Layer_2">
</g>
</svg>
