<svg id="Layer_1" data-name="Layer 1" xmlns="http://www.w3.org/2000/svg" viewBox="0 0 16 16"><defs><style>.cls-1{fill:#fff;}</style></defs><title>twitter</title><g id="twitter"><path class="cls-1" d="M16,2.55a10.56,10.56,0,0,1-1.9.6,3.82,3.82,0,0,0,1.5-2,7.84,7.84,0,0,1-2.1.9A3.19,3.19,0,0,0,11.1.95a3.4,3.4,0,0,0-3.3,3.6,3.44,3.44,0,0,0,.1.9,9.18,9.18,0,0,1-6.8-3.7,4.8,4.8,0,0,0-.5,1.7,3.69,3.69,0,0,0,1.5,3,2.26,2.26,0,0,1-1.5-.5h0a3.57,3.57,0,0,0,2.6,3.5,2.48,2.48,0,0,1-.9.1,1.08,1.08,0,0,1-.6-.1,3.3,3.3,0,0,0,3.1,2.5,6.1,6.1,0,0,1-4.1,1.5H0a9.07,9.07,0,0,0,5.1,1.6c6.1,0,9.4-5.5,9.4-10.2v-.5Z"/></g></svg>