<svg id="Layer_1" data-name="Layer 1" xmlns="http://www.w3.org/2000/svg" xmlns:xlink="http://www.w3.org/1999/xlink" viewBox="0 0 17 17"><defs><style>.cls-1{fill:#fff;stroke:#7c7c7c;stroke-miterlimit:10;}.cls-2{fill:#333;}</style><symbol id="Pin" data-name="Pin" viewBox="0 0 16.8 16.8"><circle class="cls-1" cx="8.4" cy="8.4" r="7.9"/><path class="cls-2" d="M3.4,6.2h0a1.85,1.85,0,0,0,.7.2c.2,0,.3,0,.4-.1L7,9.3a1.14,1.14,0,0,0-.3.8,1.22,1.22,0,0,0,.4.9h0c.1.1.1.1.2.1s.1,0,.2-.1L9.1,9.4l1.7,1.7a14.61,14.61,0,0,0,1.5,1.3c.6.5.7.6.7.6a.35.35,0,0,0,.2.1c.1,0,.1,0,.2-.1a.3.3,0,0,0,0-.4s-.1-.1-.6-.7a14.61,14.61,0,0,0-1.3-1.5L9.8,8.7,11.5,7a.3.3,0,0,0,0-.4h0a1.61,1.61,0,0,0-.9-.3,1.14,1.14,0,0,0-.8.3l-3-2.5a.6.6,0,0,0,.1-.4A1.08,1.08,0,0,0,6.6,3h0a.3.3,0,0,0-.4,0L3.4,5.8C3.3,5.9,3.3,6,3.4,6.2Z"/></symbol></defs><title>unpinned</title><use id="Pin-3" data-name="Pin" width="16.8" height="16.8" transform="translate(0.1 0.1)" xlink:href="#Pin"/></svg>